<ttFont>
    <TTGlyph name=".notdef" xMin="180" yMin="0" xMax="570" yMax="701">
      <contour>
        <pt x="234" y="651" on="1"/>
        <pt x="234" y="50" on="1"/>
        <pt x="516" y="50" on="1"/>
        <pt x="516" y="651" on="1"/>
      </contour>
      <contour>
        <pt x="180" y="0" on="1"/>
        <pt x="180" y="701" on="1"/>
        <pt x="570" y="701" on="1"/>
        <pt x="570" y="0" on="1"/>
      </contour>
    </TTGlyph>
    <TTGlyph name="A" xMin="20" yMin="0" xMax="404" yMax="666">
      <contour>
        <pt x="352" y="0" on="1"/>
        <pt x="307" y="195" on="1"/>
        <pt x="117" y="195" on="1"/>
        <pt x="72" y="0" on="1"/>
        <pt x="20" y="0" on="1"/>
        <pt x="176" y="666" on="1"/>
        <pt x="248" y="666" on="1"/>
        <pt x="404" y="0" on="1"/>
      </contour>
      <contour>
        <pt x="127" y="240" on="1"/>
        <pt x="297" y="240" on="1"/>
        <pt x="212" y="609" on="1"/>
      </contour>
    </TTGlyph>
    <TTGlyph name="AE" xMin="10" yMin="0" xMax="630" yMax="666">
      <contour>
        <pt x="630" y="621" on="1"/>
        <pt x="404" y="621" on="1"/>
        <pt x="404" y="358" on="1"/>
        <pt x="601" y="358" on="1"/>
        <pt x="601" y="313" on="1"/>
        <pt x="404" y="313" on="1"/>
        <pt x="404" y="45" on="1"/>
        <pt x="630" y="45" on="1"/>
        <pt x="630" y="0" on="1"/>
        <pt x="354" y="0" on="1"/>
        <pt x="354" y="195" on="1"/>
        <pt x="155" y="195" on="1"/>
        <pt x="65" y="0" on="1"/>
        <pt x="10" y="0" on="1"/>
        <pt x="323" y="666" on="1"/>
        <pt x="630" y="666" on="1"/>
      </contour>
      <contour>
        <pt x="354" y="240" on="1"/>
        <pt x="354" y="625" on="1"/>
        <pt x="176" y="240" on="1"/>
      </contour>
    </TTGlyph>
    <TTGlyph name="Aacute" xMin="20" yMin="0" xMax="404" yMax="813">
      <contour>
        <pt x="352" y="0" on="1"/>
        <pt x="307" y="195" on="1"/>
        <pt x="117" y="195" on="1"/>
        <pt x="72" y="0" on="1"/>
        <pt x="20" y="0" on="1"/>
        <pt x="176" y="666" on="1"/>
        <pt x="248" y="666" on="1"/>
        <pt x="404" y="0" on="1"/>
      </contour>
      <contour>
        <pt x="127" y="240" on="1"/>
        <pt x="297" y="240" on="1"/>
        <pt x="212" y="609" on="1"/>
      </contour>
      <contour>
        <pt x="287" y="813" on="1"/>
        <pt x="232" y="708" on="1"/>
        <pt x="195" y="708" on="1"/>
        <pt x="232" y="813" on="1"/>
      </contour>
    </TTGlyph>
    <TTGlyph name="Abreve" xMin="20" yMin="0" xMax="404" yMax="813">
      <contour>
        <pt x="352" y="0" on="1"/>
        <pt x="307" y="195" on="1"/>
        <pt x="117" y="195" on="1"/>
        <pt x="72" y="0" on="1"/>
        <pt x="20" y="0" on="1"/>
        <pt x="176" y="666" on="1"/>
        <pt x="248" y="666" on="1"/>
        <pt x="404" y="0" on="1"/>
      </contour>
      <contour>
        <pt x="127" y="240" on="1"/>
        <pt x="297" y="240" on="1"/>
        <pt x="212" y="609" on="1"/>
      </contour>
      <contour>
        <pt x="262" y="708" on="0"/>
        <pt x="162" y="708" on="0"/>
        <pt x="107" y="767" on="0"/>
        <pt x="105" y="813" on="1"/>
        <pt x="148" y="813" on="1"/>
        <pt x="149" y="783" on="0"/>
        <pt x="182" y="748" on="0"/>
        <pt x="242" y="748" on="0"/>
        <pt x="275" y="783" on="0"/>
        <pt x="276" y="813" on="1"/>
        <pt x="319" y="813" on="1"/>
        <pt x="317" y="767" on="0"/>
      </contour>
    </TTGlyph>
    <TTGlyph name="Acircumflex" xMin="20" yMin="0" xMax="404" yMax="813">
      <contour>
        <pt x="352" y="0" on="1"/>
        <pt x="307" y="195" on="1"/>
        <pt x="117" y="195" on="1"/>
        <pt x="72" y="0" on="1"/>
        <pt x="20" y="0" on="1"/>
        <pt x="176" y="666" on="1"/>
        <pt x="248" y="666" on="1"/>
        <pt x="404" y="0" on="1"/>
      </contour>
      <contour>
        <pt x="127" y="240" on="1"/>
        <pt x="297" y="240" on="1"/>
        <pt x="212" y="609" on="1"/>
      </contour>
      <contour>
        <pt x="213" y="776" on="1"/>
        <pt x="178" y="708" on="1"/>
        <pt x="142" y="708" on="1"/>
        <pt x="190" y="813" on="1"/>
        <pt x="236" y="813" on="1"/>
        <pt x="284" y="708" on="1"/>
        <pt x="248" y="708" on="1"/>
      </contour>
    </TTGlyph>
    <TTGlyph name="Adieresis" xMin="20" yMin="0" xMax="404" yMax="792">
      <contour>
        <pt x="352" y="0" on="1"/>
        <pt x="307" y="195" on="1"/>
        <pt x="117" y="195" on="1"/>
        <pt x="72" y="0" on="1"/>
        <pt x="20" y="0" on="1"/>
        <pt x="176" y="666" on="1"/>
        <pt x="248" y="666" on="1"/>
        <pt x="404" y="0" on="1"/>
      </contour>
      <contour>
        <pt x="127" y="240" on="1"/>
        <pt x="297" y="240" on="1"/>
        <pt x="212" y="609" on="1"/>
      </contour>
      <contour>
        <pt x="182" y="726" on="0"/>
        <pt x="116" y="726" on="0"/>
        <pt x="116" y="792" on="0"/>
        <pt x="182" y="792" on="0"/>
      </contour>
      <contour>
        <pt x="307" y="726" on="0"/>
        <pt x="241" y="726" on="0"/>
        <pt x="241" y="792" on="0"/>
        <pt x="307" y="792" on="0"/>
      </contour>
    </TTGlyph>
    <TTGlyph name="Agrave" xMin="20" yMin="0" xMax="404" yMax="813">
      <contour>
        <pt x="352" y="0" on="1"/>
        <pt x="307" y="195" on="1"/>
        <pt x="117" y="195" on="1"/>
        <pt x="72" y="0" on="1"/>
        <pt x="20" y="0" on="1"/>
        <pt x="176" y="666" on="1"/>
        <pt x="248" y="666" on="1"/>
        <pt x="404" y="0" on="1"/>
      </contour>
      <contour>
        <pt x="127" y="240" on="1"/>
        <pt x="297" y="240" on="1"/>
        <pt x="212" y="609" on="1"/>
      </contour>
      <contour>
        <pt x="224" y="708" on="1"/>
        <pt x="187" y="708" on="1"/>
        <pt x="132" y="813" on="1"/>
        <pt x="187" y="813" on="1"/>
      </contour>
    </TTGlyph>
    <TTGlyph name="Amacron" xMin="20" yMin="0" xMax="404" yMax="780">
      <contour>
        <pt x="352" y="0" on="1"/>
        <pt x="307" y="195" on="1"/>
        <pt x="117" y="195" on="1"/>
        <pt x="72" y="0" on="1"/>
        <pt x="20" y="0" on="1"/>
        <pt x="176" y="666" on="1"/>
        <pt x="248" y="666" on="1"/>
        <pt x="404" y="0" on="1"/>
      </contour>
      <contour>
        <pt x="127" y="240" on="1"/>
        <pt x="297" y="240" on="1"/>
        <pt x="212" y="609" on="1"/>
      </contour>
      <contour>
        <pt x="315" y="780" on="1"/>
        <pt x="315" y="741" on="1"/>
        <pt x="105" y="741" on="1"/>
        <pt x="105" y="780" on="1"/>
      </contour>
    </TTGlyph>
    <TTGlyph name="Aogonek" xMin="20" yMin="-170" xMax="404" yMax="666">
      <contour>
        <pt x="351" y="-92" on="1"/>
        <pt x="351" y="-128" on="0"/>
        <pt x="390" y="-128" on="1"/>
        <pt x="402" y="-128" on="1"/>
        <pt x="402" y="-170" on="1"/>
        <pt x="390" y="-170" on="1"/>
        <pt x="312" y="-170" on="0"/>
        <pt x="312" y="-105" on="1"/>
        <pt x="312" y="-44" on="0"/>
        <pt x="370" y="0" on="1"/>
        <pt x="352" y="0" on="1"/>
        <pt x="307" y="195" on="1"/>
        <pt x="117" y="195" on="1"/>
        <pt x="72" y="0" on="1"/>
        <pt x="20" y="0" on="1"/>
        <pt x="176" y="666" on="1"/>
        <pt x="248" y="666" on="1"/>
        <pt x="404" y="0" on="1"/>
        <pt x="402" y="0" on="1"/>
        <pt x="351" y="-38" on="0"/>
      </contour>
      <contour>
        <pt x="127" y="240" on="1"/>
        <pt x="297" y="240" on="1"/>
        <pt x="212" y="609" on="1"/>
      </contour>
    </TTGlyph>
    <TTGlyph name="Aring" xMin="20" yMin="0" xMax="404" yMax="831">
      <contour>
        <pt x="352" y="0" on="1"/>
        <pt x="307" y="195" on="1"/>
        <pt x="117" y="195" on="1"/>
        <pt x="72" y="0" on="1"/>
        <pt x="20" y="0" on="1"/>
        <pt x="176" y="666" on="1"/>
        <pt x="248" y="666" on="1"/>
        <pt x="404" y="0" on="1"/>
      </contour>
      <contour>
        <pt x="127" y="240" on="1"/>
        <pt x="297" y="240" on="1"/>
        <pt x="212" y="609" on="1"/>
      </contour>
      <contour>
        <pt x="284" y="730" on="0"/>
        <pt x="246" y="690" on="0"/>
        <pt x="179" y="690" on="0"/>
        <pt x="140" y="731" on="0"/>
        <pt x="140" y="791" on="0"/>
        <pt x="179" y="831" on="0"/>
        <pt x="246" y="831" on="0"/>
        <pt x="284" y="791" on="0"/>
      </contour>
      <contour>
        <pt x="229" y="798" on="0"/>
        <pt x="195" y="798" on="0"/>
        <pt x="175" y="778" on="0"/>
        <pt x="175" y="744" on="0"/>
        <pt x="195" y="723" on="0"/>
        <pt x="229" y="723" on="0"/>
        <pt x="249" y="744" on="0"/>
        <pt x="249" y="778" on="0"/>
      </contour>
    </TTGlyph>
    <TTGlyph name="Atilde" xMin="20" yMin="0" xMax="404" yMax="803">
      <contour>
        <pt x="352" y="0" on="1"/>
        <pt x="307" y="195" on="1"/>
        <pt x="117" y="195" on="1"/>
        <pt x="72" y="0" on="1"/>
        <pt x="20" y="0" on="1"/>
        <pt x="176" y="666" on="1"/>
        <pt x="248" y="666" on="1"/>
        <pt x="404" y="0" on="1"/>
      </contour>
      <contour>
        <pt x="127" y="240" on="1"/>
        <pt x="297" y="240" on="1"/>
        <pt x="212" y="609" on="1"/>
      </contour>
      <contour>
        <pt x="144" y="732" on="1"/>
        <pt x="144" y="719" on="1"/>
        <pt x="101" y="719" on="1"/>
        <pt x="101" y="735" on="1"/>
        <pt x="101" y="764" on="0"/>
        <pt x="132" y="801" on="0"/>
        <pt x="188" y="801" on="0"/>
        <pt x="259" y="760" on="0"/>
        <pt x="271" y="760" on="1"/>
        <pt x="293" y="760" on="0"/>
        <pt x="293" y="790" on="1"/>
        <pt x="293" y="803" on="1"/>
        <pt x="336" y="803" on="1"/>
        <pt x="336" y="787" on="1"/>
        <pt x="336" y="756" on="0"/>
        <pt x="305" y="721" on="0"/>
        <pt x="252" y="721" on="0"/>
        <pt x="183" y="762" on="0"/>
        <pt x="167" y="762" on="1"/>
        <pt x="144" y="762" on="0"/>
      </contour>
    </TTGlyph>
    <TTGlyph name="B" xMin="75" yMin="0" xMax="396" yMax="666">
      <contour>
        <pt x="390" y="516" on="1"/>
        <pt x="390" y="462" on="1"/>
        <pt x="390" y="367" on="0"/>
        <pt x="315" y="336" on="1"/>
        <pt x="396" y="307" on="0"/>
        <pt x="396" y="207" on="1"/>
        <pt x="396" y="150" on="1"/>
        <pt x="396" y="82" on="0"/>
        <pt x="316" y="0" on="0"/>
        <pt x="237" y="0" on="1"/>
        <pt x="75" y="0" on="1"/>
        <pt x="75" y="666" on="1"/>
        <pt x="231" y="666" on="1"/>
        <pt x="310" y="666" on="0"/>
        <pt x="390" y="584" on="0"/>
      </contour>
      <contour>
        <pt x="231" y="621" on="1"/>
        <pt x="125" y="621" on="1"/>
        <pt x="125" y="357" on="1"/>
        <pt x="231" y="357" on="1"/>
        <pt x="340" y="357" on="0"/>
        <pt x="340" y="462" on="1"/>
        <pt x="340" y="516" on="1"/>
        <pt x="340" y="621" on="0"/>
      </contour>
      <contour>
        <pt x="346" y="150" on="1"/>
        <pt x="346" y="207" on="1"/>
        <pt x="346" y="312" on="0"/>
        <pt x="237" y="312" on="1"/>
        <pt x="125" y="312" on="1"/>
        <pt x="125" y="45" on="1"/>
        <pt x="237" y="45" on="1"/>
        <pt x="346" y="45" on="0"/>
      </contour>
    </TTGlyph>
    <TTGlyph name="C" xMin="65" yMin="-5" xMax="349" yMax="671">
      <contour>
        <pt x="65" y="536" on="1"/>
        <pt x="65" y="671" on="0"/>
        <pt x="234" y="671" on="1"/>
        <pt x="291" y="671" on="0"/>
        <pt x="347" y="655" on="1"/>
        <pt x="347" y="608" on="1"/>
        <pt x="290" y="625" on="0"/>
        <pt x="168" y="625" on="0"/>
        <pt x="115" y="580" on="0"/>
        <pt x="115" y="536" on="1"/>
        <pt x="115" y="130" on="1"/>
        <pt x="115" y="86" on="0"/>
        <pt x="168" y="41" on="0"/>
        <pt x="292" y="41" on="0"/>
        <pt x="349" y="58" on="1"/>
        <pt x="349" y="11" on="1"/>
        <pt x="299" y="-5" on="0"/>
        <pt x="234" y="-5" on="1"/>
        <pt x="65" y="-5" on="0"/>
        <pt x="65" y="130" on="1"/>
      </contour>
    </TTGlyph>
    <TTGlyph name="Cacute" xMin="65" yMin="-5" xMax="349" yMax="813">
      <contour>
        <pt x="65" y="536" on="1"/>
        <pt x="65" y="671" on="0"/>
        <pt x="234" y="671" on="1"/>
        <pt x="291" y="671" on="0"/>
        <pt x="347" y="655" on="1"/>
        <pt x="347" y="608" on="1"/>
        <pt x="290" y="625" on="0"/>
        <pt x="168" y="625" on="0"/>
        <pt x="115" y="580" on="0"/>
        <pt x="115" y="536" on="1"/>
        <pt x="115" y="130" on="1"/>
        <pt x="115" y="86" on="0"/>
        <pt x="168" y="41" on="0"/>
        <pt x="292" y="41" on="0"/>
        <pt x="349" y="58" on="1"/>
        <pt x="349" y="11" on="1"/>
        <pt x="299" y="-5" on="0"/>
        <pt x="234" y="-5" on="1"/>
        <pt x="65" y="-5" on="0"/>
        <pt x="65" y="130" on="1"/>
      </contour>
      <contour>
        <pt x="238" y="813" on="1"/>
        <pt x="293" y="813" on="1"/>
        <pt x="238" y="708" on="1"/>
        <pt x="201" y="708" on="1"/>
      </contour>
    </TTGlyph>
    <TTGlyph name="Ccaron" xMin="65" yMin="-5" xMax="349" yMax="813">
      <contour>
        <pt x="115" y="536" on="1"/>
        <pt x="115" y="130" on="1"/>
        <pt x="115" y="86" on="0"/>
        <pt x="168" y="41" on="0"/>
        <pt x="292" y="41" on="0"/>
        <pt x="349" y="58" on="1"/>
        <pt x="349" y="11" on="1"/>
        <pt x="299" y="-5" on="0"/>
        <pt x="234" y="-5" on="1"/>
        <pt x="65" y="-5" on="0"/>
        <pt x="65" y="130" on="1"/>
        <pt x="65" y="536" on="1"/>
        <pt x="65" y="671" on="0"/>
        <pt x="234" y="671" on="1"/>
        <pt x="291" y="671" on="0"/>
        <pt x="347" y="655" on="1"/>
        <pt x="347" y="608" on="1"/>
        <pt x="290" y="625" on="0"/>
        <pt x="168" y="625" on="0"/>
        <pt x="115" y="580" on="0"/>
      </contour>
      <contour>
        <pt x="199" y="708" on="1"/>
        <pt x="151" y="813" on="1"/>
        <pt x="187" y="813" on="1"/>
        <pt x="222" y="745" on="1"/>
        <pt x="257" y="813" on="1"/>
        <pt x="293" y="813" on="1"/>
        <pt x="245" y="708" on="1"/>
      </contour>
    </TTGlyph>
    <TTGlyph name="Ccedilla" xMin="65" yMin="-179" xMax="349" yMax="671">
      <contour>
        <pt x="259" y="-42" on="0"/>
        <pt x="297" y="-77" on="0"/>
        <pt x="297" y="-142" on="0"/>
        <pt x="248" y="-179" on="0"/>
        <pt x="180" y="-179" on="0"/>
        <pt x="162" y="-172" on="1"/>
        <pt x="162" y="-139" on="1"/>
        <pt x="180" y="-147" on="0"/>
        <pt x="207" y="-147" on="1"/>
        <pt x="263" y="-147" on="0"/>
        <pt x="263" y="-67" on="0"/>
        <pt x="205" y="-67" on="1"/>
        <pt x="191" y="-67" on="1"/>
        <pt x="204" y="-4" on="1"/>
        <pt x="65" y="8" on="0"/>
        <pt x="65" y="130" on="1"/>
        <pt x="65" y="536" on="1"/>
        <pt x="65" y="671" on="0"/>
        <pt x="234" y="671" on="1"/>
        <pt x="291" y="671" on="0"/>
        <pt x="347" y="655" on="1"/>
        <pt x="347" y="608" on="1"/>
        <pt x="290" y="625" on="0"/>
        <pt x="168" y="625" on="0"/>
        <pt x="115" y="580" on="0"/>
        <pt x="115" y="536" on="1"/>
        <pt x="115" y="130" on="1"/>
        <pt x="115" y="86" on="0"/>
        <pt x="168" y="41" on="0"/>
        <pt x="292" y="41" on="0"/>
        <pt x="349" y="58" on="1"/>
        <pt x="349" y="11" on="1"/>
        <pt x="299" y="-5" on="0"/>
        <pt x="235" y="-5" on="1"/>
        <pt x="227" y="-40" on="1"/>
      </contour>
    </TTGlyph>
    <TTGlyph name="D" xMin="75" yMin="0" xMax="393" yMax="666">
      <contour>
        <pt x="343" y="516" on="1"/>
        <pt x="343" y="621" on="0"/>
        <pt x="234" y="621" on="1"/>
        <pt x="125" y="621" on="1"/>
        <pt x="125" y="45" on="1"/>
        <pt x="234" y="45" on="1"/>
        <pt x="343" y="45" on="0"/>
        <pt x="343" y="150" on="1"/>
      </contour>
      <contour>
        <pt x="75" y="666" on="1"/>
        <pt x="234" y="666" on="1"/>
        <pt x="313" y="666" on="0"/>
        <pt x="393" y="584" on="0"/>
        <pt x="393" y="516" on="1"/>
        <pt x="393" y="150" on="1"/>
        <pt x="393" y="82" on="0"/>
        <pt x="313" y="0" on="0"/>
        <pt x="234" y="0" on="1"/>
        <pt x="75" y="0" on="1"/>
      </contour>
    </TTGlyph>
    <TTGlyph name="Dcaron" xMin="75" yMin="0" xMax="393" yMax="813">
      <contour>
        <pt x="75" y="666" on="1"/>
        <pt x="234" y="666" on="1"/>
        <pt x="313" y="666" on="0"/>
        <pt x="393" y="584" on="0"/>
        <pt x="393" y="516" on="1"/>
        <pt x="393" y="150" on="1"/>
        <pt x="393" y="82" on="0"/>
        <pt x="313" y="0" on="0"/>
        <pt x="234" y="0" on="1"/>
        <pt x="75" y="0" on="1"/>
      </contour>
      <contour>
        <pt x="343" y="150" on="1"/>
        <pt x="343" y="516" on="1"/>
        <pt x="343" y="621" on="0"/>
        <pt x="234" y="621" on="1"/>
        <pt x="125" y="621" on="1"/>
        <pt x="125" y="45" on="1"/>
        <pt x="234" y="45" on="1"/>
        <pt x="343" y="45" on="0"/>
      </contour>
      <contour>
        <pt x="200" y="708" on="1"/>
        <pt x="152" y="813" on="1"/>
        <pt x="188" y="813" on="1"/>
        <pt x="223" y="745" on="1"/>
        <pt x="258" y="813" on="1"/>
        <pt x="294" y="813" on="1"/>
        <pt x="246" y="708" on="1"/>
      </contour>
    </TTGlyph>
    <TTGlyph name="Dcroat" xMin="15" yMin="0" xMax="393" yMax="666">
      <contour>
        <pt x="75" y="666" on="1"/>
        <pt x="234" y="666" on="1"/>
        <pt x="313" y="666" on="0"/>
        <pt x="393" y="584" on="0"/>
        <pt x="393" y="516" on="1"/>
        <pt x="393" y="150" on="1"/>
        <pt x="393" y="82" on="0"/>
        <pt x="313" y="0" on="0"/>
        <pt x="234" y="0" on="1"/>
        <pt x="75" y="0" on="1"/>
        <pt x="75" y="311" on="1"/>
        <pt x="15" y="311" on="1"/>
        <pt x="15" y="356" on="1"/>
        <pt x="75" y="356" on="1"/>
      </contour>
      <contour>
        <pt x="343" y="150" on="1"/>
        <pt x="343" y="516" on="1"/>
        <pt x="343" y="621" on="0"/>
        <pt x="234" y="621" on="1"/>
        <pt x="125" y="621" on="1"/>
        <pt x="125" y="356" on="1"/>
        <pt x="238" y="356" on="1"/>
        <pt x="238" y="311" on="1"/>
        <pt x="125" y="311" on="1"/>
        <pt x="125" y="45" on="1"/>
        <pt x="234" y="45" on="1"/>
        <pt x="343" y="45" on="0"/>
      </contour>
    </TTGlyph>
    <TTGlyph name="E" xMin="75" yMin="0" xMax="351" yMax="666">
      <contour>
        <pt x="75" y="666" on="1"/>
        <pt x="351" y="666" on="1"/>
        <pt x="351" y="621" on="1"/>
        <pt x="125" y="621" on="1"/>
        <pt x="125" y="358" on="1"/>
        <pt x="322" y="358" on="1"/>
        <pt x="322" y="313" on="1"/>
        <pt x="125" y="313" on="1"/>
        <pt x="125" y="45" on="1"/>
        <pt x="351" y="45" on="1"/>
        <pt x="351" y="0" on="1"/>
        <pt x="75" y="0" on="1"/>
      </contour>
    </TTGlyph>
    <TTGlyph name="Eacute" xMin="75" yMin="0" xMax="351" yMax="813">
      <contour>
        <pt x="75" y="666" on="1"/>
        <pt x="351" y="666" on="1"/>
        <pt x="351" y="621" on="1"/>
        <pt x="125" y="621" on="1"/>
        <pt x="125" y="358" on="1"/>
        <pt x="322" y="358" on="1"/>
        <pt x="322" y="313" on="1"/>
        <pt x="125" y="313" on="1"/>
        <pt x="125" y="45" on="1"/>
        <pt x="351" y="45" on="1"/>
        <pt x="351" y="0" on="1"/>
        <pt x="75" y="0" on="1"/>
      </contour>
      <contour>
        <pt x="234" y="813" on="1"/>
        <pt x="289" y="813" on="1"/>
        <pt x="234" y="708" on="1"/>
        <pt x="197" y="708" on="1"/>
      </contour>
    </TTGlyph>
    <TTGlyph name="Ecaron" xMin="75" yMin="0" xMax="351" yMax="813">
      <contour>
        <pt x="351" y="621" on="1"/>
        <pt x="125" y="621" on="1"/>
        <pt x="125" y="358" on="1"/>
        <pt x="322" y="358" on="1"/>
        <pt x="322" y="313" on="1"/>
        <pt x="125" y="313" on="1"/>
        <pt x="125" y="45" on="1"/>
        <pt x="351" y="45" on="1"/>
        <pt x="351" y="0" on="1"/>
        <pt x="75" y="0" on="1"/>
        <pt x="75" y="666" on="1"/>
        <pt x="351" y="666" on="1"/>
      </contour>
      <contour>
        <pt x="193" y="708" on="1"/>
        <pt x="145" y="813" on="1"/>
        <pt x="181" y="813" on="1"/>
        <pt x="216" y="745" on="1"/>
        <pt x="251" y="813" on="1"/>
        <pt x="287" y="813" on="1"/>
        <pt x="239" y="708" on="1"/>
      </contour>
    </TTGlyph>
    <TTGlyph name="Ecircumflex" xMin="75" yMin="0" xMax="351" yMax="813">
      <contour>
        <pt x="351" y="621" on="1"/>
        <pt x="125" y="621" on="1"/>
        <pt x="125" y="358" on="1"/>
        <pt x="322" y="358" on="1"/>
        <pt x="322" y="313" on="1"/>
        <pt x="125" y="313" on="1"/>
        <pt x="125" y="45" on="1"/>
        <pt x="351" y="45" on="1"/>
        <pt x="351" y="0" on="1"/>
        <pt x="75" y="0" on="1"/>
        <pt x="75" y="666" on="1"/>
        <pt x="351" y="666" on="1"/>
      </contour>
      <contour>
        <pt x="208" y="776" on="1"/>
        <pt x="173" y="708" on="1"/>
        <pt x="137" y="708" on="1"/>
        <pt x="185" y="813" on="1"/>
        <pt x="231" y="813" on="1"/>
        <pt x="279" y="708" on="1"/>
        <pt x="243" y="708" on="1"/>
      </contour>
    </TTGlyph>
    <TTGlyph name="Edieresis" xMin="75" yMin="0" xMax="351" yMax="792">
      <contour>
        <pt x="75" y="666" on="1"/>
        <pt x="351" y="666" on="1"/>
        <pt x="351" y="621" on="1"/>
        <pt x="125" y="621" on="1"/>
        <pt x="125" y="358" on="1"/>
        <pt x="322" y="358" on="1"/>
        <pt x="322" y="313" on="1"/>
        <pt x="125" y="313" on="1"/>
        <pt x="125" y="45" on="1"/>
        <pt x="351" y="45" on="1"/>
        <pt x="351" y="0" on="1"/>
        <pt x="75" y="0" on="1"/>
      </contour>
      <contour>
        <pt x="245" y="726" on="0"/>
        <pt x="245" y="792" on="0"/>
        <pt x="311" y="792" on="0"/>
        <pt x="311" y="726" on="0"/>
      </contour>
      <contour>
        <pt x="120" y="726" on="0"/>
        <pt x="120" y="792" on="0"/>
        <pt x="186" y="792" on="0"/>
        <pt x="186" y="726" on="0"/>
      </contour>
    </TTGlyph>
    <TTGlyph name="Edotaccent" xMin="75" yMin="0" xMax="351" yMax="821">
      <contour>
        <pt x="186" y="755" on="0"/>
        <pt x="186" y="821" on="0"/>
        <pt x="252" y="821" on="0"/>
        <pt x="252" y="755" on="0"/>
      </contour>
      <contour>
        <pt x="75" y="666" on="1"/>
        <pt x="351" y="666" on="1"/>
        <pt x="351" y="621" on="1"/>
        <pt x="125" y="621" on="1"/>
        <pt x="125" y="358" on="1"/>
        <pt x="322" y="358" on="1"/>
        <pt x="322" y="313" on="1"/>
        <pt x="125" y="313" on="1"/>
        <pt x="125" y="45" on="1"/>
        <pt x="351" y="45" on="1"/>
        <pt x="351" y="0" on="1"/>
        <pt x="75" y="0" on="1"/>
      </contour>
    </TTGlyph>
    <TTGlyph name="Egrave" xMin="75" yMin="0" xMax="351" yMax="813">
      <contour>
        <pt x="140" y="813" on="1"/>
        <pt x="195" y="813" on="1"/>
        <pt x="232" y="708" on="1"/>
        <pt x="195" y="708" on="1"/>
      </contour>
      <contour>
        <pt x="75" y="666" on="1"/>
        <pt x="351" y="666" on="1"/>
        <pt x="351" y="621" on="1"/>
        <pt x="125" y="621" on="1"/>
        <pt x="125" y="358" on="1"/>
        <pt x="322" y="358" on="1"/>
        <pt x="322" y="313" on="1"/>
        <pt x="125" y="313" on="1"/>
        <pt x="125" y="45" on="1"/>
        <pt x="351" y="45" on="1"/>
        <pt x="351" y="0" on="1"/>
        <pt x="75" y="0" on="1"/>
      </contour>
    </TTGlyph>
    <TTGlyph name="Emacron" xMin="75" yMin="0" xMax="351" yMax="780">
      <contour>
        <pt x="110" y="780" on="1"/>
        <pt x="320" y="780" on="1"/>
        <pt x="320" y="741" on="1"/>
        <pt x="110" y="741" on="1"/>
      </contour>
      <contour>
        <pt x="75" y="666" on="1"/>
        <pt x="351" y="666" on="1"/>
        <pt x="351" y="621" on="1"/>
        <pt x="125" y="621" on="1"/>
        <pt x="125" y="358" on="1"/>
        <pt x="322" y="358" on="1"/>
        <pt x="322" y="313" on="1"/>
        <pt x="125" y="313" on="1"/>
        <pt x="125" y="45" on="1"/>
        <pt x="351" y="45" on="1"/>
        <pt x="351" y="0" on="1"/>
        <pt x="75" y="0" on="1"/>
      </contour>
    </TTGlyph>
    <TTGlyph name="Eogonek" xMin="75" yMin="-170" xMax="351" yMax="666">
      <contour>
        <pt x="351" y="621" on="1"/>
        <pt x="125" y="621" on="1"/>
        <pt x="125" y="358" on="1"/>
        <pt x="322" y="358" on="1"/>
        <pt x="322" y="313" on="1"/>
        <pt x="125" y="313" on="1"/>
        <pt x="125" y="45" on="1"/>
        <pt x="351" y="45" on="1"/>
        <pt x="351" y="0" on="1"/>
        <pt x="350" y="0" on="1"/>
        <pt x="299" y="-38" on="0"/>
        <pt x="299" y="-92" on="1"/>
        <pt x="299" y="-128" on="0"/>
        <pt x="338" y="-128" on="1"/>
        <pt x="350" y="-128" on="1"/>
        <pt x="350" y="-170" on="1"/>
        <pt x="338" y="-170" on="1"/>
        <pt x="260" y="-170" on="0"/>
        <pt x="260" y="-105" on="1"/>
        <pt x="260" y="-44" on="0"/>
        <pt x="318" y="0" on="1"/>
        <pt x="75" y="0" on="1"/>
        <pt x="75" y="666" on="1"/>
        <pt x="351" y="666" on="1"/>
      </contour>
    </TTGlyph>
    <TTGlyph name="Eth" xMin="-1" yMin="0" xMax="393" yMax="666">
      <contour>
        <pt x="75" y="666" on="1"/>
        <pt x="234" y="666" on="1"/>
        <pt x="313" y="666" on="0"/>
        <pt x="393" y="584" on="0"/>
        <pt x="393" y="516" on="1"/>
        <pt x="393" y="150" on="1"/>
        <pt x="393" y="82" on="0"/>
        <pt x="313" y="0" on="0"/>
        <pt x="234" y="0" on="1"/>
        <pt x="75" y="0" on="1"/>
        <pt x="75" y="304" on="1"/>
        <pt x="-1" y="304" on="1"/>
        <pt x="-1" y="349" on="1"/>
        <pt x="75" y="349" on="1"/>
      </contour>
      <contour>
        <pt x="343" y="150" on="1"/>
        <pt x="343" y="516" on="1"/>
        <pt x="343" y="621" on="0"/>
        <pt x="234" y="621" on="1"/>
        <pt x="125" y="621" on="1"/>
        <pt x="125" y="349" on="1"/>
        <pt x="247" y="349" on="1"/>
        <pt x="247" y="304" on="1"/>
        <pt x="125" y="304" on="1"/>
        <pt x="125" y="45" on="1"/>
        <pt x="234" y="45" on="1"/>
        <pt x="343" y="45" on="0"/>
      </contour>
    </TTGlyph>
    <TTGlyph name="Euro" xMin="13" yMin="-5" xMax="349" yMax="671">
      <contour>
        <pt x="115" y="253" on="1"/>
        <pt x="115" y="130" on="1"/>
        <pt x="115" y="86" on="0"/>
        <pt x="168" y="41" on="0"/>
        <pt x="292" y="41" on="0"/>
        <pt x="349" y="58" on="1"/>
        <pt x="349" y="11" on="1"/>
        <pt x="299" y="-5" on="0"/>
        <pt x="234" y="-5" on="1"/>
        <pt x="65" y="-5" on="0"/>
        <pt x="65" y="130" on="1"/>
        <pt x="65" y="253" on="1"/>
        <pt x="13" y="253" on="1"/>
        <pt x="13" y="293" on="1"/>
        <pt x="65" y="293" on="1"/>
        <pt x="65" y="385" on="1"/>
        <pt x="13" y="385" on="1"/>
        <pt x="13" y="425" on="1"/>
        <pt x="65" y="425" on="1"/>
        <pt x="65" y="536" on="1"/>
        <pt x="65" y="671" on="0"/>
        <pt x="234" y="671" on="1"/>
        <pt x="291" y="671" on="0"/>
        <pt x="347" y="655" on="1"/>
        <pt x="347" y="608" on="1"/>
        <pt x="290" y="625" on="0"/>
        <pt x="168" y="625" on="0"/>
        <pt x="115" y="580" on="0"/>
        <pt x="115" y="536" on="1"/>
        <pt x="115" y="425" on="1"/>
        <pt x="284" y="425" on="1"/>
        <pt x="284" y="385" on="1"/>
        <pt x="115" y="385" on="1"/>
        <pt x="115" y="293" on="1"/>
        <pt x="284" y="293" on="1"/>
        <pt x="284" y="253" on="1"/>
      </contour>
    </TTGlyph>
    <TTGlyph name="F" xMin="75" yMin="0" xMax="342" yMax="666">
      <contour>
        <pt x="75" y="666" on="1"/>
        <pt x="342" y="666" on="1"/>
        <pt x="342" y="621" on="1"/>
        <pt x="125" y="621" on="1"/>
        <pt x="125" y="348" on="1"/>
        <pt x="333" y="348" on="1"/>
        <pt x="333" y="303" on="1"/>
        <pt x="125" y="303" on="1"/>
        <pt x="125" y="0" on="1"/>
        <pt x="75" y="0" on="1"/>
      </contour>
    </TTGlyph>
    <TTGlyph name="G" xMin="65" yMin="-5" xMax="373" yMax="671">
      <contour>
        <pt x="65" y="530" on="1"/>
        <pt x="65" y="671" on="0"/>
        <pt x="239" y="671" on="1"/>
        <pt x="299" y="671" on="0"/>
        <pt x="355" y="655" on="1"/>
        <pt x="355" y="606" on="1"/>
        <pt x="296" y="625" on="0"/>
        <pt x="234" y="625" on="1"/>
        <pt x="115" y="625" on="0"/>
        <pt x="115" y="530" on="1"/>
        <pt x="115" y="130" on="1"/>
        <pt x="115" y="40" on="0"/>
        <pt x="218" y="40" on="1"/>
        <pt x="289" y="40" on="0"/>
        <pt x="323" y="64" on="1"/>
        <pt x="323" y="319" on="1"/>
        <pt x="373" y="319" on="1"/>
        <pt x="373" y="34" on="1"/>
        <pt x="307" y="-5" on="0"/>
        <pt x="150" y="-5" on="0"/>
        <pt x="65" y="59" on="0"/>
        <pt x="65" y="130" on="1"/>
      </contour>
    </TTGlyph>
    <TTGlyph name="Gbreve" xMin="65" yMin="-5" xMax="373" yMax="813">
      <contour>
        <pt x="273" y="708" on="0"/>
        <pt x="173" y="708" on="0"/>
        <pt x="118" y="767" on="0"/>
        <pt x="116" y="813" on="1"/>
        <pt x="159" y="813" on="1"/>
        <pt x="160" y="783" on="0"/>
        <pt x="193" y="748" on="0"/>
        <pt x="253" y="748" on="0"/>
        <pt x="286" y="783" on="0"/>
        <pt x="287" y="813" on="1"/>
        <pt x="330" y="813" on="1"/>
        <pt x="328" y="767" on="0"/>
      </contour>
      <contour>
        <pt x="65" y="530" on="1"/>
        <pt x="65" y="671" on="0"/>
        <pt x="239" y="671" on="1"/>
        <pt x="299" y="671" on="0"/>
        <pt x="355" y="655" on="1"/>
        <pt x="355" y="606" on="1"/>
        <pt x="296" y="625" on="0"/>
        <pt x="234" y="625" on="1"/>
        <pt x="115" y="625" on="0"/>
        <pt x="115" y="530" on="1"/>
        <pt x="115" y="130" on="1"/>
        <pt x="115" y="40" on="0"/>
        <pt x="218" y="40" on="1"/>
        <pt x="289" y="40" on="0"/>
        <pt x="323" y="64" on="1"/>
        <pt x="323" y="319" on="1"/>
        <pt x="373" y="319" on="1"/>
        <pt x="373" y="34" on="1"/>
        <pt x="307" y="-5" on="0"/>
        <pt x="150" y="-5" on="0"/>
        <pt x="65" y="59" on="0"/>
        <pt x="65" y="130" on="1"/>
      </contour>
    </TTGlyph>
    <TTGlyph name="H" xMin="75" yMin="0" xMax="410" yMax="666">
      <contour>
        <pt x="359" y="666" on="1"/>
        <pt x="410" y="666" on="1"/>
        <pt x="410" y="0" on="1"/>
        <pt x="359" y="0" on="1"/>
        <pt x="359" y="304" on="1"/>
        <pt x="125" y="304" on="1"/>
        <pt x="125" y="0" on="1"/>
        <pt x="75" y="0" on="1"/>
        <pt x="75" y="666" on="1"/>
        <pt x="125" y="666" on="1"/>
        <pt x="125" y="349" on="1"/>
        <pt x="359" y="349" on="1"/>
      </contour>
    </TTGlyph>
    <TTGlyph name="I" xMin="75" yMin="0" xMax="125" yMax="666">
      <contour>
        <pt x="75" y="666" on="1"/>
        <pt x="125" y="666" on="1"/>
        <pt x="125" y="0" on="1"/>
        <pt x="75" y="0" on="1"/>
      </contour>
    </TTGlyph>
    <TTGlyph name="Iacute" xMin="75" yMin="0" xMax="351" yMax="813">
      <contour>
        <pt x="75" y="666" on="1"/>
        <pt x="351" y="666" on="1"/>
        <pt x="351" y="621" on="1"/>
        <pt x="125" y="621" on="1"/>
        <pt x="125" y="358" on="1"/>
        <pt x="322" y="358" on="1"/>
        <pt x="322" y="313" on="1"/>
        <pt x="125" y="313" on="1"/>
        <pt x="125" y="45" on="1"/>
        <pt x="351" y="45" on="1"/>
        <pt x="351" y="0" on="1"/>
        <pt x="75" y="0" on="1"/>
      </contour>
      <contour>
        <pt x="234" y="813" on="1"/>
        <pt x="289" y="813" on="1"/>
        <pt x="234" y="708" on="1"/>
        <pt x="197" y="708" on="1"/>
      </contour>
    </TTGlyph>
    <TTGlyph name="Icircumflex" xMin="35" yMin="0" xMax="177" yMax="813">
      <contour>
        <pt x="129" y="813" on="1"/>
        <pt x="177" y="708" on="1"/>
        <pt x="141" y="708" on="1"/>
        <pt x="106" y="776" on="1"/>
        <pt x="71" y="708" on="1"/>
        <pt x="35" y="708" on="1"/>
        <pt x="83" y="813" on="1"/>
      </contour>
      <contour>
        <pt x="75" y="0" on="1"/>
        <pt x="75" y="666" on="1"/>
        <pt x="125" y="666" on="1"/>
        <pt x="125" y="0" on="1"/>
      </contour>
    </TTGlyph>
    <TTGlyph name="Idieresis" xMin="3" yMin="0" xMax="194" yMax="792">
      <contour>
        <pt x="128" y="726" on="0"/>
        <pt x="128" y="792" on="0"/>
        <pt x="194" y="792" on="0"/>
        <pt x="194" y="726" on="0"/>
      </contour>
      <contour>
        <pt x="3" y="726" on="0"/>
        <pt x="3" y="792" on="0"/>
        <pt x="69" y="792" on="0"/>
        <pt x="69" y="726" on="0"/>
      </contour>
      <contour>
        <pt x="75" y="666" on="1"/>
        <pt x="125" y="666" on="1"/>
        <pt x="125" y="0" on="1"/>
        <pt x="75" y="0" on="1"/>
      </contour>
    </TTGlyph>
    <TTGlyph name="Idotaccent" xMin="65" yMin="0" xMax="131" yMax="821">
      <contour>
        <pt x="65" y="755" on="0"/>
        <pt x="65" y="821" on="0"/>
        <pt x="131" y="821" on="0"/>
        <pt x="131" y="755" on="0"/>
      </contour>
      <contour>
        <pt x="75" y="666" on="1"/>
        <pt x="125" y="666" on="1"/>
        <pt x="125" y="0" on="1"/>
        <pt x="75" y="0" on="1"/>
      </contour>
    </TTGlyph>
    <TTGlyph name="Igrave" xMin="75" yMin="0" xMax="351" yMax="813">
      <contour>
        <pt x="142" y="813" on="1"/>
        <pt x="197" y="813" on="1"/>
        <pt x="234" y="708" on="1"/>
        <pt x="197" y="708" on="1"/>
      </contour>
      <contour>
        <pt x="75" y="666" on="1"/>
        <pt x="351" y="666" on="1"/>
        <pt x="351" y="621" on="1"/>
        <pt x="125" y="621" on="1"/>
        <pt x="125" y="358" on="1"/>
        <pt x="322" y="358" on="1"/>
        <pt x="322" y="313" on="1"/>
        <pt x="125" y="313" on="1"/>
        <pt x="125" y="45" on="1"/>
        <pt x="351" y="45" on="1"/>
        <pt x="351" y="0" on="1"/>
        <pt x="75" y="0" on="1"/>
      </contour>
    </TTGlyph>
    <TTGlyph name="Imacron" xMin="-4" yMin="0" xMax="206" yMax="780">
      <contour>
        <pt x="-4" y="780" on="1"/>
        <pt x="206" y="780" on="1"/>
        <pt x="206" y="741" on="1"/>
        <pt x="-4" y="741" on="1"/>
      </contour>
      <contour>
        <pt x="75" y="666" on="1"/>
        <pt x="125" y="666" on="1"/>
        <pt x="125" y="0" on="1"/>
        <pt x="75" y="0" on="1"/>
      </contour>
    </TTGlyph>
    <TTGlyph name="Iogonek" xMin="35" yMin="-170" xMax="125" yMax="666">
      <contour>
        <pt x="125" y="666" on="1"/>
        <pt x="125" y="0" on="1"/>
        <pt x="74" y="-38" on="0"/>
        <pt x="74" y="-92" on="1"/>
        <pt x="74" y="-128" on="0"/>
        <pt x="113" y="-128" on="1"/>
        <pt x="125" y="-128" on="1"/>
        <pt x="125" y="-170" on="1"/>
        <pt x="113" y="-170" on="1"/>
        <pt x="35" y="-170" on="0"/>
        <pt x="35" y="-105" on="1"/>
        <pt x="35" y="-44" on="0"/>
        <pt x="93" y="0" on="1"/>
        <pt x="75" y="0" on="1"/>
        <pt x="75" y="666" on="1"/>
      </contour>
    </TTGlyph>
    <TTGlyph name="J" xMin="11" yMin="-149" xMax="125" yMax="666">
      <contour>
        <pt x="75" y="666" on="1"/>
        <pt x="125" y="666" on="1"/>
        <pt x="125" y="195" on="1"/>
        <pt x="125" y="73" on="0"/>
        <pt x="92" y="-44" on="1"/>
        <pt x="61" y="-149" on="1"/>
        <pt x="11" y="-149" on="1"/>
        <pt x="41" y="-43" on="1"/>
        <pt x="75" y="75" on="0"/>
        <pt x="75" y="194" on="1"/>
      </contour>
    </TTGlyph>
    <TTGlyph name="K" xMin="75" yMin="0" xMax="399" yMax="666">
      <contour>
        <pt x="75" y="666" on="1"/>
        <pt x="125" y="666" on="1"/>
        <pt x="125" y="0" on="1"/>
        <pt x="75" y="0" on="1"/>
      </contour>
      <contour>
        <pt x="337" y="666" on="1"/>
        <pt x="392" y="666" on="1"/>
        <pt x="247" y="332" on="1"/>
        <pt x="399" y="0" on="1"/>
        <pt x="343" y="0" on="1"/>
        <pt x="192" y="330" on="1"/>
      </contour>
    </TTGlyph>
    <TTGlyph name="L" xMin="75" yMin="0" xMax="334" yMax="666">
      <contour>
        <pt x="75" y="666" on="1"/>
        <pt x="125" y="666" on="1"/>
        <pt x="125" y="45" on="1"/>
        <pt x="334" y="45" on="1"/>
        <pt x="334" y="0" on="1"/>
        <pt x="75" y="0" on="1"/>
      </contour>
    </TTGlyph>
    <TTGlyph name="Lacute" xMin="75" yMin="0" xMax="334" yMax="813">
      <contour>
        <pt x="75" y="666" on="1"/>
        <pt x="125" y="666" on="1"/>
        <pt x="125" y="45" on="1"/>
        <pt x="334" y="45" on="1"/>
        <pt x="334" y="0" on="1"/>
        <pt x="75" y="0" on="1"/>
      </contour>
      <contour>
        <pt x="116" y="813" on="1"/>
        <pt x="171" y="813" on="1"/>
        <pt x="116" y="708" on="1"/>
        <pt x="79" y="708" on="1"/>
      </contour>
    </TTGlyph>
    <TTGlyph name="Lcaron" xMin="30" yMin="0" xMax="334" yMax="813">
      <contour>
        <pt x="125" y="45" on="1"/>
        <pt x="334" y="45" on="1"/>
        <pt x="334" y="0" on="1"/>
        <pt x="75" y="0" on="1"/>
        <pt x="75" y="666" on="1"/>
        <pt x="125" y="666" on="1"/>
      </contour>
      <contour>
        <pt x="78" y="708" on="1"/>
        <pt x="30" y="813" on="1"/>
        <pt x="66" y="813" on="1"/>
        <pt x="101" y="745" on="1"/>
        <pt x="136" y="813" on="1"/>
        <pt x="172" y="813" on="1"/>
        <pt x="124" y="708" on="1"/>
      </contour>
    </TTGlyph>
    <TTGlyph name="Lslash" xMin="20" yMin="0" xMax="334" yMax="666">
      <contour>
        <pt x="125" y="45" on="1"/>
        <pt x="334" y="45" on="1"/>
        <pt x="334" y="0" on="1"/>
        <pt x="75" y="0" on="1"/>
        <pt x="75" y="284" on="1"/>
        <pt x="20" y="253" on="1"/>
        <pt x="20" y="298" on="1"/>
        <pt x="75" y="329" on="1"/>
        <pt x="75" y="666" on="1"/>
        <pt x="125" y="666" on="1"/>
        <pt x="125" y="356" on="1"/>
        <pt x="225" y="412" on="1"/>
        <pt x="225" y="367" on="1"/>
        <pt x="125" y="311" on="1"/>
      </contour>
    </TTGlyph>
    <TTGlyph name="M" xMin="75" yMin="0" xMax="526" yMax="666">
      <contour>
        <pt x="526" y="666" on="1"/>
        <pt x="526" y="0" on="1"/>
        <pt x="478" y="0" on="1"/>
        <pt x="478" y="384" on="1"/>
        <pt x="481" y="582" on="1"/>
        <pt x="332" y="180" on="1"/>
        <pt x="268" y="180" on="1"/>
        <pt x="118" y="582" on="1"/>
        <pt x="122" y="488" on="0"/>
        <pt x="122" y="385" on="1"/>
        <pt x="122" y="0" on="1"/>
        <pt x="75" y="0" on="1"/>
        <pt x="75" y="666" on="1"/>
        <pt x="141" y="666" on="1"/>
        <pt x="300" y="227" on="1"/>
        <pt x="459" y="666" on="1"/>
      </contour>
    </TTGlyph>
    <TTGlyph name="N" xMin="75" yMin="0" xMax="416" yMax="666">
      <contour>
        <pt x="368" y="84" on="1"/>
        <pt x="366" y="286" on="1"/>
        <pt x="366" y="666" on="1"/>
        <pt x="416" y="666" on="1"/>
        <pt x="416" y="0" on="1"/>
        <pt x="350" y="0" on="1"/>
        <pt x="159" y="484" on="0"/>
        <pt x="122" y="580" on="1"/>
        <pt x="122" y="580" on="0"/>
        <pt x="124" y="378" on="1"/>
        <pt x="124" y="0" on="1"/>
        <pt x="75" y="0" on="1"/>
        <pt x="75" y="666" on="1"/>
        <pt x="140" y="666" on="1"/>
        <pt x="356" y="116" on="0"/>
      </contour>
    </TTGlyph>
    <TTGlyph name="Nacute" xMin="75" yMin="0" xMax="416" yMax="813">
      <contour>
        <pt x="368" y="84" on="1"/>
        <pt x="366" y="286" on="1"/>
        <pt x="366" y="666" on="1"/>
        <pt x="416" y="666" on="1"/>
        <pt x="416" y="0" on="1"/>
        <pt x="350" y="0" on="1"/>
        <pt x="159" y="484" on="0"/>
        <pt x="122" y="580" on="1"/>
        <pt x="122" y="580" on="0"/>
        <pt x="124" y="378" on="1"/>
        <pt x="124" y="0" on="1"/>
        <pt x="75" y="0" on="1"/>
        <pt x="75" y="666" on="1"/>
        <pt x="140" y="666" on="1"/>
        <pt x="356" y="116" on="0"/>
      </contour>
      <contour>
        <pt x="269" y="813" on="1"/>
        <pt x="324" y="813" on="1"/>
        <pt x="269" y="708" on="1"/>
        <pt x="232" y="708" on="1"/>
      </contour>
    </TTGlyph>
    <TTGlyph name="Ncaron" xMin="75" yMin="0" xMax="416" yMax="813">
      <contour>
        <pt x="368" y="84" on="1"/>
        <pt x="366" y="286" on="1"/>
        <pt x="366" y="666" on="1"/>
        <pt x="416" y="666" on="1"/>
        <pt x="416" y="0" on="1"/>
        <pt x="350" y="0" on="1"/>
        <pt x="159" y="484" on="0"/>
        <pt x="122" y="580" on="1"/>
        <pt x="122" y="580" on="0"/>
        <pt x="124" y="378" on="1"/>
        <pt x="124" y="0" on="1"/>
        <pt x="75" y="0" on="1"/>
        <pt x="75" y="666" on="1"/>
        <pt x="140" y="666" on="1"/>
        <pt x="356" y="116" on="0"/>
      </contour>
      <contour>
        <pt x="226" y="708" on="1"/>
        <pt x="178" y="813" on="1"/>
        <pt x="214" y="813" on="1"/>
        <pt x="249" y="745" on="1"/>
        <pt x="284" y="813" on="1"/>
        <pt x="320" y="813" on="1"/>
        <pt x="272" y="708" on="1"/>
      </contour>
    </TTGlyph>
    <TTGlyph name="Ntilde" xMin="75" yMin="0" xMax="416" yMax="803">
      <contour>
        <pt x="329" y="803" on="1"/>
        <pt x="372" y="803" on="1"/>
        <pt x="372" y="787" on="1"/>
        <pt x="372" y="756" on="0"/>
        <pt x="341" y="721" on="0"/>
        <pt x="288" y="721" on="0"/>
        <pt x="219" y="762" on="0"/>
        <pt x="203" y="762" on="1"/>
        <pt x="180" y="762" on="0"/>
        <pt x="180" y="732" on="1"/>
        <pt x="180" y="719" on="1"/>
        <pt x="137" y="719" on="1"/>
        <pt x="137" y="735" on="1"/>
        <pt x="137" y="764" on="0"/>
        <pt x="168" y="801" on="0"/>
        <pt x="224" y="801" on="0"/>
        <pt x="295" y="760" on="0"/>
        <pt x="307" y="760" on="1"/>
        <pt x="329" y="760" on="0"/>
        <pt x="329" y="790" on="1"/>
      </contour>
      <contour>
        <pt x="368" y="84" on="1"/>
        <pt x="366" y="286" on="1"/>
        <pt x="366" y="666" on="1"/>
        <pt x="416" y="666" on="1"/>
        <pt x="416" y="0" on="1"/>
        <pt x="350" y="0" on="1"/>
        <pt x="159" y="484" on="0"/>
        <pt x="122" y="580" on="1"/>
        <pt x="124" y="378" on="1"/>
        <pt x="124" y="0" on="1"/>
        <pt x="75" y="0" on="1"/>
        <pt x="75" y="666" on="1"/>
        <pt x="140" y="666" on="1"/>
        <pt x="356" y="116" on="0"/>
      </contour>
    </TTGlyph>
    <TTGlyph name="O" xMin="65" yMin="-10" xMax="383" yMax="676">
      <contour>
        <pt x="333" y="523" on="1"/>
        <pt x="333" y="631" on="0"/>
        <pt x="115" y="631" on="0"/>
        <pt x="115" y="523" on="1"/>
        <pt x="115" y="143" on="1"/>
        <pt x="115" y="35" on="0"/>
        <pt x="333" y="35" on="0"/>
        <pt x="333" y="143" on="1"/>
      </contour>
      <contour>
        <pt x="65" y="523" on="1"/>
        <pt x="65" y="591" on="0"/>
        <pt x="145" y="676" on="0"/>
        <pt x="303" y="676" on="0"/>
        <pt x="383" y="591" on="0"/>
        <pt x="383" y="523" on="1"/>
        <pt x="383" y="143" on="1"/>
        <pt x="383" y="75" on="0"/>
        <pt x="303" y="-10" on="0"/>
        <pt x="145" y="-10" on="0"/>
        <pt x="65" y="75" on="0"/>
        <pt x="65" y="143" on="1"/>
      </contour>
    </TTGlyph>
    <TTGlyph name="OE" xMin="85" yMin="0" xMax="629" yMax="666">
      <contour>
        <pt x="629" y="621" on="1"/>
        <pt x="403" y="621" on="1"/>
        <pt x="403" y="358" on="1"/>
        <pt x="600" y="358" on="1"/>
        <pt x="600" y="313" on="1"/>
        <pt x="403" y="313" on="1"/>
        <pt x="403" y="45" on="1"/>
        <pt x="629" y="45" on="1"/>
        <pt x="629" y="0" on="1"/>
        <pt x="244" y="0" on="1"/>
        <pt x="165" y="0" on="0"/>
        <pt x="85" y="82" on="0"/>
        <pt x="85" y="150" on="1"/>
        <pt x="85" y="516" on="1"/>
        <pt x="85" y="584" on="0"/>
        <pt x="165" y="666" on="0"/>
        <pt x="244" y="666" on="1"/>
        <pt x="629" y="666" on="1"/>
      </contour>
      <contour>
        <pt x="244" y="45" on="1"/>
        <pt x="353" y="45" on="1"/>
        <pt x="353" y="621" on="1"/>
        <pt x="244" y="621" on="1"/>
        <pt x="135" y="621" on="0"/>
        <pt x="135" y="516" on="1"/>
        <pt x="135" y="150" on="1"/>
        <pt x="135" y="45" on="0"/>
      </contour>
    </TTGlyph>
    <TTGlyph name="Oacute" xMin="65" yMin="-10" xMax="383" yMax="813">
      <contour>
        <pt x="333" y="523" on="1"/>
        <pt x="333" y="631" on="0"/>
        <pt x="115" y="631" on="0"/>
        <pt x="115" y="523" on="1"/>
        <pt x="115" y="143" on="1"/>
        <pt x="115" y="35" on="0"/>
        <pt x="333" y="35" on="0"/>
        <pt x="333" y="143" on="1"/>
      </contour>
      <contour>
        <pt x="65" y="523" on="1"/>
        <pt x="65" y="591" on="0"/>
        <pt x="145" y="676" on="0"/>
        <pt x="303" y="676" on="0"/>
        <pt x="383" y="591" on="0"/>
        <pt x="383" y="523" on="1"/>
        <pt x="383" y="143" on="1"/>
        <pt x="383" y="75" on="0"/>
        <pt x="303" y="-10" on="0"/>
        <pt x="145" y="-10" on="0"/>
        <pt x="65" y="75" on="0"/>
        <pt x="65" y="143" on="1"/>
      </contour>
      <contour>
        <pt x="241" y="813" on="1"/>
        <pt x="296" y="813" on="1"/>
        <pt x="241" y="708" on="1"/>
        <pt x="204" y="708" on="1"/>
      </contour>
    </TTGlyph>
    <TTGlyph name="Ocircumflex" xMin="65" yMin="-10" xMax="383" yMax="813">
      <contour>
        <pt x="65" y="143" on="1"/>
        <pt x="65" y="523" on="1"/>
        <pt x="65" y="591" on="0"/>
        <pt x="145" y="676" on="0"/>
        <pt x="303" y="676" on="0"/>
        <pt x="383" y="591" on="0"/>
        <pt x="383" y="523" on="1"/>
        <pt x="383" y="143" on="1"/>
        <pt x="383" y="75" on="0"/>
        <pt x="303" y="-10" on="0"/>
        <pt x="145" y="-10" on="0"/>
        <pt x="65" y="75" on="0"/>
      </contour>
      <contour>
        <pt x="333" y="143" on="1"/>
        <pt x="333" y="523" on="1"/>
        <pt x="333" y="631" on="0"/>
        <pt x="115" y="631" on="0"/>
        <pt x="115" y="523" on="1"/>
        <pt x="115" y="143" on="1"/>
        <pt x="115" y="35" on="0"/>
        <pt x="333" y="35" on="0"/>
      </contour>
      <contour>
        <pt x="223" y="776" on="1"/>
        <pt x="188" y="708" on="1"/>
        <pt x="152" y="708" on="1"/>
        <pt x="200" y="813" on="1"/>
        <pt x="246" y="813" on="1"/>
        <pt x="294" y="708" on="1"/>
        <pt x="258" y="708" on="1"/>
      </contour>
    </TTGlyph>
    <TTGlyph name="Odieresis" xMin="65" yMin="-10" xMax="383" yMax="792">
      <contour>
        <pt x="333" y="523" on="1"/>
        <pt x="333" y="631" on="0"/>
        <pt x="115" y="631" on="0"/>
        <pt x="115" y="523" on="1"/>
        <pt x="115" y="143" on="1"/>
        <pt x="115" y="35" on="0"/>
        <pt x="333" y="35" on="0"/>
        <pt x="333" y="143" on="1"/>
      </contour>
      <contour>
        <pt x="65" y="523" on="1"/>
        <pt x="65" y="591" on="0"/>
        <pt x="145" y="676" on="0"/>
        <pt x="303" y="676" on="0"/>
        <pt x="383" y="591" on="0"/>
        <pt x="383" y="523" on="1"/>
        <pt x="383" y="143" on="1"/>
        <pt x="383" y="75" on="0"/>
        <pt x="303" y="-10" on="0"/>
        <pt x="145" y="-10" on="0"/>
        <pt x="65" y="75" on="0"/>
        <pt x="65" y="143" on="1"/>
      </contour>
      <contour>
        <pt x="253" y="726" on="0"/>
        <pt x="253" y="792" on="0"/>
        <pt x="319" y="792" on="0"/>
        <pt x="319" y="726" on="0"/>
      </contour>
      <contour>
        <pt x="128" y="726" on="0"/>
        <pt x="128" y="792" on="0"/>
        <pt x="194" y="792" on="0"/>
        <pt x="194" y="726" on="0"/>
      </contour>
    </TTGlyph>
    <TTGlyph name="Ograve" xMin="65" yMin="-10" xMax="383" yMax="813">
      <contour>
        <pt x="143" y="813" on="1"/>
        <pt x="198" y="813" on="1"/>
        <pt x="235" y="708" on="1"/>
        <pt x="198" y="708" on="1"/>
      </contour>
      <contour>
        <pt x="333" y="523" on="1"/>
        <pt x="333" y="631" on="0"/>
        <pt x="115" y="631" on="0"/>
        <pt x="115" y="523" on="1"/>
        <pt x="115" y="143" on="1"/>
        <pt x="115" y="35" on="0"/>
        <pt x="333" y="35" on="0"/>
        <pt x="333" y="143" on="1"/>
      </contour>
      <contour>
        <pt x="65" y="523" on="1"/>
        <pt x="65" y="591" on="0"/>
        <pt x="145" y="676" on="0"/>
        <pt x="303" y="676" on="0"/>
        <pt x="383" y="591" on="0"/>
        <pt x="383" y="523" on="1"/>
        <pt x="383" y="143" on="1"/>
        <pt x="383" y="75" on="0"/>
        <pt x="303" y="-10" on="0"/>
        <pt x="145" y="-10" on="0"/>
        <pt x="65" y="75" on="0"/>
        <pt x="65" y="143" on="1"/>
      </contour>
    </TTGlyph>
    <TTGlyph name="Ohungarumlaut" xMin="65" yMin="-10" xMax="383" yMax="813">
      <contour>
        <pt x="333" y="523" on="1"/>
        <pt x="333" y="631" on="0"/>
        <pt x="115" y="631" on="0"/>
        <pt x="115" y="523" on="1"/>
        <pt x="115" y="143" on="1"/>
        <pt x="115" y="35" on="0"/>
        <pt x="333" y="35" on="0"/>
        <pt x="333" y="143" on="1"/>
      </contour>
      <contour>
        <pt x="65" y="523" on="1"/>
        <pt x="65" y="591" on="0"/>
        <pt x="145" y="676" on="0"/>
        <pt x="303" y="676" on="0"/>
        <pt x="383" y="591" on="0"/>
        <pt x="383" y="523" on="1"/>
        <pt x="383" y="143" on="1"/>
        <pt x="383" y="75" on="0"/>
        <pt x="303" y="-10" on="0"/>
        <pt x="145" y="-10" on="0"/>
        <pt x="65" y="75" on="0"/>
        <pt x="65" y="143" on="1"/>
      </contour>
      <contour>
        <pt x="204" y="813" on="1"/>
        <pt x="257" y="813" on="1"/>
        <pt x="202" y="708" on="1"/>
        <pt x="167" y="708" on="1"/>
      </contour>
      <contour>
        <pt x="281" y="813" on="1"/>
        <pt x="334" y="813" on="1"/>
        <pt x="279" y="708" on="1"/>
        <pt x="244" y="708" on="1"/>
      </contour>
    </TTGlyph>
    <TTGlyph name="Omacron" xMin="65" yMin="-10" xMax="383" yMax="780">
      <contour>
        <pt x="333" y="523" on="1"/>
        <pt x="333" y="631" on="0"/>
        <pt x="115" y="631" on="0"/>
        <pt x="115" y="523" on="1"/>
        <pt x="115" y="143" on="1"/>
        <pt x="115" y="35" on="0"/>
        <pt x="333" y="35" on="0"/>
        <pt x="333" y="143" on="1"/>
      </contour>
      <contour>
        <pt x="65" y="523" on="1"/>
        <pt x="65" y="591" on="0"/>
        <pt x="145" y="676" on="0"/>
        <pt x="303" y="676" on="0"/>
        <pt x="383" y="591" on="0"/>
        <pt x="383" y="523" on="1"/>
        <pt x="383" y="143" on="1"/>
        <pt x="383" y="75" on="0"/>
        <pt x="303" y="-10" on="0"/>
        <pt x="145" y="-10" on="0"/>
        <pt x="65" y="75" on="0"/>
        <pt x="65" y="143" on="1"/>
      </contour>
      <contour>
        <pt x="120" y="780" on="1"/>
        <pt x="330" y="780" on="1"/>
        <pt x="330" y="741" on="1"/>
        <pt x="120" y="741" on="1"/>
      </contour>
    </TTGlyph>
    <TTGlyph name="Oslash" xMin="65" yMin="-10" xMax="383" yMax="676">
      <contour>
        <pt x="383" y="523" on="1"/>
        <pt x="383" y="143" on="1"/>
        <pt x="383" y="75" on="0"/>
        <pt x="303" y="-10" on="0"/>
        <pt x="159" y="-10" on="0"/>
        <pt x="118" y="21" on="1"/>
        <pt x="109" y="0" on="1"/>
        <pt x="65" y="0" on="1"/>
        <pt x="88" y="55" on="1"/>
        <pt x="65" y="91" on="0"/>
        <pt x="65" y="143" on="1"/>
        <pt x="65" y="523" on="1"/>
        <pt x="65" y="591" on="0"/>
        <pt x="145" y="676" on="0"/>
        <pt x="289" y="676" on="0"/>
        <pt x="330" y="645" on="1"/>
        <pt x="339" y="666" on="1"/>
        <pt x="383" y="666" on="1"/>
        <pt x="360" y="611" on="1"/>
        <pt x="383" y="575" on="0"/>
      </contour>
      <contour>
        <pt x="115" y="523" on="1"/>
        <pt x="115" y="143" on="1"/>
        <pt x="115" y="130" on="0"/>
        <pt x="116" y="124" on="1"/>
        <pt x="311" y="598" on="1"/>
        <pt x="284" y="631" on="0"/>
        <pt x="224" y="631" on="1"/>
        <pt x="115" y="631" on="0"/>
      </contour>
      <contour>
        <pt x="333" y="143" on="1"/>
        <pt x="333" y="523" on="1"/>
        <pt x="333" y="536" on="0"/>
        <pt x="332" y="542" on="1"/>
        <pt x="137" y="68" on="1"/>
        <pt x="164" y="35" on="0"/>
        <pt x="224" y="35" on="1"/>
        <pt x="333" y="35" on="0"/>
      </contour>
    </TTGlyph>
    <TTGlyph name="Otilde" xMin="65" yMin="-10" xMax="383" yMax="803">
      <contour>
        <pt x="300" y="803" on="1"/>
        <pt x="343" y="803" on="1"/>
        <pt x="343" y="787" on="1"/>
        <pt x="343" y="756" on="0"/>
        <pt x="312" y="721" on="0"/>
        <pt x="259" y="721" on="0"/>
        <pt x="190" y="762" on="0"/>
        <pt x="174" y="762" on="1"/>
        <pt x="151" y="762" on="0"/>
        <pt x="151" y="732" on="1"/>
        <pt x="151" y="719" on="1"/>
        <pt x="108" y="719" on="1"/>
        <pt x="108" y="735" on="1"/>
        <pt x="108" y="764" on="0"/>
        <pt x="139" y="801" on="0"/>
        <pt x="195" y="801" on="0"/>
        <pt x="266" y="760" on="0"/>
        <pt x="278" y="760" on="1"/>
        <pt x="300" y="760" on="0"/>
        <pt x="300" y="790" on="1"/>
      </contour>
      <contour>
        <pt x="333" y="523" on="1"/>
        <pt x="333" y="631" on="0"/>
        <pt x="115" y="631" on="0"/>
        <pt x="115" y="523" on="1"/>
        <pt x="115" y="143" on="1"/>
        <pt x="115" y="35" on="0"/>
        <pt x="333" y="35" on="0"/>
        <pt x="333" y="143" on="1"/>
      </contour>
      <contour>
        <pt x="65" y="523" on="1"/>
        <pt x="65" y="591" on="0"/>
        <pt x="145" y="676" on="0"/>
        <pt x="303" y="676" on="0"/>
        <pt x="383" y="591" on="0"/>
        <pt x="383" y="523" on="1"/>
        <pt x="383" y="143" on="1"/>
        <pt x="383" y="75" on="0"/>
        <pt x="303" y="-10" on="0"/>
        <pt x="145" y="-10" on="0"/>
        <pt x="65" y="75" on="0"/>
        <pt x="65" y="143" on="1"/>
      </contour>
    </TTGlyph>
    <TTGlyph name="P" xMin="75" yMin="0" xMax="381" yMax="666">
      <contour>
        <pt x="331" y="516" on="1"/>
        <pt x="331" y="621" on="0"/>
        <pt x="222" y="621" on="1"/>
        <pt x="125" y="621" on="1"/>
        <pt x="125" y="284" on="1"/>
        <pt x="222" y="284" on="1"/>
        <pt x="331" y="284" on="0"/>
        <pt x="331" y="389" on="1"/>
      </contour>
      <contour>
        <pt x="75" y="666" on="1"/>
        <pt x="222" y="666" on="1"/>
        <pt x="301" y="666" on="0"/>
        <pt x="381" y="584" on="0"/>
        <pt x="381" y="516" on="1"/>
        <pt x="381" y="389" on="1"/>
        <pt x="381" y="321" on="0"/>
        <pt x="301" y="239" on="0"/>
        <pt x="222" y="239" on="1"/>
        <pt x="125" y="239" on="1"/>
        <pt x="125" y="0" on="1"/>
        <pt x="75" y="0" on="1"/>
      </contour>
    </TTGlyph>
    <TTGlyph name="Q" xMin="65" yMin="-104" xMax="427" yMax="676">
      <contour>
        <pt x="224" y="-10" on="1"/>
        <pt x="145" y="-10" on="0"/>
        <pt x="65" y="75" on="0"/>
        <pt x="65" y="143" on="1"/>
        <pt x="65" y="523" on="1"/>
        <pt x="65" y="591" on="0"/>
        <pt x="145" y="676" on="0"/>
        <pt x="303" y="676" on="0"/>
        <pt x="383" y="591" on="0"/>
        <pt x="383" y="523" on="1"/>
        <pt x="383" y="143" on="1"/>
        <pt x="383" y="55" on="0"/>
        <pt x="321" y="15" on="1"/>
        <pt x="427" y="-104" on="1"/>
        <pt x="362" y="-104" on="1"/>
        <pt x="274" y="-5" on="1"/>
        <pt x="249" y="-10" on="0"/>
      </contour>
      <contour>
        <pt x="115" y="523" on="1"/>
        <pt x="115" y="143" on="1"/>
        <pt x="115" y="35" on="0"/>
        <pt x="333" y="35" on="0"/>
        <pt x="333" y="143" on="1"/>
        <pt x="333" y="523" on="1"/>
        <pt x="333" y="631" on="0"/>
        <pt x="115" y="631" on="0"/>
      </contour>
    </TTGlyph>
    <TTGlyph name="R" xMin="75" yMin="0" xMax="400" yMax="666">
      <contour>
        <pt x="222" y="275" on="1"/>
        <pt x="125" y="275" on="1"/>
        <pt x="125" y="0" on="1"/>
        <pt x="75" y="0" on="1"/>
        <pt x="75" y="666" on="1"/>
        <pt x="222" y="666" on="1"/>
        <pt x="301" y="666" on="0"/>
        <pt x="381" y="584" on="0"/>
        <pt x="381" y="516" on="1"/>
        <pt x="381" y="425" on="1"/>
        <pt x="381" y="319" on="0"/>
        <pt x="295" y="287" on="1"/>
        <pt x="400" y="0" on="1"/>
        <pt x="345" y="0" on="1"/>
        <pt x="246" y="276" on="1"/>
        <pt x="238" y="275" on="0"/>
      </contour>
      <contour>
        <pt x="125" y="322" on="1"/>
        <pt x="222" y="322" on="1"/>
        <pt x="331" y="322" on="0"/>
        <pt x="331" y="425" on="1"/>
        <pt x="331" y="516" on="1"/>
        <pt x="331" y="621" on="0"/>
        <pt x="222" y="621" on="1"/>
        <pt x="125" y="621" on="1"/>
      </contour>
    </TTGlyph>
    <TTGlyph name="Racute" xMin="75" yMin="0" xMax="400" yMax="813">
      <contour>
        <pt x="222" y="275" on="1"/>
        <pt x="125" y="275" on="1"/>
        <pt x="125" y="0" on="1"/>
        <pt x="75" y="0" on="1"/>
        <pt x="75" y="666" on="1"/>
        <pt x="222" y="666" on="1"/>
        <pt x="301" y="666" on="0"/>
        <pt x="381" y="584" on="0"/>
        <pt x="381" y="516" on="1"/>
        <pt x="381" y="425" on="1"/>
        <pt x="381" y="319" on="0"/>
        <pt x="295" y="287" on="1"/>
        <pt x="400" y="0" on="1"/>
        <pt x="345" y="0" on="1"/>
        <pt x="246" y="276" on="1"/>
        <pt x="238" y="275" on="0"/>
      </contour>
      <contour>
        <pt x="125" y="322" on="1"/>
        <pt x="222" y="322" on="1"/>
        <pt x="331" y="322" on="0"/>
        <pt x="331" y="425" on="1"/>
        <pt x="331" y="516" on="1"/>
        <pt x="331" y="621" on="0"/>
        <pt x="222" y="621" on="1"/>
        <pt x="125" y="621" on="1"/>
      </contour>
      <contour>
        <pt x="301" y="813" on="1"/>
        <pt x="246" y="708" on="1"/>
        <pt x="209" y="708" on="1"/>
        <pt x="246" y="813" on="1"/>
      </contour>
    </TTGlyph>
    <TTGlyph name="Rcaron" xMin="75" yMin="0" xMax="400" yMax="813">
      <contour>
        <pt x="222" y="275" on="1"/>
        <pt x="125" y="275" on="1"/>
        <pt x="125" y="0" on="1"/>
        <pt x="75" y="0" on="1"/>
        <pt x="75" y="666" on="1"/>
        <pt x="222" y="666" on="1"/>
        <pt x="301" y="666" on="0"/>
        <pt x="381" y="584" on="0"/>
        <pt x="381" y="516" on="1"/>
        <pt x="381" y="425" on="1"/>
        <pt x="381" y="319" on="0"/>
        <pt x="295" y="287" on="1"/>
        <pt x="400" y="0" on="1"/>
        <pt x="345" y="0" on="1"/>
        <pt x="246" y="276" on="1"/>
        <pt x="238" y="275" on="0"/>
      </contour>
      <contour>
        <pt x="125" y="322" on="1"/>
        <pt x="222" y="322" on="1"/>
        <pt x="331" y="322" on="0"/>
        <pt x="331" y="425" on="1"/>
        <pt x="331" y="516" on="1"/>
        <pt x="331" y="621" on="0"/>
        <pt x="222" y="621" on="1"/>
        <pt x="125" y="621" on="1"/>
      </contour>
      <contour>
        <pt x="200" y="708" on="1"/>
        <pt x="152" y="813" on="1"/>
        <pt x="188" y="813" on="1"/>
        <pt x="223" y="745" on="1"/>
        <pt x="258" y="813" on="1"/>
        <pt x="294" y="813" on="1"/>
        <pt x="246" y="708" on="1"/>
      </contour>
    </TTGlyph>
    <TTGlyph name="S" xMin="30" yMin="-5" xMax="339" yMax="671">
      <contour>
        <pt x="30" y="537" on="1"/>
        <pt x="30" y="600" on="0"/>
        <pt x="113" y="671" on="0"/>
        <pt x="264" y="671" on="0"/>
        <pt x="316" y="656" on="1"/>
        <pt x="316" y="608" on="1"/>
        <pt x="268" y="625" on="0"/>
        <pt x="192" y="625" on="1"/>
        <pt x="80" y="625" on="0"/>
        <pt x="80" y="539" on="1"/>
        <pt x="80" y="482" on="1"/>
        <pt x="80" y="416" on="0"/>
        <pt x="141" y="383" on="1"/>
        <pt x="258" y="318" on="1"/>
        <pt x="339" y="274" on="0"/>
        <pt x="339" y="186" on="1"/>
        <pt x="339" y="134" on="1"/>
        <pt x="339" y="68" on="0"/>
        <pt x="252" y="-5" on="0"/>
        <pt x="87" y="-5" on="0"/>
        <pt x="34" y="14" on="1"/>
        <pt x="34" y="62" on="1"/>
        <pt x="93" y="41" on="0"/>
        <pt x="163" y="41" on="1"/>
        <pt x="289" y="41" on="0"/>
        <pt x="289" y="134" on="1"/>
        <pt x="289" y="183" on="1"/>
        <pt x="289" y="218" on="0"/>
        <pt x="264" y="260" on="0"/>
        <pt x="231" y="278" on="1"/>
        <pt x="114" y="342" on="1"/>
        <pt x="30" y="388" on="0"/>
        <pt x="30" y="479" on="1"/>
      </contour>
    </TTGlyph>
    <TTGlyph name="Sacute" xMin="30" yMin="-5" xMax="339" yMax="813">
      <contour>
        <pt x="30" y="537" on="1"/>
        <pt x="30" y="600" on="0"/>
        <pt x="113" y="671" on="0"/>
        <pt x="264" y="671" on="0"/>
        <pt x="316" y="656" on="1"/>
        <pt x="316" y="608" on="1"/>
        <pt x="268" y="625" on="0"/>
        <pt x="192" y="625" on="1"/>
        <pt x="80" y="625" on="0"/>
        <pt x="80" y="539" on="1"/>
        <pt x="80" y="482" on="1"/>
        <pt x="80" y="416" on="0"/>
        <pt x="141" y="383" on="1"/>
        <pt x="258" y="318" on="1"/>
        <pt x="339" y="274" on="0"/>
        <pt x="339" y="186" on="1"/>
        <pt x="339" y="134" on="1"/>
        <pt x="339" y="68" on="0"/>
        <pt x="252" y="-5" on="0"/>
        <pt x="87" y="-5" on="0"/>
        <pt x="34" y="14" on="1"/>
        <pt x="34" y="62" on="1"/>
        <pt x="93" y="41" on="0"/>
        <pt x="163" y="41" on="1"/>
        <pt x="289" y="41" on="0"/>
        <pt x="289" y="134" on="1"/>
        <pt x="289" y="183" on="1"/>
        <pt x="289" y="218" on="0"/>
        <pt x="264" y="260" on="0"/>
        <pt x="231" y="278" on="1"/>
        <pt x="114" y="342" on="1"/>
        <pt x="30" y="388" on="0"/>
        <pt x="30" y="479" on="1"/>
      </contour>
      <contour>
        <pt x="205" y="813" on="1"/>
        <pt x="260" y="813" on="1"/>
        <pt x="205" y="708" on="1"/>
        <pt x="168" y="708" on="1"/>
      </contour>
    </TTGlyph>
    <TTGlyph name="Scaron" xMin="30" yMin="-5" xMax="339" yMax="813">
      <contour>
        <pt x="339" y="186" on="1"/>
        <pt x="339" y="134" on="1"/>
        <pt x="339" y="68" on="0"/>
        <pt x="252" y="-5" on="0"/>
        <pt x="87" y="-5" on="0"/>
        <pt x="34" y="14" on="1"/>
        <pt x="34" y="62" on="1"/>
        <pt x="93" y="41" on="0"/>
        <pt x="163" y="41" on="1"/>
        <pt x="289" y="41" on="0"/>
        <pt x="289" y="134" on="1"/>
        <pt x="289" y="183" on="1"/>
        <pt x="289" y="218" on="0"/>
        <pt x="264" y="260" on="0"/>
        <pt x="231" y="278" on="1"/>
        <pt x="114" y="342" on="1"/>
        <pt x="30" y="388" on="0"/>
        <pt x="30" y="479" on="1"/>
        <pt x="30" y="537" on="1"/>
        <pt x="30" y="600" on="0"/>
        <pt x="113" y="671" on="0"/>
        <pt x="264" y="671" on="0"/>
        <pt x="316" y="656" on="1"/>
        <pt x="316" y="608" on="1"/>
        <pt x="268" y="625" on="0"/>
        <pt x="192" y="625" on="1"/>
        <pt x="80" y="625" on="0"/>
        <pt x="80" y="539" on="1"/>
        <pt x="80" y="482" on="1"/>
        <pt x="80" y="416" on="0"/>
        <pt x="141" y="383" on="1"/>
        <pt x="258" y="318" on="1"/>
        <pt x="339" y="274" on="0"/>
      </contour>
      <contour>
        <pt x="172" y="708" on="1"/>
        <pt x="124" y="813" on="1"/>
        <pt x="160" y="813" on="1"/>
        <pt x="195" y="745" on="1"/>
        <pt x="230" y="813" on="1"/>
        <pt x="266" y="813" on="1"/>
        <pt x="218" y="708" on="1"/>
      </contour>
    </TTGlyph>
    <TTGlyph name="T" xMin="10" yMin="0" xMax="324" yMax="666">
      <contour>
        <pt x="324" y="666" on="1"/>
        <pt x="324" y="621" on="1"/>
        <pt x="192" y="621" on="1"/>
        <pt x="192" y="0" on="1"/>
        <pt x="142" y="0" on="1"/>
        <pt x="142" y="621" on="1"/>
        <pt x="10" y="621" on="1"/>
        <pt x="10" y="666" on="1"/>
      </contour>
    </TTGlyph>
    <TTGlyph name="Tcaron" xMin="10" yMin="0" xMax="324" yMax="813">
      <contour>
        <pt x="324" y="666" on="1"/>
        <pt x="324" y="621" on="1"/>
        <pt x="192" y="621" on="1"/>
        <pt x="192" y="0" on="1"/>
        <pt x="142" y="0" on="1"/>
        <pt x="142" y="621" on="1"/>
        <pt x="10" y="621" on="1"/>
        <pt x="10" y="666" on="1"/>
      </contour>
      <contour>
        <pt x="143" y="708" on="1"/>
        <pt x="95" y="813" on="1"/>
        <pt x="131" y="813" on="1"/>
        <pt x="166" y="745" on="1"/>
        <pt x="201" y="813" on="1"/>
        <pt x="237" y="813" on="1"/>
        <pt x="189" y="708" on="1"/>
      </contour>
    </TTGlyph>
    <TTGlyph name="Thorn" xMin="85" yMin="0" xMax="391" yMax="666">
      <contour>
        <pt x="135" y="540" on="1"/>
        <pt x="232" y="540" on="1"/>
        <pt x="311" y="540" on="0"/>
        <pt x="391" y="458" on="0"/>
        <pt x="391" y="390" on="1"/>
        <pt x="391" y="276" on="1"/>
        <pt x="391" y="208" on="0"/>
        <pt x="311" y="126" on="0"/>
        <pt x="232" y="126" on="1"/>
        <pt x="135" y="126" on="1"/>
        <pt x="135" y="0" on="1"/>
        <pt x="85" y="0" on="1"/>
        <pt x="85" y="666" on="1"/>
        <pt x="135" y="666" on="1"/>
      </contour>
      <contour>
        <pt x="341" y="276" on="1"/>
        <pt x="341" y="390" on="1"/>
        <pt x="341" y="495" on="0"/>
        <pt x="232" y="495" on="1"/>
        <pt x="135" y="495" on="1"/>
        <pt x="135" y="173" on="1"/>
        <pt x="232" y="173" on="1"/>
        <pt x="341" y="173" on="0"/>
      </contour>
    </TTGlyph>
    <TTGlyph name="U" xMin="70" yMin="-10" xMax="388" yMax="666">
      <contour>
        <pt x="338" y="666" on="1"/>
        <pt x="388" y="666" on="1"/>
        <pt x="388" y="143" on="1"/>
        <pt x="388" y="75" on="0"/>
        <pt x="308" y="-10" on="0"/>
        <pt x="150" y="-10" on="0"/>
        <pt x="70" y="75" on="0"/>
        <pt x="70" y="143" on="1"/>
        <pt x="70" y="666" on="1"/>
        <pt x="120" y="666" on="1"/>
        <pt x="120" y="143" on="1"/>
        <pt x="120" y="35" on="0"/>
        <pt x="338" y="35" on="0"/>
        <pt x="338" y="143" on="1"/>
      </contour>
    </TTGlyph>
    <TTGlyph name="Uacute" xMin="70" yMin="-10" xMax="388" yMax="813">
      <contour>
        <pt x="338" y="666" on="1"/>
        <pt x="388" y="666" on="1"/>
        <pt x="388" y="143" on="1"/>
        <pt x="388" y="75" on="0"/>
        <pt x="308" y="-10" on="0"/>
        <pt x="150" y="-10" on="0"/>
        <pt x="70" y="75" on="0"/>
        <pt x="70" y="143" on="1"/>
        <pt x="70" y="666" on="1"/>
        <pt x="120" y="666" on="1"/>
        <pt x="120" y="143" on="1"/>
        <pt x="120" y="35" on="0"/>
        <pt x="338" y="35" on="0"/>
        <pt x="338" y="143" on="1"/>
      </contour>
      <contour>
        <pt x="248" y="813" on="1"/>
        <pt x="303" y="813" on="1"/>
        <pt x="248" y="708" on="1"/>
        <pt x="211" y="708" on="1"/>
      </contour>
    </TTGlyph>
    <TTGlyph name="Ucircumflex" xMin="70" yMin="-10" xMax="388" yMax="813">
      <contour>
        <pt x="338" y="666" on="1"/>
        <pt x="388" y="666" on="1"/>
        <pt x="388" y="143" on="1"/>
        <pt x="388" y="75" on="0"/>
        <pt x="308" y="-10" on="0"/>
        <pt x="150" y="-10" on="0"/>
        <pt x="70" y="75" on="0"/>
        <pt x="70" y="143" on="1"/>
        <pt x="70" y="666" on="1"/>
        <pt x="120" y="666" on="1"/>
        <pt x="120" y="143" on="1"/>
        <pt x="120" y="35" on="0"/>
        <pt x="338" y="35" on="0"/>
        <pt x="338" y="143" on="1"/>
      </contour>
      <contour>
        <pt x="228" y="776" on="1"/>
        <pt x="193" y="708" on="1"/>
        <pt x="157" y="708" on="1"/>
        <pt x="205" y="813" on="1"/>
        <pt x="251" y="813" on="1"/>
        <pt x="299" y="708" on="1"/>
        <pt x="263" y="708" on="1"/>
      </contour>
    </TTGlyph>
    <TTGlyph name="Udieresis" xMin="70" yMin="-10" xMax="388" yMax="792">
      <contour>
        <pt x="338" y="666" on="1"/>
        <pt x="388" y="666" on="1"/>
        <pt x="388" y="143" on="1"/>
        <pt x="388" y="75" on="0"/>
        <pt x="308" y="-10" on="0"/>
        <pt x="150" y="-10" on="0"/>
        <pt x="70" y="75" on="0"/>
        <pt x="70" y="143" on="1"/>
        <pt x="70" y="666" on="1"/>
        <pt x="120" y="666" on="1"/>
        <pt x="120" y="143" on="1"/>
        <pt x="120" y="35" on="0"/>
        <pt x="338" y="35" on="0"/>
        <pt x="338" y="143" on="1"/>
      </contour>
      <contour>
        <pt x="258" y="726" on="0"/>
        <pt x="258" y="792" on="0"/>
        <pt x="324" y="792" on="0"/>
        <pt x="324" y="726" on="0"/>
      </contour>
      <contour>
        <pt x="133" y="726" on="0"/>
        <pt x="133" y="792" on="0"/>
        <pt x="199" y="792" on="0"/>
        <pt x="199" y="726" on="0"/>
      </contour>
    </TTGlyph>
    <TTGlyph name="Ugrave" xMin="70" yMin="-10" xMax="388" yMax="813">
      <contour>
        <pt x="155" y="813" on="1"/>
        <pt x="210" y="813" on="1"/>
        <pt x="247" y="708" on="1"/>
        <pt x="210" y="708" on="1"/>
      </contour>
      <contour>
        <pt x="338" y="666" on="1"/>
        <pt x="388" y="666" on="1"/>
        <pt x="388" y="143" on="1"/>
        <pt x="388" y="75" on="0"/>
        <pt x="308" y="-10" on="0"/>
        <pt x="150" y="-10" on="0"/>
        <pt x="70" y="75" on="0"/>
        <pt x="70" y="143" on="1"/>
        <pt x="70" y="666" on="1"/>
        <pt x="120" y="666" on="1"/>
        <pt x="120" y="143" on="1"/>
        <pt x="120" y="35" on="0"/>
        <pt x="338" y="35" on="0"/>
        <pt x="338" y="143" on="1"/>
      </contour>
    </TTGlyph>
    <TTGlyph name="Uhungarumlaut" xMin="70" yMin="-10" xMax="388" yMax="813">
      <contour>
        <pt x="201" y="813" on="1"/>
        <pt x="254" y="813" on="1"/>
        <pt x="199" y="708" on="1"/>
        <pt x="164" y="708" on="1"/>
      </contour>
      <contour>
        <pt x="278" y="813" on="1"/>
        <pt x="331" y="813" on="1"/>
        <pt x="276" y="708" on="1"/>
        <pt x="241" y="708" on="1"/>
      </contour>
      <contour>
        <pt x="338" y="666" on="1"/>
        <pt x="388" y="666" on="1"/>
        <pt x="388" y="143" on="1"/>
        <pt x="388" y="75" on="0"/>
        <pt x="308" y="-10" on="0"/>
        <pt x="150" y="-10" on="0"/>
        <pt x="70" y="75" on="0"/>
        <pt x="70" y="143" on="1"/>
        <pt x="70" y="666" on="1"/>
        <pt x="120" y="666" on="1"/>
        <pt x="120" y="143" on="1"/>
        <pt x="120" y="35" on="0"/>
        <pt x="338" y="35" on="0"/>
        <pt x="338" y="143" on="1"/>
      </contour>
    </TTGlyph>
    <TTGlyph name="Umacron" xMin="70" yMin="-10" xMax="388" yMax="780">
      <contour>
        <pt x="124" y="780" on="1"/>
        <pt x="334" y="780" on="1"/>
        <pt x="334" y="741" on="1"/>
        <pt x="124" y="741" on="1"/>
      </contour>
      <contour>
        <pt x="338" y="666" on="1"/>
        <pt x="388" y="666" on="1"/>
        <pt x="388" y="143" on="1"/>
        <pt x="388" y="75" on="0"/>
        <pt x="308" y="-10" on="0"/>
        <pt x="150" y="-10" on="0"/>
        <pt x="70" y="75" on="0"/>
        <pt x="70" y="143" on="1"/>
        <pt x="70" y="666" on="1"/>
        <pt x="120" y="666" on="1"/>
        <pt x="120" y="143" on="1"/>
        <pt x="120" y="35" on="0"/>
        <pt x="338" y="35" on="0"/>
        <pt x="338" y="143" on="1"/>
      </contour>
    </TTGlyph>
    <TTGlyph name="Uogonek" xMin="70" yMin="-160" xMax="388" yMax="666">
      <contour>
        <pt x="338" y="666" on="1"/>
        <pt x="388" y="666" on="1"/>
        <pt x="388" y="143" on="1"/>
        <pt x="388" y="46" on="0"/>
        <pt x="315" y="8" on="1"/>
        <pt x="266" y="-30" on="0"/>
        <pt x="266" y="-82" on="1"/>
        <pt x="266" y="-118" on="0"/>
        <pt x="305" y="-118" on="1"/>
        <pt x="317" y="-118" on="1"/>
        <pt x="317" y="-160" on="1"/>
        <pt x="305" y="-160" on="1"/>
        <pt x="227" y="-160" on="0"/>
        <pt x="227" y="-95" on="1"/>
        <pt x="227" y="-48" on="0"/>
        <pt x="266" y="-7" on="1"/>
        <pt x="248" y="-10" on="0"/>
        <pt x="229" y="-10" on="1"/>
        <pt x="150" y="-10" on="0"/>
        <pt x="70" y="75" on="0"/>
        <pt x="70" y="143" on="1"/>
        <pt x="70" y="666" on="1"/>
        <pt x="120" y="666" on="1"/>
        <pt x="120" y="143" on="1"/>
        <pt x="120" y="35" on="0"/>
        <pt x="338" y="35" on="0"/>
        <pt x="338" y="143" on="1"/>
      </contour>
    </TTGlyph>
    <TTGlyph name="Uring" xMin="70" yMin="-10" xMax="388" yMax="831">
      <contour>
        <pt x="338" y="666" on="1"/>
        <pt x="388" y="666" on="1"/>
        <pt x="388" y="143" on="1"/>
        <pt x="388" y="75" on="0"/>
        <pt x="308" y="-10" on="0"/>
        <pt x="150" y="-10" on="0"/>
        <pt x="70" y="75" on="0"/>
        <pt x="70" y="143" on="1"/>
        <pt x="70" y="666" on="1"/>
        <pt x="120" y="666" on="1"/>
        <pt x="120" y="143" on="1"/>
        <pt x="120" y="35" on="0"/>
        <pt x="338" y="35" on="0"/>
        <pt x="338" y="143" on="1"/>
      </contour>
      <contour>
        <pt x="269" y="744" on="0"/>
        <pt x="269" y="778" on="0"/>
        <pt x="249" y="798" on="0"/>
        <pt x="215" y="798" on="0"/>
        <pt x="195" y="778" on="0"/>
        <pt x="195" y="744" on="0"/>
        <pt x="215" y="723" on="0"/>
        <pt x="249" y="723" on="0"/>
      </contour>
      <contour>
        <pt x="160" y="731" on="0"/>
        <pt x="160" y="791" on="0"/>
        <pt x="199" y="831" on="0"/>
        <pt x="266" y="831" on="0"/>
        <pt x="304" y="791" on="0"/>
        <pt x="304" y="730" on="0"/>
        <pt x="266" y="690" on="0"/>
        <pt x="199" y="690" on="0"/>
      </contour>
    </TTGlyph>
    <TTGlyph name="V" xMin="15" yMin="0" xMax="387" yMax="666">
      <contour>
        <pt x="335" y="666" on="1"/>
        <pt x="387" y="666" on="1"/>
        <pt x="237" y="0" on="1"/>
        <pt x="165" y="0" on="1"/>
        <pt x="15" y="666" on="1"/>
        <pt x="67" y="666" on="1"/>
        <pt x="187" y="121" on="0"/>
        <pt x="201" y="53" on="1"/>
        <pt x="218" y="138" on="0"/>
      </contour>
    </TTGlyph>
    <TTGlyph name="W" xMin="25" yMin="0" xMax="588" yMax="666">
      <contour>
        <pt x="536" y="666" on="1"/>
        <pt x="588" y="666" on="1"/>
        <pt x="472" y="0" on="1"/>
        <pt x="400" y="0" on="1"/>
        <pt x="317" y="478" on="0"/>
        <pt x="306" y="587" on="1"/>
        <pt x="296" y="478" on="0"/>
        <pt x="274" y="352" on="1"/>
        <pt x="213" y="0" on="1"/>
        <pt x="141" y="0" on="1"/>
        <pt x="25" y="666" on="1"/>
        <pt x="77" y="666" on="1"/>
        <pt x="151" y="220" on="1"/>
        <pt x="177" y="45" on="1"/>
        <pt x="188" y="133" on="0"/>
        <pt x="203" y="221" on="1"/>
        <pt x="277" y="666" on="1"/>
        <pt x="336" y="666" on="1"/>
        <pt x="410" y="220" on="1"/>
        <pt x="436" y="45" on="1"/>
        <pt x="453" y="163" on="0"/>
      </contour>
    </TTGlyph>
    <TTGlyph name="X" xMin="15" yMin="0" xMax="357" yMax="666">
      <contour>
        <pt x="302" y="666" on="1"/>
        <pt x="357" y="666" on="1"/>
        <pt x="211" y="333" on="1"/>
        <pt x="357" y="0" on="1"/>
        <pt x="302" y="0" on="1"/>
        <pt x="186" y="272" on="1"/>
        <pt x="70" y="0" on="1"/>
        <pt x="15" y="0" on="1"/>
        <pt x="160" y="333" on="1"/>
        <pt x="15" y="666" on="1"/>
        <pt x="70" y="666" on="1"/>
        <pt x="186" y="393" on="1"/>
      </contour>
    </TTGlyph>
    <TTGlyph name="Y" xMin="5" yMin="0" xMax="385" yMax="666">
      <contour>
        <pt x="220" y="0" on="1"/>
        <pt x="170" y="0" on="1"/>
        <pt x="170" y="230" on="1"/>
        <pt x="5" y="666" on="1"/>
        <pt x="57" y="666" on="1"/>
        <pt x="150" y="420" on="0"/>
        <pt x="185" y="322" on="0"/>
        <pt x="196" y="294" on="1"/>
        <pt x="206" y="322" on="0"/>
        <pt x="226" y="378" on="1"/>
        <pt x="271" y="501" on="0"/>
        <pt x="333" y="666" on="1"/>
        <pt x="385" y="666" on="1"/>
        <pt x="220" y="230" on="1"/>
      </contour>
    </TTGlyph>
    <TTGlyph name="Yacute" xMin="5" yMin="0" xMax="385" yMax="813">
      <contour>
        <pt x="211" y="813" on="1"/>
        <pt x="266" y="813" on="1"/>
        <pt x="211" y="708" on="1"/>
        <pt x="174" y="708" on="1"/>
      </contour>
      <contour>
        <pt x="220" y="0" on="1"/>
        <pt x="170" y="0" on="1"/>
        <pt x="170" y="230" on="1"/>
        <pt x="5" y="666" on="1"/>
        <pt x="57" y="666" on="1"/>
        <pt x="150" y="420" on="0"/>
        <pt x="185" y="322" on="0"/>
        <pt x="196" y="294" on="1"/>
        <pt x="206" y="322" on="0"/>
        <pt x="226" y="378" on="1"/>
        <pt x="271" y="501" on="0"/>
        <pt x="333" y="666" on="1"/>
        <pt x="385" y="666" on="1"/>
        <pt x="220" y="230" on="1"/>
      </contour>
    </TTGlyph>
    <TTGlyph name="Ydieresis" xMin="5" yMin="0" xMax="385" yMax="792">
      <contour>
        <pt x="220" y="0" on="1"/>
        <pt x="170" y="0" on="1"/>
        <pt x="170" y="230" on="1"/>
        <pt x="5" y="666" on="1"/>
        <pt x="57" y="666" on="1"/>
        <pt x="150" y="420" on="0"/>
        <pt x="185" y="322" on="0"/>
        <pt x="196" y="294" on="1"/>
        <pt x="206" y="322" on="0"/>
        <pt x="226" y="378" on="1"/>
        <pt x="271" y="501" on="0"/>
        <pt x="333" y="666" on="1"/>
        <pt x="385" y="666" on="1"/>
        <pt x="220" y="230" on="1"/>
      </contour>
      <contour>
        <pt x="218" y="726" on="0"/>
        <pt x="218" y="792" on="0"/>
        <pt x="284" y="792" on="0"/>
        <pt x="284" y="726" on="0"/>
      </contour>
      <contour>
        <pt x="93" y="726" on="0"/>
        <pt x="93" y="792" on="0"/>
        <pt x="159" y="792" on="0"/>
        <pt x="159" y="726" on="0"/>
      </contour>
    </TTGlyph>
    <TTGlyph name="Z" xMin="30" yMin="0" xMax="341" yMax="666">
      <contour>
        <pt x="36" y="666" on="1"/>
        <pt x="341" y="666" on="1"/>
        <pt x="341" y="621" on="1"/>
        <pt x="83" y="45" on="1"/>
        <pt x="335" y="45" on="1"/>
        <pt x="335" y="0" on="1"/>
        <pt x="30" y="0" on="1"/>
        <pt x="30" y="45" on="1"/>
        <pt x="288" y="621" on="1"/>
        <pt x="36" y="621" on="1"/>
      </contour>
    </TTGlyph>
    <TTGlyph name="Zacute" xMin="30" yMin="0" xMax="341" yMax="813">
      <contour>
        <pt x="36" y="666" on="1"/>
        <pt x="341" y="666" on="1"/>
        <pt x="341" y="621" on="1"/>
        <pt x="83" y="45" on="1"/>
        <pt x="335" y="45" on="1"/>
        <pt x="335" y="0" on="1"/>
        <pt x="30" y="0" on="1"/>
        <pt x="30" y="45" on="1"/>
        <pt x="288" y="621" on="1"/>
        <pt x="36" y="621" on="1"/>
      </contour>
      <contour>
        <pt x="202" y="813" on="1"/>
        <pt x="257" y="813" on="1"/>
        <pt x="202" y="708" on="1"/>
        <pt x="165" y="708" on="1"/>
      </contour>
    </TTGlyph>
    <TTGlyph name="Zcaron" xMin="30" yMin="0" xMax="341" yMax="813">
      <contour>
        <pt x="341" y="666" on="1"/>
        <pt x="341" y="621" on="1"/>
        <pt x="83" y="45" on="1"/>
        <pt x="335" y="45" on="1"/>
        <pt x="335" y="0" on="1"/>
        <pt x="30" y="0" on="1"/>
        <pt x="30" y="45" on="1"/>
        <pt x="288" y="621" on="1"/>
        <pt x="36" y="621" on="1"/>
        <pt x="36" y="666" on="1"/>
      </contour>
      <contour>
        <pt x="168" y="708" on="1"/>
        <pt x="120" y="813" on="1"/>
        <pt x="156" y="813" on="1"/>
        <pt x="191" y="745" on="1"/>
        <pt x="226" y="813" on="1"/>
        <pt x="262" y="813" on="1"/>
        <pt x="214" y="708" on="1"/>
      </contour>
    </TTGlyph>
    <TTGlyph name="Zdotaccent" xMin="30" yMin="0" xMax="341" yMax="821">
      <contour>
        <pt x="150" y="755" on="0"/>
        <pt x="150" y="821" on="0"/>
        <pt x="216" y="821" on="0"/>
        <pt x="216" y="755" on="0"/>
      </contour>
      <contour>
        <pt x="36" y="666" on="1"/>
        <pt x="341" y="666" on="1"/>
        <pt x="341" y="621" on="1"/>
        <pt x="83" y="45" on="1"/>
        <pt x="335" y="45" on="1"/>
        <pt x="335" y="0" on="1"/>
        <pt x="30" y="0" on="1"/>
        <pt x="30" y="45" on="1"/>
        <pt x="288" y="621" on="1"/>
        <pt x="36" y="621" on="1"/>
      </contour>
    </TTGlyph>
    <TTGlyph name="a" xMin="35" yMin="-4" xMax="352" yMax="568">
      <contour>
        <pt x="84" y="160" on="1"/>
        <pt x="84" y="129" on="1"/>
        <pt x="84" y="83" on="0"/>
        <pt x="127" y="40" on="0"/>
        <pt x="178" y="40" on="1"/>
        <pt x="251" y="40" on="0"/>
        <pt x="303" y="86" on="1"/>
        <pt x="303" y="290" on="1"/>
        <pt x="171" y="253" on="1"/>
        <pt x="122" y="238" on="0"/>
        <pt x="84" y="196" on="0"/>
      </contour>
      <contour>
        <pt x="188" y="568" on="1"/>
        <pt x="352" y="568" on="0"/>
        <pt x="352" y="432" on="1"/>
        <pt x="352" y="0" on="1"/>
        <pt x="303" y="0" on="1"/>
        <pt x="303" y="40" on="1"/>
        <pt x="284" y="25" on="0"/>
        <pt x="270" y="17" on="1"/>
        <pt x="235" y="-4" on="0"/>
        <pt x="175" y="-4" on="1"/>
        <pt x="35" y="-4" on="0"/>
        <pt x="35" y="130" on="1"/>
        <pt x="35" y="162" on="1"/>
        <pt x="35" y="261" on="0"/>
        <pt x="155" y="295" on="1"/>
        <pt x="303" y="337" on="1"/>
        <pt x="303" y="432" on="1"/>
        <pt x="303" y="477" on="0"/>
        <pt x="254" y="520" on="0"/>
        <pt x="117" y="520" on="0"/>
        <pt x="61" y="500" on="1"/>
        <pt x="61" y="550" on="1"/>
        <pt x="117" y="568" on="0"/>
      </contour>
    </TTGlyph>
    <TTGlyph name="aacute" xMin="35" yMin="-4" xMax="352" yMax="713">
      <contour>
        <pt x="224" y="713" on="1"/>
        <pt x="279" y="713" on="1"/>
        <pt x="224" y="608" on="1"/>
        <pt x="187" y="608" on="1"/>
      </contour>
      <contour>
        <pt x="84" y="160" on="1"/>
        <pt x="84" y="129" on="1"/>
        <pt x="84" y="83" on="0"/>
        <pt x="127" y="40" on="0"/>
        <pt x="178" y="40" on="1"/>
        <pt x="251" y="40" on="0"/>
        <pt x="303" y="86" on="1"/>
        <pt x="303" y="290" on="1"/>
        <pt x="171" y="253" on="1"/>
        <pt x="122" y="238" on="0"/>
        <pt x="84" y="196" on="0"/>
      </contour>
      <contour>
        <pt x="188" y="568" on="1"/>
        <pt x="352" y="568" on="0"/>
        <pt x="352" y="432" on="1"/>
        <pt x="352" y="0" on="1"/>
        <pt x="303" y="0" on="1"/>
        <pt x="303" y="40" on="1"/>
        <pt x="284" y="25" on="0"/>
        <pt x="270" y="17" on="1"/>
        <pt x="235" y="-4" on="0"/>
        <pt x="175" y="-4" on="1"/>
        <pt x="35" y="-4" on="0"/>
        <pt x="35" y="130" on="1"/>
        <pt x="35" y="162" on="1"/>
        <pt x="35" y="261" on="0"/>
        <pt x="155" y="295" on="1"/>
        <pt x="303" y="337" on="1"/>
        <pt x="303" y="432" on="1"/>
        <pt x="303" y="477" on="0"/>
        <pt x="254" y="520" on="0"/>
        <pt x="117" y="520" on="0"/>
        <pt x="61" y="500" on="1"/>
        <pt x="61" y="550" on="1"/>
        <pt x="117" y="568" on="0"/>
      </contour>
    </TTGlyph>
    <TTGlyph name="abreve" xMin="35" yMin="-4" xMax="352" yMax="713">
      <contour>
        <pt x="262" y="608" on="0"/>
        <pt x="162" y="608" on="0"/>
        <pt x="107" y="667" on="0"/>
        <pt x="105" y="713" on="1"/>
        <pt x="148" y="713" on="1"/>
        <pt x="149" y="683" on="0"/>
        <pt x="182" y="648" on="0"/>
        <pt x="242" y="648" on="0"/>
        <pt x="275" y="683" on="0"/>
        <pt x="276" y="713" on="1"/>
        <pt x="319" y="713" on="1"/>
        <pt x="317" y="667" on="0"/>
      </contour>
      <contour>
        <pt x="84" y="160" on="1"/>
        <pt x="84" y="129" on="1"/>
        <pt x="84" y="83" on="0"/>
        <pt x="127" y="40" on="0"/>
        <pt x="178" y="40" on="1"/>
        <pt x="251" y="40" on="0"/>
        <pt x="303" y="86" on="1"/>
        <pt x="303" y="290" on="1"/>
        <pt x="171" y="253" on="1"/>
        <pt x="122" y="238" on="0"/>
        <pt x="84" y="196" on="0"/>
      </contour>
      <contour>
        <pt x="188" y="568" on="1"/>
        <pt x="352" y="568" on="0"/>
        <pt x="352" y="432" on="1"/>
        <pt x="352" y="0" on="1"/>
        <pt x="303" y="0" on="1"/>
        <pt x="303" y="40" on="1"/>
        <pt x="284" y="25" on="0"/>
        <pt x="270" y="17" on="1"/>
        <pt x="235" y="-4" on="0"/>
        <pt x="175" y="-4" on="1"/>
        <pt x="35" y="-4" on="0"/>
        <pt x="35" y="130" on="1"/>
        <pt x="35" y="162" on="1"/>
        <pt x="35" y="261" on="0"/>
        <pt x="155" y="295" on="1"/>
        <pt x="303" y="337" on="1"/>
        <pt x="303" y="432" on="1"/>
        <pt x="303" y="477" on="0"/>
        <pt x="254" y="520" on="0"/>
        <pt x="117" y="520" on="0"/>
        <pt x="61" y="500" on="1"/>
        <pt x="61" y="550" on="1"/>
        <pt x="117" y="568" on="0"/>
      </contour>
    </TTGlyph>
    <TTGlyph name="acircumflex" xMin="35" yMin="-4" xMax="352" yMax="713">
      <contour>
        <pt x="188" y="568" on="1"/>
        <pt x="352" y="568" on="0"/>
        <pt x="352" y="432" on="1"/>
        <pt x="352" y="0" on="1"/>
        <pt x="303" y="0" on="1"/>
        <pt x="303" y="40" on="1"/>
        <pt x="284" y="25" on="0"/>
        <pt x="270" y="17" on="1"/>
        <pt x="235" y="-4" on="0"/>
        <pt x="175" y="-4" on="1"/>
        <pt x="35" y="-4" on="0"/>
        <pt x="35" y="130" on="1"/>
        <pt x="35" y="162" on="1"/>
        <pt x="35" y="261" on="0"/>
        <pt x="155" y="295" on="1"/>
        <pt x="303" y="337" on="1"/>
        <pt x="303" y="432" on="1"/>
        <pt x="303" y="477" on="0"/>
        <pt x="254" y="520" on="0"/>
        <pt x="117" y="520" on="0"/>
        <pt x="61" y="500" on="1"/>
        <pt x="61" y="550" on="1"/>
        <pt x="117" y="568" on="0"/>
      </contour>
      <contour>
        <pt x="84" y="160" on="1"/>
        <pt x="84" y="129" on="1"/>
        <pt x="84" y="83" on="0"/>
        <pt x="127" y="40" on="0"/>
        <pt x="178" y="40" on="1"/>
        <pt x="251" y="40" on="0"/>
        <pt x="303" y="86" on="1"/>
        <pt x="303" y="290" on="1"/>
        <pt x="171" y="253" on="1"/>
        <pt x="122" y="238" on="0"/>
        <pt x="84" y="196" on="0"/>
      </contour>
      <contour>
        <pt x="215" y="676" on="1"/>
        <pt x="180" y="608" on="1"/>
        <pt x="144" y="608" on="1"/>
        <pt x="192" y="713" on="1"/>
        <pt x="238" y="713" on="1"/>
        <pt x="286" y="608" on="1"/>
        <pt x="250" y="608" on="1"/>
      </contour>
    </TTGlyph>
    <TTGlyph name="acute" xMin="129" yMin="608" xMax="221" yMax="713">
      <contour>
        <pt x="166" y="713" on="1"/>
        <pt x="221" y="713" on="1"/>
        <pt x="166" y="608" on="1"/>
        <pt x="129" y="608" on="1"/>
      </contour>
    </TTGlyph>
    <TTGlyph name="adieresis" xMin="35" yMin="-4" xMax="352" yMax="692">
      <contour>
        <pt x="239" y="626" on="0"/>
        <pt x="239" y="692" on="0"/>
        <pt x="305" y="692" on="0"/>
        <pt x="305" y="626" on="0"/>
      </contour>
      <contour>
        <pt x="114" y="626" on="0"/>
        <pt x="114" y="692" on="0"/>
        <pt x="180" y="692" on="0"/>
        <pt x="180" y="626" on="0"/>
      </contour>
      <contour>
        <pt x="84" y="160" on="1"/>
        <pt x="84" y="129" on="1"/>
        <pt x="84" y="83" on="0"/>
        <pt x="127" y="40" on="0"/>
        <pt x="178" y="40" on="1"/>
        <pt x="251" y="40" on="0"/>
        <pt x="303" y="86" on="1"/>
        <pt x="303" y="290" on="1"/>
        <pt x="171" y="253" on="1"/>
        <pt x="122" y="238" on="0"/>
        <pt x="84" y="196" on="0"/>
      </contour>
      <contour>
        <pt x="188" y="568" on="1"/>
        <pt x="352" y="568" on="0"/>
        <pt x="352" y="432" on="1"/>
        <pt x="352" y="0" on="1"/>
        <pt x="303" y="0" on="1"/>
        <pt x="303" y="40" on="1"/>
        <pt x="284" y="25" on="0"/>
        <pt x="270" y="17" on="1"/>
        <pt x="235" y="-4" on="0"/>
        <pt x="175" y="-4" on="1"/>
        <pt x="35" y="-4" on="0"/>
        <pt x="35" y="130" on="1"/>
        <pt x="35" y="162" on="1"/>
        <pt x="35" y="261" on="0"/>
        <pt x="155" y="295" on="1"/>
        <pt x="303" y="337" on="1"/>
        <pt x="303" y="432" on="1"/>
        <pt x="303" y="477" on="0"/>
        <pt x="254" y="520" on="0"/>
        <pt x="117" y="520" on="0"/>
        <pt x="61" y="500" on="1"/>
        <pt x="61" y="550" on="1"/>
        <pt x="117" y="568" on="0"/>
      </contour>
    </TTGlyph>
    <TTGlyph name="ae" xMin="35" yMin="-5" xMax="618" yMax="573">
      <contour>
        <pt x="568" y="419" on="1"/>
        <pt x="568" y="528" on="0"/>
        <pt x="462" y="528" on="1"/>
        <pt x="353" y="528" on="0"/>
        <pt x="353" y="419" on="1"/>
        <pt x="353" y="297" on="1"/>
        <pt x="568" y="297" on="1"/>
      </contour>
      <contour>
        <pt x="84" y="160" on="1"/>
        <pt x="84" y="129" on="1"/>
        <pt x="84" y="83" on="0"/>
        <pt x="127" y="40" on="0"/>
        <pt x="178" y="40" on="1"/>
        <pt x="257" y="40" on="0"/>
        <pt x="303" y="81" on="1"/>
        <pt x="303" y="290" on="1"/>
        <pt x="171" y="253" on="1"/>
        <pt x="122" y="238" on="0"/>
        <pt x="84" y="196" on="0"/>
      </contour>
      <contour>
        <pt x="331" y="513" on="1"/>
        <pt x="375" y="573" on="0"/>
        <pt x="541" y="573" on="0"/>
        <pt x="618" y="488" on="0"/>
        <pt x="618" y="419" on="1"/>
        <pt x="618" y="252" on="1"/>
        <pt x="353" y="252" on="1"/>
        <pt x="353" y="139" on="1"/>
        <pt x="353" y="42" on="0"/>
        <pt x="489" y="42" on="1"/>
        <pt x="543" y="42" on="0"/>
        <pt x="600" y="59" on="1"/>
        <pt x="600" y="10" on="1"/>
        <pt x="549" y="-5" on="0"/>
        <pt x="489" y="-5" on="1"/>
        <pt x="377" y="-5" on="0"/>
        <pt x="333" y="48" on="1"/>
        <pt x="274" y="-4" on="0"/>
        <pt x="175" y="-4" on="1"/>
        <pt x="35" y="-4" on="0"/>
        <pt x="35" y="130" on="1"/>
        <pt x="35" y="162" on="1"/>
        <pt x="35" y="261" on="0"/>
        <pt x="155" y="295" on="1"/>
        <pt x="303" y="337" on="1"/>
        <pt x="303" y="432" on="1"/>
        <pt x="303" y="477" on="0"/>
        <pt x="254" y="520" on="0"/>
        <pt x="117" y="520" on="0"/>
        <pt x="61" y="500" on="1"/>
        <pt x="61" y="550" on="1"/>
        <pt x="117" y="568" on="0"/>
        <pt x="188" y="568" on="1"/>
        <pt x="292" y="568" on="0"/>
      </contour>
    </TTGlyph>
    <TTGlyph name="agrave" xMin="35" yMin="-4" xMax="352" yMax="713">
      <contour>
        <pt x="132" y="713" on="1"/>
        <pt x="187" y="713" on="1"/>
        <pt x="224" y="608" on="1"/>
        <pt x="187" y="608" on="1"/>
      </contour>
      <contour>
        <pt x="84" y="160" on="1"/>
        <pt x="84" y="129" on="1"/>
        <pt x="84" y="83" on="0"/>
        <pt x="127" y="40" on="0"/>
        <pt x="178" y="40" on="1"/>
        <pt x="251" y="40" on="0"/>
        <pt x="303" y="86" on="1"/>
        <pt x="303" y="290" on="1"/>
        <pt x="171" y="253" on="1"/>
        <pt x="122" y="238" on="0"/>
        <pt x="84" y="196" on="0"/>
      </contour>
      <contour>
        <pt x="188" y="568" on="1"/>
        <pt x="352" y="568" on="0"/>
        <pt x="352" y="432" on="1"/>
        <pt x="352" y="0" on="1"/>
        <pt x="303" y="0" on="1"/>
        <pt x="303" y="40" on="1"/>
        <pt x="284" y="25" on="0"/>
        <pt x="270" y="17" on="1"/>
        <pt x="235" y="-4" on="0"/>
        <pt x="175" y="-4" on="1"/>
        <pt x="35" y="-4" on="0"/>
        <pt x="35" y="130" on="1"/>
        <pt x="35" y="162" on="1"/>
        <pt x="35" y="261" on="0"/>
        <pt x="155" y="295" on="1"/>
        <pt x="303" y="337" on="1"/>
        <pt x="303" y="432" on="1"/>
        <pt x="303" y="477" on="0"/>
        <pt x="254" y="520" on="0"/>
        <pt x="117" y="520" on="0"/>
        <pt x="61" y="500" on="1"/>
        <pt x="61" y="550" on="1"/>
        <pt x="117" y="568" on="0"/>
      </contour>
    </TTGlyph>
    <TTGlyph name="amacron" xMin="35" yMin="-4" xMax="352" yMax="680">
      <contour>
        <pt x="98" y="680" on="1"/>
        <pt x="308" y="680" on="1"/>
        <pt x="308" y="641" on="1"/>
        <pt x="98" y="641" on="1"/>
      </contour>
      <contour>
        <pt x="84" y="160" on="1"/>
        <pt x="84" y="129" on="1"/>
        <pt x="84" y="83" on="0"/>
        <pt x="127" y="40" on="0"/>
        <pt x="178" y="40" on="1"/>
        <pt x="251" y="40" on="0"/>
        <pt x="303" y="86" on="1"/>
        <pt x="303" y="290" on="1"/>
        <pt x="171" y="253" on="1"/>
        <pt x="122" y="238" on="0"/>
        <pt x="84" y="196" on="0"/>
      </contour>
      <contour>
        <pt x="188" y="568" on="1"/>
        <pt x="352" y="568" on="0"/>
        <pt x="352" y="432" on="1"/>
        <pt x="352" y="0" on="1"/>
        <pt x="303" y="0" on="1"/>
        <pt x="303" y="40" on="1"/>
        <pt x="284" y="25" on="0"/>
        <pt x="270" y="17" on="1"/>
        <pt x="235" y="-4" on="0"/>
        <pt x="175" y="-4" on="1"/>
        <pt x="35" y="-4" on="0"/>
        <pt x="35" y="130" on="1"/>
        <pt x="35" y="162" on="1"/>
        <pt x="35" y="261" on="0"/>
        <pt x="155" y="295" on="1"/>
        <pt x="303" y="337" on="1"/>
        <pt x="303" y="432" on="1"/>
        <pt x="303" y="477" on="0"/>
        <pt x="254" y="520" on="0"/>
        <pt x="117" y="520" on="0"/>
        <pt x="61" y="500" on="1"/>
        <pt x="61" y="550" on="1"/>
        <pt x="117" y="568" on="0"/>
      </contour>
    </TTGlyph>
    <TTGlyph name="ampersand" xMin="53" yMin="-10" xMax="428" yMax="671">
      <contour>
        <pt x="428" y="364" on="1"/>
        <pt x="428" y="319" on="1"/>
        <pt x="388" y="319" on="1"/>
        <pt x="388" y="143" on="1"/>
        <pt x="388" y="76" on="0"/>
        <pt x="302" y="-10" on="0"/>
        <pt x="142" y="-10" on="0"/>
        <pt x="53" y="76" on="0"/>
        <pt x="53" y="143" on="1"/>
        <pt x="53" y="211" on="1"/>
        <pt x="53" y="310" on="0"/>
        <pt x="133" y="341" on="1"/>
        <pt x="54" y="371" on="0"/>
        <pt x="54" y="472" on="1"/>
        <pt x="54" y="526" on="1"/>
        <pt x="54" y="593" on="0"/>
        <pt x="142" y="671" on="0"/>
        <pt x="233" y="671" on="1"/>
        <pt x="299" y="671" on="0"/>
        <pt x="358" y="652" on="1"/>
        <pt x="358" y="602" on="1"/>
        <pt x="299" y="623" on="0"/>
        <pt x="161" y="623" on="0"/>
        <pt x="104" y="572" on="0"/>
        <pt x="104" y="526" on="1"/>
        <pt x="104" y="472" on="1"/>
        <pt x="104" y="364" on="0"/>
        <pt x="203" y="364" on="1"/>
        <pt x="338" y="364" on="1"/>
        <pt x="338" y="421" on="1"/>
        <pt x="388" y="421" on="1"/>
        <pt x="388" y="364" on="1"/>
      </contour>
      <contour>
        <pt x="338" y="143" on="1"/>
        <pt x="338" y="319" on="1"/>
        <pt x="205" y="319" on="1"/>
        <pt x="103" y="319" on="0"/>
        <pt x="103" y="211" on="1"/>
        <pt x="103" y="143" on="1"/>
        <pt x="103" y="94" on="0"/>
        <pt x="164" y="35" on="0"/>
        <pt x="279" y="35" on="0"/>
        <pt x="338" y="93" on="0"/>
      </contour>
    </TTGlyph>
    <TTGlyph name="aogonek" xMin="35" yMin="-170" xMax="352" yMax="568">
      <contour>
        <pt x="188" y="568" on="1"/>
        <pt x="352" y="568" on="0"/>
        <pt x="352" y="432" on="1"/>
        <pt x="352" y="0" on="1"/>
        <pt x="351" y="0" on="1"/>
        <pt x="300" y="-38" on="0"/>
        <pt x="300" y="-92" on="1"/>
        <pt x="300" y="-128" on="0"/>
        <pt x="339" y="-128" on="1"/>
        <pt x="351" y="-128" on="1"/>
        <pt x="351" y="-170" on="1"/>
        <pt x="339" y="-170" on="1"/>
        <pt x="261" y="-170" on="0"/>
        <pt x="261" y="-105" on="1"/>
        <pt x="261" y="-44" on="0"/>
        <pt x="319" y="0" on="1"/>
        <pt x="303" y="0" on="1"/>
        <pt x="303" y="40" on="1"/>
        <pt x="284" y="25" on="0"/>
        <pt x="270" y="17" on="1"/>
        <pt x="235" y="-4" on="0"/>
        <pt x="175" y="-4" on="1"/>
        <pt x="35" y="-4" on="0"/>
        <pt x="35" y="130" on="1"/>
        <pt x="35" y="162" on="1"/>
        <pt x="35" y="261" on="0"/>
        <pt x="155" y="295" on="1"/>
        <pt x="303" y="337" on="1"/>
        <pt x="303" y="432" on="1"/>
        <pt x="303" y="477" on="0"/>
        <pt x="254" y="520" on="0"/>
        <pt x="117" y="520" on="0"/>
        <pt x="61" y="500" on="1"/>
        <pt x="61" y="550" on="1"/>
        <pt x="117" y="568" on="0"/>
      </contour>
      <contour>
        <pt x="84" y="160" on="1"/>
        <pt x="84" y="129" on="1"/>
        <pt x="84" y="83" on="0"/>
        <pt x="127" y="40" on="0"/>
        <pt x="178" y="40" on="1"/>
        <pt x="251" y="40" on="0"/>
        <pt x="303" y="86" on="1"/>
        <pt x="303" y="290" on="1"/>
        <pt x="171" y="253" on="1"/>
        <pt x="122" y="238" on="0"/>
        <pt x="84" y="196" on="0"/>
      </contour>
    </TTGlyph>
    <TTGlyph name="approxequal" xMin="47" yMin="222" xMax="376" yMax="445">
      <contour>
        <pt x="376" y="424" on="1"/>
        <pt x="376" y="372" on="0"/>
        <pt x="292" y="335" on="0"/>
        <pt x="245" y="359" on="1"/>
        <pt x="171" y="395" on="1"/>
        <pt x="132" y="416" on="0"/>
        <pt x="79" y="394" on="0"/>
        <pt x="86" y="352" on="1"/>
        <pt x="49" y="352" on="1"/>
        <pt x="47" y="362" on="0"/>
        <pt x="47" y="373" on="1"/>
        <pt x="47" y="425" on="0"/>
        <pt x="132" y="462" on="0"/>
        <pt x="178" y="438" on="1"/>
        <pt x="252" y="402" on="1"/>
        <pt x="293" y="380" on="0"/>
        <pt x="344" y="403" on="0"/>
        <pt x="337" y="445" on="1"/>
        <pt x="374" y="445" on="1"/>
        <pt x="376" y="435" on="0"/>
      </contour>
      <contour>
        <pt x="376" y="294" on="1"/>
        <pt x="376" y="242" on="0"/>
        <pt x="292" y="205" on="0"/>
        <pt x="245" y="229" on="1"/>
        <pt x="171" y="265" on="1"/>
        <pt x="132" y="286" on="0"/>
        <pt x="79" y="264" on="0"/>
        <pt x="86" y="222" on="1"/>
        <pt x="49" y="222" on="1"/>
        <pt x="47" y="232" on="0"/>
        <pt x="47" y="243" on="1"/>
        <pt x="47" y="295" on="0"/>
        <pt x="132" y="332" on="0"/>
        <pt x="178" y="308" on="1"/>
        <pt x="252" y="272" on="1"/>
        <pt x="293" y="250" on="0"/>
        <pt x="344" y="273" on="0"/>
        <pt x="337" y="315" on="1"/>
        <pt x="374" y="315" on="1"/>
        <pt x="376" y="305" on="0"/>
      </contour>
    </TTGlyph>
    <TTGlyph name="aring" xMin="35" yMin="-4" xMax="352" yMax="731">
      <contour>
        <pt x="246" y="644" on="0"/>
        <pt x="246" y="678" on="0"/>
        <pt x="226" y="698" on="0"/>
        <pt x="192" y="698" on="0"/>
        <pt x="172" y="678" on="0"/>
        <pt x="172" y="644" on="0"/>
        <pt x="192" y="623" on="0"/>
        <pt x="226" y="623" on="0"/>
      </contour>
      <contour>
        <pt x="137" y="631" on="0"/>
        <pt x="137" y="691" on="0"/>
        <pt x="176" y="731" on="0"/>
        <pt x="243" y="731" on="0"/>
        <pt x="281" y="691" on="0"/>
        <pt x="281" y="630" on="0"/>
        <pt x="243" y="590" on="0"/>
        <pt x="176" y="590" on="0"/>
      </contour>
      <contour>
        <pt x="84" y="160" on="1"/>
        <pt x="84" y="129" on="1"/>
        <pt x="84" y="83" on="0"/>
        <pt x="127" y="40" on="0"/>
        <pt x="178" y="40" on="1"/>
        <pt x="251" y="40" on="0"/>
        <pt x="303" y="86" on="1"/>
        <pt x="303" y="290" on="1"/>
        <pt x="171" y="253" on="1"/>
        <pt x="122" y="238" on="0"/>
        <pt x="84" y="196" on="0"/>
      </contour>
      <contour>
        <pt x="188" y="568" on="1"/>
        <pt x="352" y="568" on="0"/>
        <pt x="352" y="432" on="1"/>
        <pt x="352" y="0" on="1"/>
        <pt x="303" y="0" on="1"/>
        <pt x="303" y="40" on="1"/>
        <pt x="284" y="25" on="0"/>
        <pt x="270" y="17" on="1"/>
        <pt x="235" y="-4" on="0"/>
        <pt x="175" y="-4" on="1"/>
        <pt x="35" y="-4" on="0"/>
        <pt x="35" y="130" on="1"/>
        <pt x="35" y="162" on="1"/>
        <pt x="35" y="261" on="0"/>
        <pt x="155" y="295" on="1"/>
        <pt x="303" y="337" on="1"/>
        <pt x="303" y="432" on="1"/>
        <pt x="303" y="477" on="0"/>
        <pt x="254" y="520" on="0"/>
        <pt x="117" y="520" on="0"/>
        <pt x="61" y="500" on="1"/>
        <pt x="61" y="550" on="1"/>
        <pt x="117" y="568" on="0"/>
      </contour>
    </TTGlyph>
    <TTGlyph name="asciicircum" xMin="4" yMin="374" xMax="276" yMax="644">
      <contour>
        <pt x="276" y="374" on="1"/>
        <pt x="229" y="374" on="1"/>
        <pt x="140" y="622" on="1"/>
        <pt x="51" y="374" on="1"/>
        <pt x="4" y="374" on="1"/>
        <pt x="104" y="644" on="1"/>
        <pt x="177" y="644" on="1"/>
      </contour>
    </TTGlyph>
    <TTGlyph name="asciitilde" xMin="23" yMin="289" xMax="352" yMax="382">
      <contour>
        <pt x="352" y="361" on="1"/>
        <pt x="352" y="309" on="0"/>
        <pt x="268" y="272" on="0"/>
        <pt x="221" y="296" on="1"/>
        <pt x="147" y="332" on="1"/>
        <pt x="108" y="353" on="0"/>
        <pt x="55" y="331" on="0"/>
        <pt x="62" y="289" on="1"/>
        <pt x="25" y="289" on="1"/>
        <pt x="23" y="299" on="0"/>
        <pt x="23" y="310" on="1"/>
        <pt x="23" y="362" on="0"/>
        <pt x="108" y="399" on="0"/>
        <pt x="154" y="375" on="1"/>
        <pt x="228" y="339" on="1"/>
        <pt x="269" y="317" on="0"/>
        <pt x="320" y="340" on="0"/>
        <pt x="313" y="382" on="1"/>
        <pt x="350" y="382" on="1"/>
        <pt x="352" y="372" on="0"/>
      </contour>
    </TTGlyph>
    <TTGlyph name="asterisk" xMin="70" yMin="444" xMax="414" yMax="771">
      <contour>
        <pt x="221" y="667" on="1"/>
        <pt x="221" y="771" on="1"/>
        <pt x="262" y="771" on="1"/>
        <pt x="262" y="667" on="1"/>
        <pt x="262" y="637" on="0"/>
        <pt x="253" y="612" on="1"/>
        <pt x="269" y="628" on="0"/>
        <pt x="301" y="638" on="1"/>
        <pt x="401" y="671" on="1"/>
        <pt x="414" y="632" on="1"/>
        <pt x="315" y="600" on="1"/>
        <pt x="283" y="589" on="0"/>
        <pt x="260" y="591" on="1"/>
        <pt x="279" y="580" on="0"/>
        <pt x="299" y="553" on="1"/>
        <pt x="361" y="468" on="1"/>
        <pt x="328" y="444" on="1"/>
        <pt x="267" y="528" on="1"/>
        <pt x="246" y="557" on="0"/>
        <pt x="242" y="578" on="1"/>
        <pt x="235" y="553" on="0"/>
        <pt x="217" y="529" on="1"/>
        <pt x="156" y="444" on="1"/>
        <pt x="123" y="468" on="1"/>
        <pt x="184" y="552" on="1"/>
        <pt x="205" y="580" on="0"/>
        <pt x="224" y="591" on="1"/>
        <pt x="201" y="589" on="0"/>
        <pt x="169" y="599" on="1"/>
        <pt x="70" y="631" on="1"/>
        <pt x="82" y="670" on="1"/>
        <pt x="181" y="638" on="1"/>
        <pt x="213" y="628" on="0"/>
        <pt x="231" y="612" on="1"/>
        <pt x="221" y="634" on="0"/>
      </contour>
    </TTGlyph>
    <TTGlyph name="at" xMin="76" yMin="-106" xMax="773" yMax="648">
      <contour>
        <pt x="508" y="-106" on="1"/>
        <pt x="424" y="-106" on="1"/>
        <pt x="241" y="-106" on="0"/>
        <pt x="76" y="86" on="0"/>
        <pt x="76" y="455" on="0"/>
        <pt x="243" y="648" on="0"/>
        <pt x="608" y="648" on="0"/>
        <pt x="773" y="466" on="0"/>
        <pt x="773" y="282" on="1"/>
        <pt x="773" y="33" on="0"/>
        <pt x="627" y="33" on="1"/>
        <pt x="554" y="33" on="0"/>
        <pt x="526" y="79" on="1"/>
        <pt x="484" y="44" on="0"/>
        <pt x="414" y="44" on="1"/>
        <pt x="278" y="44" on="0"/>
        <pt x="278" y="158" on="1"/>
        <pt x="278" y="169" on="1"/>
        <pt x="278" y="222" on="0"/>
        <pt x="339" y="276" on="0"/>
        <pt x="401" y="295" on="1"/>
        <pt x="509" y="327" on="1"/>
        <pt x="509" y="382" on="1"/>
        <pt x="509" y="421" on="0"/>
        <pt x="473" y="462" on="0"/>
        <pt x="379" y="462" on="0"/>
        <pt x="304" y="445" on="1"/>
        <pt x="304" y="490" on="1"/>
        <pt x="370" y="506" on="0"/>
        <pt x="492" y="506" on="0"/>
        <pt x="555" y="439" on="0"/>
        <pt x="555" y="382" on="1"/>
        <pt x="555" y="157" on="1"/>
        <pt x="555" y="114" on="0"/>
        <pt x="590" y="76" on="0"/>
        <pt x="627" y="76" on="1"/>
        <pt x="726" y="76" on="0"/>
        <pt x="726" y="282" on="1"/>
        <pt x="726" y="445" on="0"/>
        <pt x="585" y="606" on="0"/>
        <pt x="264" y="606" on="0"/>
        <pt x="123" y="436" on="0"/>
        <pt x="123" y="106" on="0"/>
        <pt x="264" y="-64" on="0"/>
        <pt x="424" y="-64" on="1"/>
        <pt x="508" y="-64" on="1"/>
      </contour>
      <contour>
        <pt x="328" y="169" on="1"/>
        <pt x="328" y="157" on="1"/>
        <pt x="328" y="87" on="0"/>
        <pt x="404" y="87" on="1"/>
        <pt x="435" y="87" on="0"/>
        <pt x="487" y="104" on="0"/>
        <pt x="509" y="120" on="1"/>
        <pt x="509" y="281" on="1"/>
        <pt x="408" y="251" on="1"/>
        <pt x="364" y="238" on="0"/>
        <pt x="328" y="207" on="0"/>
      </contour>
    </TTGlyph>
    <TTGlyph name="atilde" xMin="35" yMin="-4" xMax="352" yMax="703">
      <contour>
        <pt x="286" y="703" on="1"/>
        <pt x="329" y="703" on="1"/>
        <pt x="329" y="687" on="1"/>
        <pt x="329" y="656" on="0"/>
        <pt x="298" y="621" on="0"/>
        <pt x="245" y="621" on="0"/>
        <pt x="176" y="662" on="0"/>
        <pt x="160" y="662" on="1"/>
        <pt x="137" y="662" on="0"/>
        <pt x="137" y="632" on="1"/>
        <pt x="137" y="619" on="1"/>
        <pt x="94" y="619" on="1"/>
        <pt x="94" y="635" on="1"/>
        <pt x="94" y="664" on="0"/>
        <pt x="125" y="701" on="0"/>
        <pt x="181" y="701" on="0"/>
        <pt x="252" y="660" on="0"/>
        <pt x="264" y="660" on="1"/>
        <pt x="286" y="660" on="0"/>
        <pt x="286" y="690" on="1"/>
      </contour>
      <contour>
        <pt x="84" y="160" on="1"/>
        <pt x="84" y="129" on="1"/>
        <pt x="84" y="83" on="0"/>
        <pt x="127" y="40" on="0"/>
        <pt x="178" y="40" on="1"/>
        <pt x="251" y="40" on="0"/>
        <pt x="303" y="86" on="1"/>
        <pt x="303" y="290" on="1"/>
        <pt x="171" y="253" on="1"/>
        <pt x="122" y="238" on="0"/>
        <pt x="84" y="196" on="0"/>
      </contour>
      <contour>
        <pt x="188" y="568" on="1"/>
        <pt x="352" y="568" on="0"/>
        <pt x="352" y="432" on="1"/>
        <pt x="352" y="0" on="1"/>
        <pt x="303" y="0" on="1"/>
        <pt x="303" y="40" on="1"/>
        <pt x="284" y="25" on="0"/>
        <pt x="270" y="17" on="1"/>
        <pt x="235" y="-4" on="0"/>
        <pt x="175" y="-4" on="1"/>
        <pt x="35" y="-4" on="0"/>
        <pt x="35" y="130" on="1"/>
        <pt x="35" y="162" on="1"/>
        <pt x="35" y="261" on="0"/>
        <pt x="155" y="295" on="1"/>
        <pt x="303" y="337" on="1"/>
        <pt x="303" y="432" on="1"/>
        <pt x="303" y="477" on="0"/>
        <pt x="254" y="520" on="0"/>
        <pt x="117" y="520" on="0"/>
        <pt x="61" y="500" on="1"/>
        <pt x="61" y="550" on="1"/>
        <pt x="117" y="568" on="0"/>
      </contour>
    </TTGlyph>
    <TTGlyph name="b" xMin="75" yMin="0" xMax="378" yMax="713">
      <contour>
        <pt x="328" y="432" on="1"/>
        <pt x="328" y="519" on="0"/>
        <pt x="243" y="519" on="1"/>
        <pt x="201" y="519" on="0"/>
        <pt x="125" y="491" on="1"/>
        <pt x="125" y="45" on="1"/>
        <pt x="220" y="45" on="1"/>
        <pt x="328" y="45" on="0"/>
        <pt x="328" y="148" on="1"/>
      </contour>
      <contour>
        <pt x="75" y="713" on="1"/>
        <pt x="124" y="713" on="1"/>
        <pt x="124" y="539" on="1"/>
        <pt x="192" y="566" on="0"/>
        <pt x="306" y="566" on="0"/>
        <pt x="378" y="495" on="0"/>
        <pt x="378" y="432" on="1"/>
        <pt x="378" y="148" on="1"/>
        <pt x="378" y="78" on="0"/>
        <pt x="298" y="0" on="0"/>
        <pt x="231" y="0" on="1"/>
        <pt x="75" y="0" on="1"/>
      </contour>
    </TTGlyph>
    <TTGlyph name="backslash" xMin="31" yMin="-120" xMax="344" yMax="764">
      <contour>
        <pt x="31" y="764" on="1"/>
        <pt x="75" y="764" on="1"/>
        <pt x="344" y="-120" on="1"/>
        <pt x="300" y="-120" on="1"/>
      </contour>
    </TTGlyph>
    <TTGlyph name="bar" xMin="80" yMin="-140" xMax="123" yMax="784">
      <contour>
        <pt x="80" y="784" on="1"/>
        <pt x="123" y="784" on="1"/>
        <pt x="123" y="-140" on="1"/>
        <pt x="80" y="-140" on="1"/>
      </contour>
    </TTGlyph>
    <TTGlyph name="braceleft" xMin="60" yMin="-120" xMax="285" yMax="764">
      <contour>
        <pt x="185" y="648" on="1"/>
        <pt x="185" y="437" on="1"/>
        <pt x="185" y="383" on="0"/>
        <pt x="149" y="327" on="0"/>
        <pt x="101" y="322" on="1"/>
        <pt x="149" y="317" on="0"/>
        <pt x="185" y="261" on="0"/>
        <pt x="185" y="207" on="1"/>
        <pt x="185" y="-4" on="1"/>
        <pt x="185" y="-78" on="0"/>
        <pt x="278" y="-78" on="1"/>
        <pt x="285" y="-78" on="1"/>
        <pt x="285" y="-120" on="1"/>
        <pt x="277" y="-120" on="1"/>
        <pt x="211" y="-120" on="0"/>
        <pt x="140" y="-59" on="0"/>
        <pt x="140" y="-4" on="1"/>
        <pt x="140" y="227" on="1"/>
        <pt x="140" y="261" on="0"/>
        <pt x="100" y="301" on="0"/>
        <pt x="62" y="301" on="1"/>
        <pt x="60" y="301" on="1"/>
        <pt x="60" y="343" on="1"/>
        <pt x="62" y="343" on="1"/>
        <pt x="100" y="343" on="0"/>
        <pt x="140" y="383" on="0"/>
        <pt x="140" y="417" on="1"/>
        <pt x="140" y="648" on="1"/>
        <pt x="140" y="703" on="0"/>
        <pt x="211" y="764" on="0"/>
        <pt x="277" y="764" on="1"/>
        <pt x="285" y="764" on="1"/>
        <pt x="285" y="722" on="1"/>
        <pt x="278" y="722" on="1"/>
        <pt x="185" y="722" on="0"/>
      </contour>
    </TTGlyph>
    <TTGlyph name="braceright" xMin="50" yMin="-120" xMax="275" yMax="764">
      <contour>
        <pt x="273" y="343" on="1"/>
        <pt x="275" y="343" on="1"/>
        <pt x="275" y="301" on="1"/>
        <pt x="273" y="301" on="1"/>
        <pt x="235" y="301" on="0"/>
        <pt x="195" y="261" on="0"/>
        <pt x="195" y="227" on="1"/>
        <pt x="195" y="-4" on="1"/>
        <pt x="195" y="-59" on="0"/>
        <pt x="124" y="-120" on="0"/>
        <pt x="58" y="-120" on="1"/>
        <pt x="50" y="-120" on="1"/>
        <pt x="50" y="-78" on="1"/>
        <pt x="57" y="-78" on="1"/>
        <pt x="150" y="-78" on="0"/>
        <pt x="150" y="-4" on="1"/>
        <pt x="150" y="207" on="1"/>
        <pt x="150" y="261" on="0"/>
        <pt x="186" y="317" on="0"/>
        <pt x="234" y="322" on="1"/>
        <pt x="186" y="327" on="0"/>
        <pt x="150" y="383" on="0"/>
        <pt x="150" y="437" on="1"/>
        <pt x="150" y="648" on="1"/>
        <pt x="150" y="722" on="0"/>
        <pt x="57" y="722" on="1"/>
        <pt x="50" y="722" on="1"/>
        <pt x="50" y="764" on="1"/>
        <pt x="58" y="764" on="1"/>
        <pt x="124" y="764" on="0"/>
        <pt x="195" y="703" on="0"/>
        <pt x="195" y="648" on="1"/>
        <pt x="195" y="417" on="1"/>
        <pt x="195" y="383" on="0"/>
        <pt x="235" y="343" on="0"/>
      </contour>
    </TTGlyph>
    <TTGlyph name="bracketleft" xMin="80" yMin="-120" xMax="249" yMax="764">
      <contour>
        <pt x="125" y="724" on="1"/>
        <pt x="125" y="-80" on="1"/>
        <pt x="249" y="-80" on="1"/>
        <pt x="249" y="-120" on="1"/>
        <pt x="80" y="-120" on="1"/>
        <pt x="80" y="764" on="1"/>
        <pt x="249" y="764" on="1"/>
        <pt x="249" y="724" on="1"/>
      </contour>
    </TTGlyph>
    <TTGlyph name="bracketright" xMin="26" yMin="-120" xMax="195" yMax="764">
      <contour>
        <pt x="26" y="764" on="1"/>
        <pt x="195" y="764" on="1"/>
        <pt x="195" y="-120" on="1"/>
        <pt x="26" y="-120" on="1"/>
        <pt x="26" y="-80" on="1"/>
        <pt x="150" y="-80" on="1"/>
        <pt x="150" y="724" on="1"/>
        <pt x="26" y="724" on="1"/>
      </contour>
    </TTGlyph>
    <TTGlyph name="breve" xMin="68" yMin="608" xMax="282" yMax="713">
      <contour>
        <pt x="225" y="608" on="0"/>
        <pt x="125" y="608" on="0"/>
        <pt x="70" y="667" on="0"/>
        <pt x="68" y="713" on="1"/>
        <pt x="111" y="713" on="1"/>
        <pt x="112" y="683" on="0"/>
        <pt x="145" y="648" on="0"/>
        <pt x="205" y="648" on="0"/>
        <pt x="238" y="683" on="0"/>
        <pt x="239" y="713" on="1"/>
        <pt x="282" y="713" on="1"/>
        <pt x="280" y="667" on="0"/>
      </contour>
    </TTGlyph>
    <TTGlyph name="brokenbar" xMin="80" yMin="-140" xMax="123" yMax="784">
      <contour>
        <pt x="80" y="235" on="1"/>
        <pt x="123" y="235" on="1"/>
        <pt x="123" y="-140" on="1"/>
        <pt x="80" y="-140" on="1"/>
      </contour>
      <contour>
        <pt x="80" y="784" on="1"/>
        <pt x="123" y="784" on="1"/>
        <pt x="123" y="409" on="1"/>
        <pt x="80" y="409" on="1"/>
      </contour>
    </TTGlyph>
    <TTGlyph name="bullet" xMin="72" yMin="257" xMax="202" yMax="387">
      <contour>
        <pt x="72" y="257" on="0"/>
        <pt x="72" y="387" on="0"/>
        <pt x="202" y="387" on="0"/>
        <pt x="202" y="257" on="0"/>
      </contour>
    </TTGlyph>
    <TTGlyph name="c" xMin="65" yMin="-5" xMax="329" yMax="568">
      <contour>
        <pt x="65" y="433" on="1"/>
        <pt x="65" y="568" on="0"/>
        <pt x="226" y="568" on="1"/>
        <pt x="284" y="568" on="0"/>
        <pt x="327" y="555" on="1"/>
        <pt x="327" y="509" on="1"/>
        <pt x="282" y="522" on="0"/>
        <pt x="161" y="522" on="0"/>
        <pt x="115" y="478" on="0"/>
        <pt x="115" y="433" on="1"/>
        <pt x="115" y="129" on="1"/>
        <pt x="115" y="84" on="0"/>
        <pt x="161" y="41" on="0"/>
        <pt x="284" y="41" on="0"/>
        <pt x="329" y="56" on="1"/>
        <pt x="329" y="9" on="1"/>
        <pt x="279" y="-5" on="0"/>
        <pt x="226" y="-5" on="1"/>
        <pt x="65" y="-5" on="0"/>
        <pt x="65" y="129" on="1"/>
      </contour>
    </TTGlyph>
    <TTGlyph name="cacute" xMin="65" yMin="-5" xMax="329" yMax="713">
      <contour>
        <pt x="65" y="433" on="1"/>
        <pt x="65" y="568" on="0"/>
        <pt x="226" y="568" on="1"/>
        <pt x="284" y="568" on="0"/>
        <pt x="327" y="555" on="1"/>
        <pt x="327" y="509" on="1"/>
        <pt x="282" y="522" on="0"/>
        <pt x="161" y="522" on="0"/>
        <pt x="115" y="478" on="0"/>
        <pt x="115" y="433" on="1"/>
        <pt x="115" y="129" on="1"/>
        <pt x="115" y="84" on="0"/>
        <pt x="161" y="41" on="0"/>
        <pt x="284" y="41" on="0"/>
        <pt x="329" y="56" on="1"/>
        <pt x="329" y="9" on="1"/>
        <pt x="279" y="-5" on="0"/>
        <pt x="226" y="-5" on="1"/>
        <pt x="65" y="-5" on="0"/>
        <pt x="65" y="129" on="1"/>
      </contour>
      <contour>
        <pt x="243" y="713" on="1"/>
        <pt x="298" y="713" on="1"/>
        <pt x="243" y="608" on="1"/>
        <pt x="206" y="608" on="1"/>
      </contour>
    </TTGlyph>
    <TTGlyph name="caron" xMin="104" yMin="608" xMax="246" yMax="713">
      <contour>
        <pt x="210" y="713" on="1"/>
        <pt x="246" y="713" on="1"/>
        <pt x="198" y="608" on="1"/>
        <pt x="152" y="608" on="1"/>
        <pt x="104" y="713" on="1"/>
        <pt x="140" y="713" on="1"/>
        <pt x="175" y="645" on="1"/>
      </contour>
    </TTGlyph>
    <TTGlyph name="ccaron" xMin="65" yMin="-5" xMax="329" yMax="713">
      <contour>
        <pt x="115" y="433" on="1"/>
        <pt x="115" y="129" on="1"/>
        <pt x="115" y="84" on="0"/>
        <pt x="161" y="41" on="0"/>
        <pt x="284" y="41" on="0"/>
        <pt x="329" y="56" on="1"/>
        <pt x="329" y="9" on="1"/>
        <pt x="279" y="-5" on="0"/>
        <pt x="226" y="-5" on="1"/>
        <pt x="65" y="-5" on="0"/>
        <pt x="65" y="129" on="1"/>
        <pt x="65" y="433" on="1"/>
        <pt x="65" y="568" on="0"/>
        <pt x="226" y="568" on="1"/>
        <pt x="284" y="568" on="0"/>
        <pt x="327" y="555" on="1"/>
        <pt x="327" y="509" on="1"/>
        <pt x="282" y="522" on="0"/>
        <pt x="161" y="522" on="0"/>
        <pt x="115" y="478" on="0"/>
      </contour>
      <contour>
        <pt x="195" y="608" on="1"/>
        <pt x="147" y="713" on="1"/>
        <pt x="183" y="713" on="1"/>
        <pt x="218" y="645" on="1"/>
        <pt x="253" y="713" on="1"/>
        <pt x="289" y="713" on="1"/>
        <pt x="241" y="608" on="1"/>
      </contour>
    </TTGlyph>
    <TTGlyph name="ccedilla" xMin="65" yMin="-179" xMax="329" yMax="568">
      <contour>
        <pt x="226" y="-5" on="1"/>
        <pt x="222" y="-5" on="1"/>
        <pt x="214" y="-40" on="1"/>
        <pt x="246" y="-42" on="0"/>
        <pt x="284" y="-77" on="0"/>
        <pt x="284" y="-142" on="0"/>
        <pt x="235" y="-179" on="0"/>
        <pt x="167" y="-179" on="0"/>
        <pt x="149" y="-172" on="1"/>
        <pt x="149" y="-139" on="1"/>
        <pt x="167" y="-147" on="0"/>
        <pt x="194" y="-147" on="1"/>
        <pt x="250" y="-147" on="0"/>
        <pt x="250" y="-67" on="0"/>
        <pt x="192" y="-67" on="1"/>
        <pt x="178" y="-67" on="1"/>
        <pt x="191" y="-3" on="1"/>
        <pt x="65" y="9" on="0"/>
        <pt x="65" y="129" on="1"/>
        <pt x="65" y="433" on="1"/>
        <pt x="65" y="568" on="0"/>
        <pt x="226" y="568" on="1"/>
        <pt x="284" y="568" on="0"/>
        <pt x="327" y="555" on="1"/>
        <pt x="327" y="509" on="1"/>
        <pt x="282" y="522" on="0"/>
        <pt x="161" y="522" on="0"/>
        <pt x="115" y="478" on="0"/>
        <pt x="115" y="433" on="1"/>
        <pt x="115" y="129" on="1"/>
        <pt x="115" y="84" on="0"/>
        <pt x="161" y="41" on="0"/>
        <pt x="284" y="41" on="0"/>
        <pt x="329" y="56" on="1"/>
        <pt x="329" y="9" on="1"/>
        <pt x="279" y="-5" on="0"/>
      </contour>
    </TTGlyph>
    <TTGlyph name="cedilla" xMin="107" yMin="-179" xMax="242" yMax="6">
      <contour>
        <pt x="204" y="-42" on="0"/>
        <pt x="242" y="-77" on="0"/>
        <pt x="242" y="-142" on="0"/>
        <pt x="193" y="-179" on="0"/>
        <pt x="125" y="-179" on="0"/>
        <pt x="107" y="-172" on="1"/>
        <pt x="107" y="-139" on="1"/>
        <pt x="125" y="-147" on="0"/>
        <pt x="152" y="-147" on="1"/>
        <pt x="208" y="-147" on="0"/>
        <pt x="208" y="-67" on="0"/>
        <pt x="150" y="-67" on="1"/>
        <pt x="136" y="-67" on="1"/>
        <pt x="151" y="6" on="1"/>
        <pt x="182" y="6" on="1"/>
        <pt x="172" y="-40" on="1"/>
      </contour>
    </TTGlyph>
    <TTGlyph name="cent" xMin="75" yMin="-80" xMax="339" yMax="653">
      <contour>
        <pt x="257" y="-80" on="1"/>
        <pt x="212" y="-80" on="1"/>
        <pt x="212" y="-4" on="1"/>
        <pt x="75" y="4" on="0"/>
        <pt x="75" y="129" on="1"/>
        <pt x="75" y="433" on="1"/>
        <pt x="75" y="557" on="0"/>
        <pt x="211" y="567" on="1"/>
        <pt x="211" y="653" on="1"/>
        <pt x="256" y="653" on="1"/>
        <pt x="256" y="568" on="1"/>
        <pt x="305" y="565" on="0"/>
        <pt x="337" y="555" on="1"/>
        <pt x="337" y="509" on="1"/>
        <pt x="291" y="522" on="0"/>
        <pt x="171" y="522" on="0"/>
        <pt x="125" y="478" on="0"/>
        <pt x="125" y="433" on="1"/>
        <pt x="125" y="129" on="1"/>
        <pt x="125" y="84" on="0"/>
        <pt x="171" y="41" on="0"/>
        <pt x="294" y="41" on="0"/>
        <pt x="339" y="56" on="1"/>
        <pt x="339" y="9" on="1"/>
        <pt x="298" y="-3" on="0"/>
        <pt x="257" y="-4" on="1"/>
      </contour>
    </TTGlyph>
    <TTGlyph name="circumflex" xMin="104" yMin="608" xMax="246" yMax="713">
      <contour>
        <pt x="246" y="608" on="1"/>
        <pt x="210" y="608" on="1"/>
        <pt x="175" y="676" on="1"/>
        <pt x="140" y="608" on="1"/>
        <pt x="104" y="608" on="1"/>
        <pt x="152" y="713" on="1"/>
        <pt x="198" y="713" on="1"/>
      </contour>
    </TTGlyph>
    <TTGlyph name="colon" xMin="30" yMin="-5" xMax="96" yMax="419">
      <contour>
        <pt x="30" y="-5" on="0"/>
        <pt x="30" y="69" on="0"/>
        <pt x="96" y="69" on="0"/>
        <pt x="96" y="-5" on="0"/>
      </contour>
      <contour>
        <pt x="30" y="345" on="0"/>
        <pt x="30" y="419" on="0"/>
        <pt x="96" y="419" on="0"/>
        <pt x="96" y="345" on="0"/>
      </contour>
    </TTGlyph>
    <TTGlyph name="comma" xMin="4" yMin="-124" xMax="97" yMax="69">
      <contour>
        <pt x="69" y="69" on="1"/>
        <pt x="97" y="69" on="0"/>
        <pt x="97" y="11" on="0"/>
        <pt x="36" y="-124" on="1"/>
        <pt x="4" y="-124" on="1"/>
        <pt x="44" y="69" on="1"/>
      </contour>
    </TTGlyph>
    <TTGlyph name="commaaccent" xMin="137" yMin="-174" xMax="212" yMax="-61">
      <contour>
        <pt x="187" y="-61" on="1"/>
        <pt x="212" y="-61" on="0"/>
        <pt x="212" y="-106" on="0"/>
        <pt x="168" y="-174" on="1"/>
        <pt x="137" y="-174" on="1"/>
        <pt x="164" y="-61" on="1"/>
      </contour>
    </TTGlyph>
    <TTGlyph name="copyright" xMin="50" yMin="0" xMax="631" yMax="644">
      <contour>
        <pt x="565" y="163" on="0"/>
        <pt x="584" y="256" on="0"/>
        <pt x="584" y="389" on="0"/>
        <pt x="567" y="480" on="0"/>
        <pt x="542" y="520" on="1"/>
        <pt x="494" y="600" on="0"/>
        <pt x="342" y="600" on="1"/>
        <pt x="223" y="600" on="0"/>
        <pt x="164" y="549" on="1"/>
        <pt x="114" y="505" on="0"/>
        <pt x="102" y="412" on="1"/>
        <pt x="97" y="374" on="0"/>
        <pt x="97" y="254" on="0"/>
        <pt x="116" y="162" on="0"/>
        <pt x="141" y="122" on="1"/>
        <pt x="191" y="44" on="0"/>
        <pt x="342" y="44" on="1"/>
        <pt x="488" y="44" on="0"/>
        <pt x="540" y="124" on="1"/>
      </contour>
      <contour>
        <pt x="226" y="374" on="1"/>
        <pt x="226" y="436" on="0"/>
        <pt x="285" y="501" on="0"/>
        <pt x="356" y="501" on="1"/>
        <pt x="398" y="501" on="0"/>
        <pt x="429" y="494" on="1"/>
        <pt x="429" y="447" on="1"/>
        <pt x="399" y="458" on="0"/>
        <pt x="303" y="458" on="0"/>
        <pt x="273" y="417" on="0"/>
        <pt x="273" y="374" on="1"/>
        <pt x="273" y="269" on="1"/>
        <pt x="273" y="229" on="0"/>
        <pt x="283" y="214" on="1"/>
        <pt x="301" y="186" on="0"/>
        <pt x="400" y="186" on="0"/>
        <pt x="430" y="197" on="1"/>
        <pt x="430" y="149" on="1"/>
        <pt x="392" y="142" on="0"/>
        <pt x="356" y="142" on="1"/>
        <pt x="285" y="142" on="0"/>
        <pt x="226" y="207" on="0"/>
        <pt x="226" y="269" on="1"/>
      </contour>
      <contour>
        <pt x="77" y="136" on="0"/>
        <pt x="50" y="247" on="0"/>
        <pt x="50" y="396" on="0"/>
        <pt x="76" y="506" on="0"/>
        <pt x="107" y="552" on="1"/>
        <pt x="170" y="644" on="0"/>
        <pt x="342" y="644" on="1"/>
        <pt x="540" y="644" on="0"/>
        <pt x="598" y="516" on="1"/>
        <pt x="631" y="443" on="0"/>
        <pt x="631" y="321" on="1"/>
        <pt x="631" y="86" on="0"/>
        <pt x="482" y="24" on="1"/>
        <pt x="424" y="0" on="0"/>
        <pt x="258" y="0" on="0"/>
        <pt x="141" y="47" on="0"/>
      </contour>
    </TTGlyph>
    <TTGlyph name="currency" xMin="53" yMin="148" xMax="407" yMax="518">
      <contour>
        <pt x="375" y="368" on="1"/>
        <pt x="375" y="298" on="1"/>
        <pt x="375" y="256" on="0"/>
        <pt x="363" y="226" on="1"/>
        <pt x="407" y="183" on="1"/>
        <pt x="372" y="148" on="1"/>
        <pt x="334" y="185" on="1"/>
        <pt x="298" y="155" on="0"/>
        <pt x="162" y="155" on="0"/>
        <pt x="126" y="185" on="1"/>
        <pt x="88" y="148" on="1"/>
        <pt x="53" y="183" on="1"/>
        <pt x="97" y="226" on="1"/>
        <pt x="85" y="256" on="0"/>
        <pt x="85" y="298" on="1"/>
        <pt x="85" y="368" on="1"/>
        <pt x="85" y="410" on="0"/>
        <pt x="97" y="440" on="1"/>
        <pt x="53" y="483" on="1"/>
        <pt x="88" y="518" on="1"/>
        <pt x="126" y="481" on="1"/>
        <pt x="162" y="511" on="0"/>
        <pt x="298" y="511" on="0"/>
        <pt x="334" y="481" on="1"/>
        <pt x="372" y="518" on="1"/>
        <pt x="407" y="483" on="1"/>
        <pt x="363" y="440" on="1"/>
        <pt x="375" y="410" on="0"/>
      </contour>
      <contour>
        <pt x="134" y="368" on="1"/>
        <pt x="134" y="298" on="1"/>
        <pt x="134" y="246" on="0"/>
        <pt x="174" y="199" on="0"/>
        <pt x="286" y="199" on="0"/>
        <pt x="326" y="246" on="0"/>
        <pt x="326" y="298" on="1"/>
        <pt x="326" y="368" on="1"/>
        <pt x="326" y="420" on="0"/>
        <pt x="286" y="467" on="0"/>
        <pt x="174" y="467" on="0"/>
        <pt x="134" y="420" on="0"/>
      </contour>
    </TTGlyph>
    <TTGlyph name="d" xMin="65" yMin="-3" xMax="368" yMax="713">
      <contour>
        <pt x="318" y="517" on="1"/>
        <pt x="223" y="517" on="1"/>
        <pt x="115" y="517" on="0"/>
        <pt x="115" y="421" on="1"/>
        <pt x="115" y="141" on="1"/>
        <pt x="115" y="42" on="0"/>
        <pt x="210" y="42" on="1"/>
        <pt x="278" y="42" on="0"/>
        <pt x="318" y="82" on="1"/>
      </contour>
      <contour>
        <pt x="318" y="713" on="1"/>
        <pt x="368" y="713" on="1"/>
        <pt x="368" y="0" on="1"/>
        <pt x="319" y="0" on="1"/>
        <pt x="319" y="31" on="1"/>
        <pt x="275" y="-3" on="0"/>
        <pt x="138" y="-3" on="0"/>
        <pt x="65" y="72" on="0"/>
        <pt x="65" y="142" on="1"/>
        <pt x="65" y="421" on="1"/>
        <pt x="65" y="489" on="0"/>
        <pt x="147" y="563" on="0"/>
        <pt x="211" y="563" on="1"/>
        <pt x="318" y="563" on="1"/>
      </contour>
    </TTGlyph>
    <TTGlyph name="dagger" xMin="56" yMin="-29" xMax="287" yMax="764">
      <contour>
        <pt x="150" y="764" on="1"/>
        <pt x="193" y="764" on="1"/>
        <pt x="189" y="640" on="1"/>
        <pt x="235" y="644" on="0"/>
        <pt x="287" y="644" on="1"/>
        <pt x="287" y="604" on="1"/>
        <pt x="189" y="608" on="1"/>
        <pt x="193" y="544" on="0"/>
        <pt x="193" y="485" on="1"/>
        <pt x="193" y="-29" on="1"/>
        <pt x="150" y="-29" on="1"/>
        <pt x="150" y="485" on="1"/>
        <pt x="154" y="608" on="1"/>
        <pt x="114" y="604" on="0"/>
        <pt x="56" y="604" on="1"/>
        <pt x="56" y="644" on="1"/>
        <pt x="154" y="640" on="1"/>
        <pt x="150" y="706" on="0"/>
      </contour>
    </TTGlyph>
    <TTGlyph name="daggerdbl" xMin="56" yMin="-29" xMax="287" yMax="764">
      <contour>
        <pt x="150" y="764" on="1"/>
        <pt x="193" y="764" on="1"/>
        <pt x="189" y="640" on="1"/>
        <pt x="229" y="644" on="0"/>
        <pt x="287" y="644" on="1"/>
        <pt x="287" y="604" on="1"/>
        <pt x="189" y="608" on="1"/>
        <pt x="192" y="367" on="0"/>
        <pt x="189" y="127" on="1"/>
        <pt x="229" y="131" on="0"/>
        <pt x="287" y="131" on="1"/>
        <pt x="287" y="91" on="1"/>
        <pt x="189" y="95" on="1"/>
        <pt x="193" y="44" on="0"/>
        <pt x="193" y="-29" on="1"/>
        <pt x="150" y="-29" on="1"/>
        <pt x="154" y="95" on="1"/>
        <pt x="114" y="91" on="0"/>
        <pt x="56" y="91" on="1"/>
        <pt x="56" y="131" on="1"/>
        <pt x="154" y="127" on="1"/>
        <pt x="151" y="367" on="0"/>
        <pt x="154" y="608" on="1"/>
        <pt x="114" y="604" on="0"/>
        <pt x="56" y="604" on="1"/>
        <pt x="56" y="644" on="1"/>
        <pt x="154" y="640" on="1"/>
        <pt x="150" y="706" on="0"/>
      </contour>
    </TTGlyph>
    <TTGlyph name="dcaron" xMin="65" yMin="-3" xMax="484" yMax="713">
      <contour>
        <pt x="459" y="711" on="1"/>
        <pt x="484" y="711" on="0"/>
        <pt x="484" y="666" on="0"/>
        <pt x="440" y="598" on="1"/>
        <pt x="409" y="598" on="1"/>
        <pt x="436" y="711" on="1"/>
      </contour>
      <contour>
        <pt x="318" y="517" on="1"/>
        <pt x="223" y="517" on="1"/>
        <pt x="115" y="517" on="0"/>
        <pt x="115" y="421" on="1"/>
        <pt x="115" y="141" on="1"/>
        <pt x="115" y="42" on="0"/>
        <pt x="210" y="42" on="1"/>
        <pt x="278" y="42" on="0"/>
        <pt x="318" y="82" on="1"/>
      </contour>
      <contour>
        <pt x="318" y="713" on="1"/>
        <pt x="368" y="713" on="1"/>
        <pt x="368" y="0" on="1"/>
        <pt x="319" y="0" on="1"/>
        <pt x="319" y="31" on="1"/>
        <pt x="275" y="-3" on="0"/>
        <pt x="138" y="-3" on="0"/>
        <pt x="65" y="72" on="0"/>
        <pt x="65" y="142" on="1"/>
        <pt x="65" y="421" on="1"/>
        <pt x="65" y="489" on="0"/>
        <pt x="147" y="563" on="0"/>
        <pt x="211" y="563" on="1"/>
        <pt x="318" y="563" on="1"/>
      </contour>
    </TTGlyph>
    <TTGlyph name="dcroat" xMin="65" yMin="-3" xMax="408" yMax="713">
      <contour>
        <pt x="408" y="666" on="1"/>
        <pt x="408" y="625" on="1"/>
        <pt x="368" y="625" on="1"/>
        <pt x="368" y="0" on="1"/>
        <pt x="319" y="0" on="1"/>
        <pt x="319" y="31" on="1"/>
        <pt x="275" y="-3" on="0"/>
        <pt x="138" y="-3" on="0"/>
        <pt x="65" y="72" on="0"/>
        <pt x="65" y="142" on="1"/>
        <pt x="65" y="421" on="1"/>
        <pt x="65" y="489" on="0"/>
        <pt x="147" y="563" on="0"/>
        <pt x="211" y="563" on="1"/>
        <pt x="318" y="563" on="1"/>
        <pt x="318" y="625" on="1"/>
        <pt x="195" y="625" on="1"/>
        <pt x="195" y="666" on="1"/>
        <pt x="318" y="666" on="1"/>
        <pt x="318" y="713" on="1"/>
        <pt x="368" y="713" on="1"/>
        <pt x="368" y="666" on="1"/>
      </contour>
      <contour>
        <pt x="318" y="517" on="1"/>
        <pt x="223" y="517" on="1"/>
        <pt x="115" y="517" on="0"/>
        <pt x="115" y="421" on="1"/>
        <pt x="115" y="141" on="1"/>
        <pt x="115" y="42" on="0"/>
        <pt x="210" y="42" on="1"/>
        <pt x="278" y="42" on="0"/>
        <pt x="318" y="82" on="1"/>
      </contour>
    </TTGlyph>
    <TTGlyph name="degree" xMin="55" yMin="510" xMax="304" yMax="779">
      <contour>
        <pt x="264" y="598" on="0"/>
        <pt x="264" y="688" on="0"/>
        <pt x="229" y="738" on="0"/>
        <pt x="129" y="738" on="0"/>
        <pt x="95" y="689" on="0"/>
        <pt x="95" y="597" on="0"/>
        <pt x="129" y="549" on="0"/>
        <pt x="229" y="549" on="0"/>
      </contour>
      <contour>
        <pt x="55" y="510" on="0"/>
        <pt x="55" y="779" on="0"/>
        <pt x="304" y="779" on="0"/>
        <pt x="304" y="510" on="0"/>
      </contour>
    </TTGlyph>
    <TTGlyph name="dieresis" xMin="79" yMin="626" xMax="270" yMax="692">
      <contour>
        <pt x="204" y="626" on="0"/>
        <pt x="204" y="692" on="0"/>
        <pt x="270" y="692" on="0"/>
        <pt x="270" y="626" on="0"/>
      </contour>
      <contour>
        <pt x="79" y="626" on="0"/>
        <pt x="79" y="692" on="0"/>
        <pt x="145" y="692" on="0"/>
        <pt x="145" y="626" on="0"/>
      </contour>
    </TTGlyph>
    <TTGlyph name="divide" xMin="40" yMin="115" xMax="381" yMax="524">
      <contour>
        <pt x="181" y="458" on="0"/>
        <pt x="181" y="524" on="0"/>
        <pt x="247" y="524" on="0"/>
        <pt x="247" y="458" on="0"/>
      </contour>
      <contour>
        <pt x="181" y="115" on="0"/>
        <pt x="181" y="181" on="0"/>
        <pt x="247" y="181" on="0"/>
        <pt x="247" y="115" on="0"/>
      </contour>
      <contour>
        <pt x="40" y="341" on="1"/>
        <pt x="381" y="341" on="1"/>
        <pt x="381" y="301" on="1"/>
        <pt x="40" y="301" on="1"/>
      </contour>
    </TTGlyph>
    <TTGlyph name="dollar" xMin="30" yMin="-80" xMax="339" yMax="733">
      <contour>
        <pt x="339" y="186" on="1"/>
        <pt x="339" y="134" on="1"/>
        <pt x="339" y="10" on="0"/>
        <pt x="198" y="-3" on="1"/>
        <pt x="198" y="-80" on="1"/>
        <pt x="153" y="-80" on="1"/>
        <pt x="153" y="-5" on="1"/>
        <pt x="85" y="-4" on="0"/>
        <pt x="34" y="14" on="1"/>
        <pt x="34" y="62" on="1"/>
        <pt x="93" y="41" on="0"/>
        <pt x="163" y="41" on="1"/>
        <pt x="289" y="41" on="0"/>
        <pt x="289" y="134" on="1"/>
        <pt x="289" y="183" on="1"/>
        <pt x="289" y="218" on="0"/>
        <pt x="264" y="260" on="0"/>
        <pt x="231" y="278" on="1"/>
        <pt x="114" y="342" on="1"/>
        <pt x="30" y="388" on="0"/>
        <pt x="30" y="479" on="1"/>
        <pt x="30" y="537" on="1"/>
        <pt x="30" y="594" on="0"/>
        <pt x="97" y="663" on="0"/>
        <pt x="163" y="670" on="1"/>
        <pt x="163" y="733" on="1"/>
        <pt x="208" y="733" on="1"/>
        <pt x="208" y="671" on="1"/>
        <pt x="267" y="670" on="0"/>
        <pt x="316" y="656" on="1"/>
        <pt x="316" y="608" on="1"/>
        <pt x="268" y="625" on="0"/>
        <pt x="192" y="625" on="1"/>
        <pt x="80" y="625" on="0"/>
        <pt x="80" y="539" on="1"/>
        <pt x="80" y="482" on="1"/>
        <pt x="80" y="416" on="0"/>
        <pt x="141" y="383" on="1"/>
        <pt x="258" y="318" on="1"/>
        <pt x="339" y="274" on="0"/>
      </contour>
    </TTGlyph>
    <TTGlyph name="dotaccent" xMin="140" yMin="655" xMax="206" yMax="721">
      <contour>
        <pt x="140" y="655" on="0"/>
        <pt x="140" y="721" on="0"/>
        <pt x="206" y="721" on="0"/>
        <pt x="206" y="655" on="0"/>
      </contour>
    </TTGlyph>
    <TTGlyph name="dotlessi" xMin="75" yMin="0" xMax="125" yMax="563">
      <contour>
        <pt x="75" y="563" on="1"/>
        <pt x="125" y="563" on="1"/>
        <pt x="125" y="0" on="1"/>
        <pt x="75" y="0" on="1"/>
      </contour>
    </TTGlyph>
    <TTGlyph name="dvDDH_DDHA" xMin="-20" yMin="-266" xMax="420" yMax="644">
      <contour>
        <pt x="236" y="-51" on="1"/>
        <pt x="209" y="-51" on="0"/>
        <pt x="191" y="-59" on="1"/>
        <pt x="191" y="-17" on="1"/>
        <pt x="211" y="-9" on="0"/>
        <pt x="240" y="-9" on="1"/>
        <pt x="289" y="-9" on="0"/>
        <pt x="350" y="-69" on="0"/>
        <pt x="350" y="-125" on="1"/>
        <pt x="350" y="-139" on="1"/>
        <pt x="350" y="-199" on="0"/>
        <pt x="278" y="-266" on="0"/>
        <pt x="132" y="-266" on="0"/>
        <pt x="60" y="-199" on="0"/>
        <pt x="60" y="-139" on="1"/>
        <pt x="60" y="17" on="1"/>
        <pt x="60" y="86" on="0"/>
        <pt x="110" y="115" on="1"/>
        <pt x="60" y="146" on="0"/>
        <pt x="60" y="219" on="1"/>
        <pt x="60" y="387" on="1"/>
        <pt x="60" y="504" on="0"/>
        <pt x="200" y="504" on="1"/>
        <pt x="270" y="504" on="1"/>
        <pt x="270" y="604" on="1"/>
        <pt x="-20" y="604" on="1"/>
        <pt x="-20" y="644" on="1"/>
        <pt x="420" y="644" on="1"/>
        <pt x="420" y="604" on="1"/>
        <pt x="315" y="604" on="1"/>
        <pt x="315" y="462" on="1"/>
        <pt x="200" y="462" on="1"/>
        <pt x="147" y="462" on="0"/>
        <pt x="105" y="424" on="0"/>
        <pt x="105" y="387" on="1"/>
        <pt x="105" y="219" on="1"/>
        <pt x="105" y="179" on="0"/>
        <pt x="149" y="134" on="0"/>
        <pt x="261" y="134" on="0"/>
        <pt x="305" y="179" on="0"/>
        <pt x="305" y="219" on="1"/>
        <pt x="305" y="235" on="1"/>
        <pt x="305" y="309" on="0"/>
        <pt x="236" y="309" on="1"/>
        <pt x="209" y="309" on="0"/>
        <pt x="191" y="301" on="1"/>
        <pt x="191" y="343" on="1"/>
        <pt x="211" y="351" on="0"/>
        <pt x="240" y="351" on="1"/>
        <pt x="289" y="351" on="0"/>
        <pt x="350" y="291" on="0"/>
        <pt x="350" y="235" on="1"/>
        <pt x="350" y="219" on="1"/>
        <pt x="350" y="159" on="0"/>
        <pt x="278" y="92" on="0"/>
        <pt x="205" y="92" on="1"/>
        <pt x="200" y="92" on="1"/>
        <pt x="147" y="92" on="0"/>
        <pt x="105" y="54" on="0"/>
        <pt x="105" y="17" on="1"/>
        <pt x="105" y="-139" on="1"/>
        <pt x="105" y="-179" on="0"/>
        <pt x="149" y="-224" on="0"/>
        <pt x="261" y="-224" on="0"/>
        <pt x="305" y="-179" on="0"/>
        <pt x="305" y="-139" on="1"/>
        <pt x="305" y="-125" on="1"/>
        <pt x="305" y="-51" on="0"/>
      </contour>
    </TTGlyph>
    <TTGlyph name="dvDD_GA" xMin="-20" yMin="-173" xMax="432" yMax="644">
      <contour>
        <pt x="328" y="463" on="1"/>
        <pt x="185" y="463" on="1"/>
        <pt x="137" y="463" on="0"/>
        <pt x="100" y="434" on="0"/>
        <pt x="100" y="400" on="1"/>
        <pt x="100" y="396" on="1"/>
        <pt x="100" y="361" on="0"/>
        <pt x="137" y="332" on="0"/>
        <pt x="185" y="332" on="1"/>
        <pt x="227" y="332" on="1"/>
        <pt x="357" y="332" on="0"/>
        <pt x="357" y="226" on="1"/>
        <pt x="357" y="208" on="1"/>
        <pt x="357" y="138" on="0"/>
        <pt x="312" y="113" on="1"/>
        <pt x="312" y="-173" on="1"/>
        <pt x="267" y="-173" on="1"/>
        <pt x="267" y="97" on="1"/>
        <pt x="237" y="92" on="0"/>
        <pt x="179" y="92" on="0"/>
        <pt x="166" y="93" on="1"/>
        <pt x="166" y="43" on="1"/>
        <pt x="166" y="-13" on="0"/>
        <pt x="115" y="-73" on="0"/>
        <pt x="54" y="-73" on="1"/>
        <pt x="19" y="-68" on="1"/>
        <pt x="19" y="-27" on="1"/>
        <pt x="35" y="-31" on="0"/>
        <pt x="53" y="-31" on="1"/>
        <pt x="97" y="-31" on="0"/>
        <pt x="121" y="5" on="0"/>
        <pt x="121" y="43" on="1"/>
        <pt x="121" y="97" on="1"/>
        <pt x="73" y="103" on="0"/>
        <pt x="51" y="107" on="1"/>
        <pt x="51" y="149" on="1"/>
        <pt x="141" y="134" on="0"/>
        <pt x="268" y="134" on="0"/>
        <pt x="312" y="166" on="0"/>
        <pt x="312" y="208" on="1"/>
        <pt x="312" y="226" on="1"/>
        <pt x="312" y="261" on="0"/>
        <pt x="275" y="290" on="0"/>
        <pt x="227" y="290" on="1"/>
        <pt x="185" y="290" on="1"/>
        <pt x="55" y="290" on="0"/>
        <pt x="55" y="396" on="1"/>
        <pt x="55" y="400" on="1"/>
        <pt x="55" y="455" on="0"/>
        <pt x="120" y="505" on="0"/>
        <pt x="185" y="505" on="1"/>
        <pt x="283" y="505" on="1"/>
        <pt x="283" y="604" on="1"/>
        <pt x="-20" y="604" on="1"/>
        <pt x="-20" y="644" on="1"/>
        <pt x="432" y="644" on="1"/>
        <pt x="432" y="604" on="1"/>
        <pt x="328" y="604" on="1"/>
      </contour>
    </TTGlyph>
    <TTGlyph name="dvMatraI.a33" xMin="-20" yMin="0" xMax="1275" yMax="873">
      <contour>
        <pt x="80" y="644" on="1"/>
        <pt x="80" y="677" on="1"/>
        <pt x="80" y="764" on="0"/>
        <pt x="134" y="806" on="1"/>
        <pt x="190" y="849" on="0"/>
        <pt x="279" y="861" on="1"/>
        <pt x="365" y="873" on="0"/>
        <pt x="491" y="873" on="1"/>
        <pt x="865" y="873" on="0"/>
        <pt x="1275" y="813" on="1"/>
        <pt x="1275" y="771" on="1"/>
        <pt x="851" y="831" on="0"/>
        <pt x="490" y="831" on="1"/>
        <pt x="267" y="831" on="0"/>
        <pt x="192" y="790" on="1"/>
        <pt x="125" y="753" on="0"/>
        <pt x="125" y="677" on="1"/>
        <pt x="125" y="644" on="1"/>
        <pt x="225" y="644" on="1"/>
        <pt x="225" y="604" on="1"/>
        <pt x="125" y="604" on="1"/>
        <pt x="125" y="0" on="1"/>
        <pt x="80" y="0" on="1"/>
        <pt x="80" y="604" on="1"/>
        <pt x="-20" y="604" on="1"/>
        <pt x="-20" y="644" on="1"/>
      </contour>
    </TTGlyph>
    <TTGlyph name="dvMatraI.a34" xMin="-20" yMin="0" xMax="1299" yMax="873">
      <contour>
        <pt x="80" y="644" on="1"/>
        <pt x="80" y="677" on="1"/>
        <pt x="80" y="765" on="0"/>
        <pt x="136" y="806" on="1"/>
        <pt x="196" y="850" on="0"/>
        <pt x="283" y="862" on="1"/>
        <pt x="373" y="873" on="0"/>
        <pt x="498" y="873" on="1"/>
        <pt x="868" y="873" on="0"/>
        <pt x="1299" y="813" on="1"/>
        <pt x="1299" y="771" on="1"/>
        <pt x="840" y="831" on="0"/>
        <pt x="497" y="831" on="1"/>
        <pt x="354" y="831" on="0"/>
        <pt x="224" y="806" on="0"/>
        <pt x="193" y="790" on="1"/>
        <pt x="125" y="753" on="0"/>
        <pt x="125" y="677" on="1"/>
        <pt x="125" y="644" on="1"/>
        <pt x="225" y="644" on="1"/>
        <pt x="225" y="604" on="1"/>
        <pt x="125" y="604" on="1"/>
        <pt x="125" y="0" on="1"/>
        <pt x="80" y="0" on="1"/>
        <pt x="80" y="604" on="1"/>
        <pt x="-20" y="604" on="1"/>
        <pt x="-20" y="644" on="1"/>
      </contour>
    </TTGlyph>
    <TTGlyph name="dvMatraI.a35" xMin="-20" yMin="0" xMax="1323" yMax="873">
      <contour>
        <pt x="80" y="644" on="1"/>
        <pt x="80" y="677" on="1"/>
        <pt x="80" y="729" on="0"/>
        <pt x="123" y="802" on="0"/>
        <pt x="192" y="843" on="0"/>
        <pt x="250" y="854" on="1"/>
        <pt x="345" y="873" on="0"/>
        <pt x="505" y="873" on="1"/>
        <pt x="906" y="873" on="0"/>
        <pt x="1323" y="813" on="1"/>
        <pt x="1323" y="771" on="1"/>
        <pt x="852" y="831" on="0"/>
        <pt x="504" y="831" on="1"/>
        <pt x="272" y="831" on="0"/>
        <pt x="194" y="790" on="1"/>
        <pt x="125" y="753" on="0"/>
        <pt x="125" y="677" on="1"/>
        <pt x="125" y="644" on="1"/>
        <pt x="225" y="644" on="1"/>
        <pt x="225" y="604" on="1"/>
        <pt x="125" y="604" on="1"/>
        <pt x="125" y="0" on="1"/>
        <pt x="80" y="0" on="1"/>
        <pt x="80" y="604" on="1"/>
        <pt x="-20" y="604" on="1"/>
        <pt x="-20" y="644" on="1"/>
      </contour>
    </TTGlyph>
    <TTGlyph name="dvMatraI.a36" xMin="-20" yMin="0" xMax="1347" yMax="873">
      <contour>
        <pt x="80" y="644" on="1"/>
        <pt x="80" y="676" on="1"/>
        <pt x="80" y="764" on="0"/>
        <pt x="137" y="806" on="1"/>
        <pt x="196" y="850" on="0"/>
        <pt x="289" y="862" on="1"/>
        <pt x="383" y="873" on="0"/>
        <pt x="511" y="873" on="1"/>
        <pt x="927" y="873" on="0"/>
        <pt x="1347" y="813" on="1"/>
        <pt x="1347" y="771" on="1"/>
        <pt x="1211" y="790" on="0"/>
        <pt x="731" y="831" on="0"/>
        <pt x="510" y="831" on="1"/>
        <pt x="275" y="831" on="0"/>
        <pt x="196" y="790" on="1"/>
        <pt x="125" y="753" on="0"/>
        <pt x="125" y="676" on="1"/>
        <pt x="125" y="644" on="1"/>
        <pt x="225" y="644" on="1"/>
        <pt x="225" y="604" on="1"/>
        <pt x="125" y="604" on="1"/>
        <pt x="125" y="0" on="1"/>
        <pt x="80" y="0" on="1"/>
        <pt x="80" y="604" on="1"/>
        <pt x="-20" y="604" on="1"/>
        <pt x="-20" y="644" on="1"/>
      </contour>
    </TTGlyph>
    <TTGlyph name="dvMatraI.a37" xMin="-20" yMin="0" xMax="1371" yMax="873">
      <contour>
        <pt x="80" y="644" on="1"/>
        <pt x="80" y="676" on="1"/>
        <pt x="80" y="765" on="0"/>
        <pt x="138" y="806" on="1"/>
        <pt x="199" y="850" on="0"/>
        <pt x="292" y="862" on="1"/>
        <pt x="388" y="873" on="0"/>
        <pt x="518" y="873" on="1"/>
        <pt x="983" y="873" on="0"/>
        <pt x="1371" y="813" on="1"/>
        <pt x="1371" y="771" on="1"/>
        <pt x="1231" y="790" on="0"/>
        <pt x="742" y="831" on="0"/>
        <pt x="517" y="831" on="1"/>
        <pt x="276" y="831" on="0"/>
        <pt x="197" y="790" on="1"/>
        <pt x="165" y="774" on="0"/>
        <pt x="125" y="716" on="0"/>
        <pt x="125" y="676" on="1"/>
        <pt x="125" y="644" on="1"/>
        <pt x="225" y="644" on="1"/>
        <pt x="225" y="604" on="1"/>
        <pt x="125" y="604" on="1"/>
        <pt x="125" y="0" on="1"/>
        <pt x="80" y="0" on="1"/>
        <pt x="80" y="604" on="1"/>
        <pt x="-20" y="604" on="1"/>
        <pt x="-20" y="644" on="1"/>
      </contour>
    </TTGlyph>
    <TTGlyph name="dvMatraI.a38" xMin="-20" yMin="0" xMax="1395" yMax="873">
      <contour>
        <pt x="1395" y="771" on="1"/>
        <pt x="855" y="831" on="0"/>
        <pt x="523" y="831" on="1"/>
        <pt x="369" y="831" on="0"/>
        <pt x="231" y="807" on="0"/>
        <pt x="166" y="774" on="0"/>
        <pt x="125" y="716" on="0"/>
        <pt x="125" y="675" on="1"/>
        <pt x="125" y="644" on="1"/>
        <pt x="225" y="644" on="1"/>
        <pt x="225" y="604" on="1"/>
        <pt x="125" y="604" on="1"/>
        <pt x="125" y="0" on="1"/>
        <pt x="80" y="0" on="1"/>
        <pt x="80" y="604" on="1"/>
        <pt x="-20" y="604" on="1"/>
        <pt x="-20" y="644" on="1"/>
        <pt x="80" y="644" on="1"/>
        <pt x="80" y="675" on="1"/>
        <pt x="80" y="785" on="0"/>
        <pt x="174" y="829" on="1"/>
        <pt x="236" y="857" on="0"/>
        <pt x="305" y="864" on="1"/>
        <pt x="407" y="873" on="0"/>
        <pt x="524" y="873" on="1"/>
        <pt x="938" y="873" on="0"/>
        <pt x="1395" y="813" on="1"/>
      </contour>
    </TTGlyph>
    <TTGlyph name="dvMatraI.a39" xMin="-20" yMin="0" xMax="1419" yMax="873">
      <contour>
        <pt x="80" y="644" on="1"/>
        <pt x="80" y="675" on="1"/>
        <pt x="80" y="766" on="0"/>
        <pt x="140" y="807" on="1"/>
        <pt x="202" y="850" on="0"/>
        <pt x="298" y="862" on="1"/>
        <pt x="387" y="873" on="0"/>
        <pt x="531" y="873" on="1"/>
        <pt x="946" y="873" on="0"/>
        <pt x="1419" y="813" on="1"/>
        <pt x="1419" y="771" on="1"/>
        <pt x="1265" y="791" on="0"/>
        <pt x="764" y="831" on="0"/>
        <pt x="530" y="831" on="1"/>
        <pt x="315" y="831" on="0"/>
        <pt x="240" y="806" on="1"/>
        <pt x="160" y="779" on="0"/>
        <pt x="138" y="735" on="1"/>
        <pt x="125" y="709" on="0"/>
        <pt x="125" y="675" on="1"/>
        <pt x="125" y="644" on="1"/>
        <pt x="225" y="644" on="1"/>
        <pt x="225" y="604" on="1"/>
        <pt x="125" y="604" on="1"/>
        <pt x="125" y="0" on="1"/>
        <pt x="80" y="0" on="1"/>
        <pt x="80" y="604" on="1"/>
        <pt x="-20" y="604" on="1"/>
        <pt x="-20" y="644" on="1"/>
      </contour>
    </TTGlyph>
    <TTGlyph name="dvMatraI.a40" xMin="-20" yMin="0" xMax="1443" yMax="873">
      <contour>
        <pt x="80" y="644" on="1"/>
        <pt x="80" y="675" on="1"/>
        <pt x="80" y="766" on="0"/>
        <pt x="140" y="808" on="1"/>
        <pt x="205" y="851" on="0"/>
        <pt x="302" y="862" on="1"/>
        <pt x="394" y="873" on="0"/>
        <pt x="538" y="873" on="1"/>
        <pt x="972" y="873" on="0"/>
        <pt x="1443" y="813" on="1"/>
        <pt x="1443" y="771" on="1"/>
        <pt x="955" y="831" on="0"/>
        <pt x="537" y="831" on="1"/>
        <pt x="318" y="831" on="0"/>
        <pt x="242" y="806" on="1"/>
        <pt x="161" y="780" on="0"/>
        <pt x="138" y="736" on="1"/>
        <pt x="125" y="710" on="0"/>
        <pt x="125" y="675" on="1"/>
        <pt x="125" y="644" on="1"/>
        <pt x="225" y="644" on="1"/>
        <pt x="225" y="604" on="1"/>
        <pt x="125" y="604" on="1"/>
        <pt x="125" y="0" on="1"/>
        <pt x="80" y="0" on="1"/>
        <pt x="80" y="604" on="1"/>
        <pt x="-20" y="604" on="1"/>
        <pt x="-20" y="644" on="1"/>
      </contour>
    </TTGlyph>
    <TTGlyph name="dvMatraI.a41" xMin="-20" yMin="0" xMax="1467" yMax="873">
      <contour>
        <pt x="80" y="644" on="1"/>
        <pt x="80" y="674" on="1"/>
        <pt x="80" y="788" on="0"/>
        <pt x="178" y="830" on="1"/>
        <pt x="246" y="858" on="0"/>
        <pt x="316" y="864" on="1"/>
        <pt x="422" y="873" on="0"/>
        <pt x="648" y="873" on="0"/>
        <pt x="866" y="866" on="0"/>
        <pt x="1018" y="857" on="0"/>
        <pt x="1215" y="840" on="0"/>
        <pt x="1297" y="832" on="0"/>
        <pt x="1464" y="813" on="0"/>
        <pt x="1467" y="813" on="1"/>
        <pt x="1467" y="771" on="1"/>
        <pt x="897" y="832" on="0"/>
        <pt x="543" y="831" on="1"/>
        <pt x="319" y="831" on="0"/>
        <pt x="244" y="806" on="1"/>
        <pt x="160" y="778" on="0"/>
        <pt x="138" y="736" on="1"/>
        <pt x="125" y="709" on="0"/>
        <pt x="125" y="674" on="1"/>
        <pt x="125" y="644" on="1"/>
        <pt x="225" y="644" on="1"/>
        <pt x="225" y="604" on="1"/>
        <pt x="125" y="604" on="1"/>
        <pt x="125" y="0" on="1"/>
        <pt x="80" y="0" on="1"/>
        <pt x="80" y="604" on="1"/>
        <pt x="-20" y="604" on="1"/>
        <pt x="-20" y="644" on="1"/>
      </contour>
    </TTGlyph>
    <TTGlyph name="dvMatraI.a42" xMin="-20" yMin="0" xMax="1491" yMax="873">
      <contour>
        <pt x="80" y="644" on="1"/>
        <pt x="80" y="674" on="1"/>
        <pt x="80" y="766" on="0"/>
        <pt x="142" y="808" on="1"/>
        <pt x="175" y="829" on="0"/>
        <pt x="249" y="856" on="0"/>
        <pt x="308" y="862" on="1"/>
        <pt x="403" y="873" on="0"/>
        <pt x="551" y="873" on="1"/>
        <pt x="994" y="873" on="0"/>
        <pt x="1491" y="813" on="1"/>
        <pt x="1491" y="771" on="1"/>
        <pt x="981" y="831" on="0"/>
        <pt x="550" y="831" on="1"/>
        <pt x="325" y="831" on="0"/>
        <pt x="246" y="806" on="1"/>
        <pt x="163" y="781" on="0"/>
        <pt x="139" y="736" on="1"/>
        <pt x="125" y="709" on="0"/>
        <pt x="125" y="674" on="1"/>
        <pt x="125" y="644" on="1"/>
        <pt x="225" y="644" on="1"/>
        <pt x="225" y="604" on="1"/>
        <pt x="125" y="604" on="1"/>
        <pt x="125" y="0" on="1"/>
        <pt x="80" y="0" on="1"/>
        <pt x="80" y="604" on="1"/>
        <pt x="-20" y="604" on="1"/>
        <pt x="-20" y="644" on="1"/>
      </contour>
    </TTGlyph>
    <TTGlyph name="dvMatraI.a43" xMin="-20" yMin="0" xMax="1515" yMax="873">
      <contour>
        <pt x="80" y="644" on="1"/>
        <pt x="80" y="674" on="1"/>
        <pt x="80" y="787" on="0"/>
        <pt x="182" y="830" on="1"/>
        <pt x="247" y="858" on="0"/>
        <pt x="321" y="864" on="1"/>
        <pt x="432" y="873" on="0"/>
        <pt x="558" y="873" on="1"/>
        <pt x="1015" y="873" on="0"/>
        <pt x="1515" y="813" on="1"/>
        <pt x="1515" y="771" on="1"/>
        <pt x="975" y="831" on="0"/>
        <pt x="557" y="831" on="1"/>
        <pt x="328" y="831" on="0"/>
        <pt x="248" y="806" on="1"/>
        <pt x="163" y="781" on="0"/>
        <pt x="139" y="736" on="1"/>
        <pt x="125" y="709" on="0"/>
        <pt x="125" y="674" on="1"/>
        <pt x="125" y="644" on="1"/>
        <pt x="225" y="644" on="1"/>
        <pt x="225" y="604" on="1"/>
        <pt x="125" y="604" on="1"/>
        <pt x="125" y="0" on="1"/>
        <pt x="80" y="0" on="1"/>
        <pt x="80" y="604" on="1"/>
        <pt x="-20" y="604" on="1"/>
        <pt x="-20" y="644" on="1"/>
      </contour>
    </TTGlyph>
    <TTGlyph name="dvMatraI.a44" xMin="-20" yMin="0" xMax="1540" yMax="873">
      <contour>
        <pt x="80" y="644" on="1"/>
        <pt x="80" y="673" on="1"/>
        <pt x="80" y="767" on="0"/>
        <pt x="144" y="808" on="1"/>
        <pt x="178" y="830" on="0"/>
        <pt x="254" y="856" on="0"/>
        <pt x="316" y="862" on="1"/>
        <pt x="415" y="873" on="0"/>
        <pt x="565" y="873" on="1"/>
        <pt x="1063" y="873" on="0"/>
        <pt x="1540" y="813" on="1"/>
        <pt x="1540" y="771" on="1"/>
        <pt x="1013" y="831" on="0"/>
        <pt x="564" y="831" on="1"/>
        <pt x="366" y="831" on="0"/>
        <pt x="286" y="816" on="1"/>
        <pt x="204" y="799" on="0"/>
        <pt x="168" y="768" on="1"/>
        <pt x="125" y="731" on="0"/>
        <pt x="125" y="673" on="1"/>
        <pt x="125" y="644" on="1"/>
        <pt x="225" y="644" on="1"/>
        <pt x="225" y="604" on="1"/>
        <pt x="125" y="604" on="1"/>
        <pt x="125" y="0" on="1"/>
        <pt x="80" y="0" on="1"/>
        <pt x="80" y="604" on="1"/>
        <pt x="-20" y="604" on="1"/>
        <pt x="-20" y="644" on="1"/>
      </contour>
    </TTGlyph>
    <TTGlyph name="dvMatraI.a45" xMin="-20" yMin="0" xMax="1564" yMax="873">
      <contour>
        <pt x="80" y="644" on="1"/>
        <pt x="80" y="673" on="1"/>
        <pt x="80" y="787" on="0"/>
        <pt x="184" y="830" on="1"/>
        <pt x="255" y="859" on="0"/>
        <pt x="330" y="865" on="1"/>
        <pt x="431" y="873" on="0"/>
        <pt x="572" y="873" on="1"/>
        <pt x="1060" y="873" on="0"/>
        <pt x="1564" y="813" on="1"/>
        <pt x="1564" y="771" on="1"/>
        <pt x="1010" y="831" on="0"/>
        <pt x="571" y="831" on="1"/>
        <pt x="368" y="831" on="0"/>
        <pt x="289" y="816" on="1"/>
        <pt x="203" y="799" on="0"/>
        <pt x="168" y="770" on="1"/>
        <pt x="125" y="733" on="0"/>
        <pt x="125" y="673" on="1"/>
        <pt x="125" y="644" on="1"/>
        <pt x="225" y="644" on="1"/>
        <pt x="225" y="604" on="1"/>
        <pt x="125" y="604" on="1"/>
        <pt x="125" y="0" on="1"/>
        <pt x="80" y="0" on="1"/>
        <pt x="80" y="604" on="1"/>
        <pt x="-20" y="604" on="1"/>
        <pt x="-20" y="644" on="1"/>
      </contour>
    </TTGlyph>
    <TTGlyph name="dvMatraI.a46" xMin="-20" yMin="0" xMax="1587" yMax="873">
      <contour>
        <pt x="80" y="644" on="1"/>
        <pt x="80" y="672" on="1"/>
        <pt x="80" y="746" on="0"/>
        <pt x="127" y="794" on="1"/>
        <pt x="163" y="831" on="0"/>
        <pt x="260" y="854" on="1"/>
        <pt x="329" y="869" on="0"/>
        <pt x="507" y="873" on="0"/>
        <pt x="578" y="873" on="1"/>
        <pt x="1063" y="873" on="0"/>
        <pt x="1587" y="813" on="1"/>
        <pt x="1587" y="771" on="1"/>
        <pt x="1430" y="790" on="0"/>
        <pt x="840" y="831" on="0"/>
        <pt x="577" y="831" on="1"/>
        <pt x="371" y="831" on="0"/>
        <pt x="292" y="816" on="1"/>
        <pt x="203" y="798" on="0"/>
        <pt x="170" y="769" on="1"/>
        <pt x="125" y="730" on="0"/>
        <pt x="125" y="672" on="1"/>
        <pt x="125" y="644" on="1"/>
        <pt x="225" y="644" on="1"/>
        <pt x="225" y="604" on="1"/>
        <pt x="125" y="604" on="1"/>
        <pt x="125" y="0" on="1"/>
        <pt x="80" y="0" on="1"/>
        <pt x="80" y="604" on="1"/>
        <pt x="-20" y="604" on="1"/>
        <pt x="-20" y="644" on="1"/>
      </contour>
    </TTGlyph>
    <TTGlyph name="dvMatraI.a47" xMin="-20" yMin="0" xMax="1611" yMax="873">
      <contour>
        <pt x="80" y="644" on="1"/>
        <pt x="80" y="672" on="1"/>
        <pt x="80" y="789" on="0"/>
        <pt x="187" y="831" on="1"/>
        <pt x="257" y="859" on="0"/>
        <pt x="337" y="865" on="1"/>
        <pt x="442" y="873" on="0"/>
        <pt x="585" y="873" on="1"/>
        <pt x="1080" y="873" on="0"/>
        <pt x="1611" y="813" on="1"/>
        <pt x="1611" y="771" on="1"/>
        <pt x="1028" y="831" on="0"/>
        <pt x="584" y="831" on="1"/>
        <pt x="378" y="831" on="0"/>
        <pt x="294" y="816" on="1"/>
        <pt x="207" y="800" on="0"/>
        <pt x="170" y="770" on="1"/>
        <pt x="125" y="732" on="0"/>
        <pt x="125" y="672" on="1"/>
        <pt x="125" y="644" on="1"/>
        <pt x="225" y="644" on="1"/>
        <pt x="225" y="604" on="1"/>
        <pt x="125" y="604" on="1"/>
        <pt x="125" y="0" on="1"/>
        <pt x="80" y="0" on="1"/>
        <pt x="80" y="604" on="1"/>
        <pt x="-20" y="604" on="1"/>
        <pt x="-20" y="644" on="1"/>
      </contour>
    </TTGlyph>
    <TTGlyph name="dvMatraI.a48" xMin="-20" yMin="0" xMax="1635" yMax="873">
      <contour>
        <pt x="80" y="644" on="1"/>
        <pt x="80" y="672" on="1"/>
        <pt x="80" y="789" on="0"/>
        <pt x="188" y="831" on="1"/>
        <pt x="260" y="859" on="0"/>
        <pt x="340" y="865" on="1"/>
        <pt x="446" y="873" on="0"/>
        <pt x="592" y="873" on="1"/>
        <pt x="1088" y="873" on="0"/>
        <pt x="1635" y="813" on="1"/>
        <pt x="1635" y="771" on="1"/>
        <pt x="1055" y="831" on="0"/>
        <pt x="591" y="831" on="1"/>
        <pt x="373" y="831" on="0"/>
        <pt x="297" y="816" on="1"/>
        <pt x="205" y="799" on="0"/>
        <pt x="171" y="770" on="1"/>
        <pt x="125" y="731" on="0"/>
        <pt x="125" y="672" on="1"/>
        <pt x="125" y="644" on="1"/>
        <pt x="225" y="644" on="1"/>
        <pt x="225" y="604" on="1"/>
        <pt x="125" y="604" on="1"/>
        <pt x="125" y="0" on="1"/>
        <pt x="80" y="0" on="1"/>
        <pt x="80" y="604" on="1"/>
        <pt x="-20" y="604" on="1"/>
        <pt x="-20" y="644" on="1"/>
      </contour>
    </TTGlyph>
    <TTGlyph name="dvMatraI.a49" xMin="-20" yMin="0" xMax="1659" yMax="873">
      <contour>
        <pt x="80" y="644" on="1"/>
        <pt x="80" y="671" on="1"/>
        <pt x="80" y="789" on="0"/>
        <pt x="190" y="831" on="1"/>
        <pt x="263" y="859" on="0"/>
        <pt x="344" y="865" on="1"/>
        <pt x="452" y="873" on="0"/>
        <pt x="598" y="873" on="1"/>
        <pt x="1103" y="873" on="0"/>
        <pt x="1659" y="813" on="1"/>
        <pt x="1659" y="771" on="1"/>
        <pt x="1479" y="790" on="0"/>
        <pt x="871" y="831" on="0"/>
        <pt x="597" y="831" on="1"/>
        <pt x="339" y="831" on="0"/>
        <pt x="260" y="808" on="1"/>
        <pt x="166" y="781" on="0"/>
        <pt x="140" y="736" on="1"/>
        <pt x="125" y="708" on="0"/>
        <pt x="125" y="671" on="1"/>
        <pt x="125" y="644" on="1"/>
        <pt x="225" y="644" on="1"/>
        <pt x="225" y="604" on="1"/>
        <pt x="125" y="604" on="1"/>
        <pt x="125" y="0" on="1"/>
        <pt x="80" y="0" on="1"/>
        <pt x="80" y="604" on="1"/>
        <pt x="-20" y="604" on="1"/>
        <pt x="-20" y="644" on="1"/>
      </contour>
    </TTGlyph>
    <TTGlyph name="dvMatraI.a50" xMin="-20" yMin="0" xMax="1731" yMax="873">
      <contour>
        <pt x="80" y="644" on="1"/>
        <pt x="80" y="670" on="1"/>
        <pt x="80" y="746" on="0"/>
        <pt x="131" y="796" on="1"/>
        <pt x="167" y="831" on="0"/>
        <pt x="274" y="854" on="1"/>
        <pt x="339" y="869" on="0"/>
        <pt x="538" y="873" on="0"/>
        <pt x="618" y="873" on="1"/>
        <pt x="1144" y="873" on="0"/>
        <pt x="1731" y="813" on="1"/>
        <pt x="1731" y="771" on="1"/>
        <pt x="1540" y="790" on="0"/>
        <pt x="901" y="831" on="0"/>
        <pt x="617" y="831" on="1"/>
        <pt x="408" y="831" on="0"/>
        <pt x="308" y="817" on="0"/>
        <pt x="230" y="802" on="0"/>
        <pt x="185" y="778" on="0"/>
        <pt x="164" y="762" on="1"/>
        <pt x="125" y="731" on="0"/>
        <pt x="125" y="670" on="1"/>
        <pt x="125" y="644" on="1"/>
        <pt x="225" y="644" on="1"/>
        <pt x="225" y="604" on="1"/>
        <pt x="125" y="604" on="1"/>
        <pt x="125" y="0" on="1"/>
        <pt x="80" y="0" on="1"/>
        <pt x="80" y="604" on="1"/>
        <pt x="-20" y="604" on="1"/>
        <pt x="-20" y="644" on="1"/>
      </contour>
    </TTGlyph>
    <TTGlyph name="dvNG_GA" xMin="-20" yMin="-173" xMax="445" yMax="644">
      <contour>
        <pt x="-20" y="644" on="1"/>
        <pt x="445" y="644" on="1"/>
        <pt x="445" y="604" on="1"/>
        <pt x="328" y="604" on="1"/>
        <pt x="328" y="463" on="1"/>
        <pt x="185" y="463" on="1"/>
        <pt x="137" y="463" on="0"/>
        <pt x="100" y="434" on="0"/>
        <pt x="100" y="400" on="1"/>
        <pt x="100" y="396" on="1"/>
        <pt x="100" y="361" on="0"/>
        <pt x="137" y="332" on="0"/>
        <pt x="185" y="332" on="1"/>
        <pt x="227" y="332" on="1"/>
        <pt x="357" y="332" on="0"/>
        <pt x="357" y="226" on="1"/>
        <pt x="357" y="208" on="1"/>
        <pt x="357" y="138" on="0"/>
        <pt x="312" y="113" on="1"/>
        <pt x="312" y="-173" on="1"/>
        <pt x="267" y="-173" on="1"/>
        <pt x="267" y="97" on="1"/>
        <pt x="237" y="92" on="0"/>
        <pt x="179" y="92" on="0"/>
        <pt x="166" y="93" on="1"/>
        <pt x="166" y="43" on="1"/>
        <pt x="166" y="-13" on="0"/>
        <pt x="115" y="-73" on="0"/>
        <pt x="54" y="-73" on="1"/>
        <pt x="19" y="-68" on="1"/>
        <pt x="19" y="-27" on="1"/>
        <pt x="35" y="-31" on="0"/>
        <pt x="53" y="-31" on="1"/>
        <pt x="97" y="-31" on="0"/>
        <pt x="121" y="5" on="0"/>
        <pt x="121" y="43" on="1"/>
        <pt x="121" y="97" on="1"/>
        <pt x="73" y="103" on="0"/>
        <pt x="51" y="107" on="1"/>
        <pt x="51" y="149" on="1"/>
        <pt x="141" y="134" on="0"/>
        <pt x="268" y="134" on="0"/>
        <pt x="312" y="166" on="0"/>
        <pt x="312" y="208" on="1"/>
        <pt x="312" y="226" on="1"/>
        <pt x="312" y="261" on="0"/>
        <pt x="275" y="290" on="0"/>
        <pt x="227" y="290" on="1"/>
        <pt x="185" y="290" on="1"/>
        <pt x="55" y="290" on="0"/>
        <pt x="55" y="396" on="1"/>
        <pt x="55" y="400" on="1"/>
        <pt x="55" y="455" on="0"/>
        <pt x="120" y="505" on="0"/>
        <pt x="185" y="505" on="1"/>
        <pt x="283" y="505" on="1"/>
        <pt x="283" y="604" on="1"/>
        <pt x="-20" y="604" on="1"/>
      </contour>
      <contour>
        <pt x="333" y="417" on="0"/>
        <pt x="399" y="417" on="0"/>
        <pt x="399" y="351" on="0"/>
        <pt x="333" y="351" on="0"/>
      </contour>
    </TTGlyph>
    <TTGlyph name="dvNG_MA" xMin="-20" yMin="-90" xMax="585" yMax="644">
      <contour>
        <pt x="585" y="644" on="1"/>
        <pt x="585" y="604" on="1"/>
        <pt x="485" y="604" on="1"/>
        <pt x="485" y="-90" on="1"/>
        <pt x="440" y="-90" on="1"/>
        <pt x="440" y="6" on="1"/>
        <pt x="296" y="6" on="1"/>
        <pt x="296" y="-39" on="1"/>
        <pt x="250" y="-39" on="1"/>
        <pt x="250" y="104" on="1"/>
        <pt x="222" y="102" on="0"/>
        <pt x="139" y="102" on="0"/>
        <pt x="51" y="117" on="1"/>
        <pt x="51" y="159" on="1"/>
        <pt x="141" y="144" on="0"/>
        <pt x="268" y="144" on="0"/>
        <pt x="312" y="176" on="0"/>
        <pt x="312" y="218" on="1"/>
        <pt x="312" y="226" on="1"/>
        <pt x="312" y="261" on="0"/>
        <pt x="275" y="290" on="0"/>
        <pt x="227" y="290" on="1"/>
        <pt x="185" y="290" on="1"/>
        <pt x="55" y="290" on="0"/>
        <pt x="55" y="396" on="1"/>
        <pt x="55" y="400" on="1"/>
        <pt x="55" y="455" on="0"/>
        <pt x="120" y="505" on="0"/>
        <pt x="185" y="505" on="1"/>
        <pt x="283" y="505" on="1"/>
        <pt x="283" y="604" on="1"/>
        <pt x="-20" y="604" on="1"/>
        <pt x="-20" y="644" on="1"/>
      </contour>
      <contour>
        <pt x="440" y="46" on="1"/>
        <pt x="440" y="604" on="1"/>
        <pt x="328" y="604" on="1"/>
        <pt x="328" y="463" on="1"/>
        <pt x="185" y="463" on="1"/>
        <pt x="137" y="463" on="0"/>
        <pt x="100" y="434" on="0"/>
        <pt x="100" y="400" on="1"/>
        <pt x="100" y="396" on="1"/>
        <pt x="100" y="361" on="0"/>
        <pt x="137" y="332" on="0"/>
        <pt x="185" y="332" on="1"/>
        <pt x="227" y="332" on="1"/>
        <pt x="357" y="332" on="0"/>
        <pt x="357" y="226" on="1"/>
        <pt x="357" y="218" on="1"/>
        <pt x="357" y="138" on="0"/>
        <pt x="296" y="115" on="1"/>
        <pt x="296" y="46" on="1"/>
      </contour>
      <contour>
        <pt x="333" y="351" on="0"/>
        <pt x="333" y="417" on="0"/>
        <pt x="399" y="417" on="0"/>
        <pt x="399" y="351" on="0"/>
      </contour>
    </TTGlyph>
    <TTGlyph name="dvNY_CA" xMin="-20" yMin="0" xMax="840" yMax="644">
      <contour>
        <pt x="460" y="344" on="1"/>
        <pt x="460" y="401" on="0"/>
        <pt x="470" y="439" on="1"/>
        <pt x="377" y="439" on="1"/>
        <pt x="377" y="479" on="1"/>
        <pt x="636" y="479" on="1"/>
        <pt x="636" y="439" on="1"/>
        <pt x="515" y="439" on="1"/>
        <pt x="505" y="406" on="0"/>
        <pt x="505" y="344" on="1"/>
        <pt x="505" y="187" on="1"/>
        <pt x="505" y="146" on="0"/>
        <pt x="549" y="106" on="0"/>
        <pt x="650" y="106" on="0"/>
        <pt x="695" y="121" on="1"/>
        <pt x="695" y="604" on="1"/>
        <pt x="-20" y="604" on="1"/>
        <pt x="-20" y="644" on="1"/>
        <pt x="840" y="644" on="1"/>
        <pt x="840" y="604" on="1"/>
        <pt x="740" y="604" on="1"/>
        <pt x="740" y="0" on="1"/>
        <pt x="695" y="0" on="1"/>
        <pt x="695" y="79" on="1"/>
        <pt x="653" y="64" on="0"/>
        <pt x="602" y="64" on="1"/>
        <pt x="460" y="64" on="0"/>
        <pt x="460" y="187" on="1"/>
        <pt x="460" y="259" on="1"/>
        <pt x="295" y="259" on="1"/>
        <pt x="295" y="177" on="1"/>
        <pt x="295" y="51" on="0"/>
        <pt x="157" y="51" on="1"/>
        <pt x="101" y="51" on="0"/>
        <pt x="56" y="68" on="1"/>
        <pt x="56" y="111" on="1"/>
        <pt x="107" y="93" on="0"/>
        <pt x="208" y="93" on="0"/>
        <pt x="250" y="137" on="0"/>
        <pt x="250" y="177" on="1"/>
        <pt x="250" y="383" on="1"/>
        <pt x="250" y="423" on="0"/>
        <pt x="209" y="467" on="0"/>
        <pt x="110" y="467" on="0"/>
        <pt x="65" y="449" on="1"/>
        <pt x="65" y="492" on="1"/>
        <pt x="105" y="509" on="0"/>
        <pt x="158" y="509" on="1"/>
        <pt x="295" y="509" on="0"/>
        <pt x="295" y="383" on="1"/>
        <pt x="295" y="299" on="1"/>
        <pt x="460" y="299" on="1"/>
      </contour>
    </TTGlyph>
    <TTGlyph name="dvSHA_MatraVocalicR" xMin="36" yMin="-235" xMax="577" yMax="649">
      <contour>
        <pt x="477" y="604" on="1"/>
        <pt x="477" y="-39" on="1"/>
        <pt x="445" y="-30" on="0"/>
        <pt x="385" y="-30" on="0"/>
        <pt x="361" y="-34" on="0"/>
        <pt x="349" y="-42" on="1"/>
        <pt x="326" y="-56" on="0"/>
        <pt x="326" y="-162" on="0"/>
        <pt x="366" y="-195" on="0"/>
        <pt x="395" y="-195" on="1"/>
        <pt x="437" y="-195" on="0"/>
        <pt x="482" y="-186" on="1"/>
        <pt x="482" y="-226" on="1"/>
        <pt x="449" y="-235" on="0"/>
        <pt x="345" y="-235" on="0"/>
        <pt x="283" y="-178" on="0"/>
        <pt x="283" y="-43" on="0"/>
        <pt x="344" y="10" on="0"/>
        <pt x="405" y="10" on="1"/>
        <pt x="424" y="10" on="0"/>
        <pt x="432" y="9" on="1"/>
        <pt x="432" y="138" on="1"/>
        <pt x="186" y="314" on="1"/>
        <pt x="102" y="241" on="1"/>
        <pt x="36" y="249" on="1"/>
        <pt x="149" y="343" on="1"/>
        <pt x="103" y="381" on="0"/>
        <pt x="63" y="443" on="0"/>
        <pt x="63" y="496" on="1"/>
        <pt x="63" y="532" on="1"/>
        <pt x="63" y="649" on="0"/>
        <pt x="311" y="649" on="0"/>
        <pt x="311" y="532" on="1"/>
        <pt x="311" y="496" on="1"/>
        <pt x="311" y="459" on="0"/>
        <pt x="284" y="400" on="0"/>
        <pt x="254" y="369" on="0"/>
        <pt x="221" y="342" on="1"/>
        <pt x="432" y="190" on="1"/>
        <pt x="432" y="644" on="1"/>
        <pt x="577" y="644" on="1"/>
        <pt x="577" y="604" on="1"/>
      </contour>
      <contour>
        <pt x="108" y="532" on="1"/>
        <pt x="108" y="490" on="1"/>
        <pt x="108" y="464" on="0"/>
        <pt x="135" y="418" on="0"/>
        <pt x="158" y="397" on="0"/>
        <pt x="187" y="373" on="1"/>
        <pt x="216" y="397" on="0"/>
        <pt x="239" y="418" on="0"/>
        <pt x="266" y="464" on="0"/>
        <pt x="266" y="490" on="1"/>
        <pt x="266" y="532" on="1"/>
        <pt x="266" y="570" on="0"/>
        <pt x="233" y="607" on="0"/>
        <pt x="141" y="607" on="0"/>
        <pt x="108" y="569" on="0"/>
      </contour>
    </TTGlyph>
    <TTGlyph name="dvSH_CA.aSimp" xMin="70" yMin="-5" xMax="884" yMax="649">
      <contour>
        <pt x="350" y="527" on="1"/>
        <pt x="350" y="382" on="1"/>
        <pt x="350" y="324" on="0"/>
        <pt x="280" y="260" on="0"/>
        <pt x="160" y="260" on="0"/>
        <pt x="115" y="276" on="1"/>
        <pt x="115" y="133" on="1"/>
        <pt x="115" y="86" on="0"/>
        <pt x="180" y="37" on="0"/>
        <pt x="288" y="37" on="0"/>
        <pt x="350" y="53" on="1"/>
        <pt x="350" y="11" on="1"/>
        <pt x="297" y="-5" on="0"/>
        <pt x="163" y="-5" on="0"/>
        <pt x="70" y="68" on="0"/>
        <pt x="70" y="133" on="1"/>
        <pt x="70" y="404" on="1"/>
        <pt x="115" y="404" on="1"/>
        <pt x="115" y="318" on="1"/>
        <pt x="163" y="302" on="0"/>
        <pt x="210" y="302" on="1"/>
        <pt x="305" y="302" on="0"/>
        <pt x="305" y="382" on="1"/>
        <pt x="305" y="527" on="1"/>
        <pt x="305" y="607" on="0"/>
        <pt x="115" y="607" on="0"/>
        <pt x="115" y="527" on="1"/>
        <pt x="118" y="490" on="1"/>
        <pt x="73" y="490" on="1"/>
        <pt x="70" y="510" on="0"/>
        <pt x="70" y="527" on="1"/>
        <pt x="70" y="585" on="0"/>
        <pt x="140" y="649" on="0"/>
        <pt x="280" y="649" on="0"/>
        <pt x="350" y="585" on="0"/>
      </contour>
      <contour>
        <pt x="504" y="344" on="1"/>
        <pt x="504" y="401" on="0"/>
        <pt x="514" y="439" on="1"/>
        <pt x="431" y="439" on="1"/>
        <pt x="431" y="479" on="1"/>
        <pt x="680" y="479" on="1"/>
        <pt x="680" y="439" on="1"/>
        <pt x="559" y="439" on="1"/>
        <pt x="549" y="406" on="0"/>
        <pt x="549" y="344" on="1"/>
        <pt x="549" y="187" on="1"/>
        <pt x="549" y="146" on="0"/>
        <pt x="593" y="106" on="0"/>
        <pt x="694" y="106" on="0"/>
        <pt x="739" y="121" on="1"/>
        <pt x="739" y="604" on="1"/>
        <pt x="399" y="604" on="1"/>
        <pt x="399" y="644" on="1"/>
        <pt x="884" y="644" on="1"/>
        <pt x="884" y="604" on="1"/>
        <pt x="784" y="604" on="1"/>
        <pt x="784" y="0" on="1"/>
        <pt x="739" y="0" on="1"/>
        <pt x="739" y="79" on="1"/>
        <pt x="697" y="64" on="0"/>
        <pt x="646" y="64" on="1"/>
        <pt x="504" y="64" on="0"/>
        <pt x="504" y="187" on="1"/>
      </contour>
    </TTGlyph>
    <TTGlyph name="dvSH_LA.aSimp" xMin="70" yMin="-5" xMax="1015" yMax="649">
      <contour>
        <pt x="350" y="527" on="1"/>
        <pt x="350" y="382" on="1"/>
        <pt x="350" y="324" on="0"/>
        <pt x="280" y="260" on="0"/>
        <pt x="160" y="260" on="0"/>
        <pt x="115" y="276" on="1"/>
        <pt x="115" y="133" on="1"/>
        <pt x="115" y="86" on="0"/>
        <pt x="180" y="37" on="0"/>
        <pt x="288" y="37" on="0"/>
        <pt x="350" y="53" on="1"/>
        <pt x="350" y="11" on="1"/>
        <pt x="297" y="-5" on="0"/>
        <pt x="163" y="-5" on="0"/>
        <pt x="70" y="68" on="0"/>
        <pt x="70" y="133" on="1"/>
        <pt x="70" y="404" on="1"/>
        <pt x="115" y="404" on="1"/>
        <pt x="115" y="318" on="1"/>
        <pt x="163" y="302" on="0"/>
        <pt x="210" y="302" on="1"/>
        <pt x="305" y="302" on="0"/>
        <pt x="305" y="382" on="1"/>
        <pt x="305" y="527" on="1"/>
        <pt x="305" y="607" on="0"/>
        <pt x="115" y="607" on="0"/>
        <pt x="115" y="527" on="1"/>
        <pt x="118" y="490" on="1"/>
        <pt x="73" y="490" on="1"/>
        <pt x="70" y="510" on="0"/>
        <pt x="70" y="527" on="1"/>
        <pt x="70" y="585" on="0"/>
        <pt x="140" y="649" on="0"/>
        <pt x="280" y="649" on="0"/>
        <pt x="350" y="585" on="0"/>
      </contour>
      <contour>
        <pt x="440" y="146" on="1"/>
        <pt x="440" y="354" on="1"/>
        <pt x="440" y="476" on="0"/>
        <pt x="570" y="476" on="1"/>
        <pt x="645" y="476" on="0"/>
        <pt x="677" y="433" on="1"/>
        <pt x="710" y="476" on="0"/>
        <pt x="790" y="476" on="1"/>
        <pt x="831" y="476" on="0"/>
        <pt x="870" y="460" on="1"/>
        <pt x="870" y="604" on="1"/>
        <pt x="425" y="604" on="1"/>
        <pt x="425" y="644" on="1"/>
        <pt x="1015" y="644" on="1"/>
        <pt x="1015" y="604" on="1"/>
        <pt x="915" y="604" on="1"/>
        <pt x="915" y="0" on="1"/>
        <pt x="870" y="0" on="1"/>
        <pt x="870" y="418" on="1"/>
        <pt x="835" y="434" on="0"/>
        <pt x="790" y="434" on="1"/>
        <pt x="700" y="434" on="0"/>
        <pt x="700" y="357" on="1"/>
        <pt x="700" y="206" on="1"/>
        <pt x="655" y="206" on="1"/>
        <pt x="655" y="357" on="1"/>
        <pt x="655" y="434" on="0"/>
        <pt x="570" y="434" on="1"/>
        <pt x="521" y="434" on="0"/>
        <pt x="485" y="392" on="0"/>
        <pt x="485" y="354" on="1"/>
        <pt x="485" y="146" on="1"/>
        <pt x="485" y="95" on="0"/>
        <pt x="532" y="40" on="0"/>
        <pt x="595" y="40" on="1"/>
        <pt x="620" y="40" on="0"/>
        <pt x="652" y="45" on="1"/>
        <pt x="652" y="5" on="1"/>
        <pt x="625" y="0" on="0"/>
        <pt x="595" y="0" on="1"/>
        <pt x="440" y="0" on="0"/>
      </contour>
    </TTGlyph>
    <TTGlyph name="dvSH_VA.aSimp" xMin="70" yMin="-5" xMax="845" yMax="649">
      <contour>
        <pt x="350" y="527" on="1"/>
        <pt x="350" y="382" on="1"/>
        <pt x="350" y="324" on="0"/>
        <pt x="280" y="260" on="0"/>
        <pt x="160" y="260" on="0"/>
        <pt x="115" y="276" on="1"/>
        <pt x="115" y="133" on="1"/>
        <pt x="115" y="86" on="0"/>
        <pt x="180" y="37" on="0"/>
        <pt x="288" y="37" on="0"/>
        <pt x="350" y="53" on="1"/>
        <pt x="350" y="11" on="1"/>
        <pt x="297" y="-5" on="0"/>
        <pt x="163" y="-5" on="0"/>
        <pt x="70" y="68" on="0"/>
        <pt x="70" y="133" on="1"/>
        <pt x="70" y="404" on="1"/>
        <pt x="115" y="404" on="1"/>
        <pt x="115" y="318" on="1"/>
        <pt x="163" y="302" on="0"/>
        <pt x="210" y="302" on="1"/>
        <pt x="305" y="302" on="0"/>
        <pt x="305" y="382" on="1"/>
        <pt x="305" y="527" on="1"/>
        <pt x="305" y="607" on="0"/>
        <pt x="115" y="607" on="0"/>
        <pt x="115" y="527" on="1"/>
        <pt x="118" y="490" on="1"/>
        <pt x="73" y="490" on="1"/>
        <pt x="70" y="510" on="0"/>
        <pt x="70" y="527" on="1"/>
        <pt x="70" y="585" on="0"/>
        <pt x="140" y="649" on="0"/>
        <pt x="280" y="649" on="0"/>
        <pt x="350" y="585" on="0"/>
      </contour>
      <contour>
        <pt x="700" y="449" on="1"/>
        <pt x="668" y="463" on="0"/>
        <pt x="548" y="463" on="0"/>
        <pt x="500" y="417" on="0"/>
        <pt x="500" y="380" on="1"/>
        <pt x="500" y="199" on="1"/>
        <pt x="500" y="116" on="0"/>
        <pt x="601" y="116" on="1"/>
        <pt x="668" y="116" on="0"/>
        <pt x="700" y="130" on="1"/>
      </contour>
      <contour>
        <pt x="700" y="604" on="1"/>
        <pt x="385" y="604" on="1"/>
        <pt x="385" y="644" on="1"/>
        <pt x="845" y="644" on="1"/>
        <pt x="845" y="604" on="1"/>
        <pt x="745" y="604" on="1"/>
        <pt x="745" y="0" on="1"/>
        <pt x="700" y="0" on="1"/>
        <pt x="700" y="88" on="1"/>
        <pt x="668" y="74" on="0"/>
        <pt x="530" y="74" on="0"/>
        <pt x="455" y="139" on="0"/>
        <pt x="455" y="199" on="1"/>
        <pt x="455" y="381" on="1"/>
        <pt x="455" y="438" on="0"/>
        <pt x="531" y="505" on="0"/>
        <pt x="668" y="505" on="0"/>
        <pt x="700" y="491" on="1"/>
      </contour>
    </TTGlyph>
    <TTGlyph name="dvTTH_TTHA" xMin="-20" yMin="-116" xMax="440" yMax="644">
      <contour>
        <pt x="440" y="604" on="1"/>
        <pt x="232" y="604" on="1"/>
        <pt x="232" y="507" on="1"/>
        <pt x="291" y="502" on="0"/>
        <pt x="350" y="439" on="0"/>
        <pt x="350" y="386" on="1"/>
        <pt x="350" y="297" on="1"/>
        <pt x="350" y="227" on="0"/>
        <pt x="300" y="196" on="1"/>
        <pt x="350" y="165" on="0"/>
        <pt x="350" y="95" on="1"/>
        <pt x="350" y="6" on="1"/>
        <pt x="350" y="-52" on="0"/>
        <pt x="280" y="-116" on="0"/>
        <pt x="140" y="-116" on="0"/>
        <pt x="70" y="-52" on="0"/>
        <pt x="70" y="6" on="1"/>
        <pt x="70" y="95" on="1"/>
        <pt x="70" y="165" on="0"/>
        <pt x="120" y="196" on="1"/>
        <pt x="70" y="227" on="0"/>
        <pt x="70" y="297" on="1"/>
        <pt x="70" y="386" on="1"/>
        <pt x="70" y="438" on="0"/>
        <pt x="128" y="502" on="0"/>
        <pt x="187" y="507" on="1"/>
        <pt x="187" y="604" on="1"/>
        <pt x="-20" y="604" on="1"/>
        <pt x="-20" y="644" on="1"/>
        <pt x="440" y="644" on="1"/>
      </contour>
      <contour>
        <pt x="305" y="6" on="1"/>
        <pt x="305" y="95" on="1"/>
        <pt x="305" y="175" on="0"/>
        <pt x="115" y="175" on="0"/>
        <pt x="115" y="95" on="1"/>
        <pt x="115" y="6" on="1"/>
        <pt x="115" y="-74" on="0"/>
        <pt x="305" y="-74" on="0"/>
      </contour>
      <contour>
        <pt x="305" y="297" on="1"/>
        <pt x="305" y="386" on="1"/>
        <pt x="305" y="466" on="0"/>
        <pt x="115" y="466" on="0"/>
        <pt x="115" y="386" on="1"/>
        <pt x="115" y="297" on="1"/>
        <pt x="115" y="217" on="0"/>
        <pt x="305" y="217" on="0"/>
      </contour>
    </TTGlyph>
    <TTGlyph name="dvTT_GA" xMin="-20" yMin="-173" xMax="405" yMax="644">
      <contour>
        <pt x="315" y="462" on="1"/>
        <pt x="200" y="462" on="1"/>
        <pt x="147" y="462" on="0"/>
        <pt x="105" y="424" on="0"/>
        <pt x="105" y="387" on="1"/>
        <pt x="105" y="215" on="1"/>
        <pt x="105" y="124" on="0"/>
        <pt x="218" y="124" on="1"/>
        <pt x="288" y="124" on="0"/>
        <pt x="343" y="144" on="1"/>
        <pt x="343" y="101" on="1"/>
        <pt x="330" y="96" on="0"/>
        <pt x="304" y="91" on="1"/>
        <pt x="304" y="-173" on="1"/>
        <pt x="259" y="-173" on="1"/>
        <pt x="259" y="84" on="1"/>
        <pt x="231" y="82" on="0"/>
        <pt x="190" y="82" on="0"/>
        <pt x="158" y="89" on="1"/>
        <pt x="158" y="43" on="1"/>
        <pt x="158" y="-13" on="0"/>
        <pt x="107" y="-73" on="0"/>
        <pt x="46" y="-73" on="1"/>
        <pt x="11" y="-68" on="1"/>
        <pt x="11" y="-27" on="1"/>
        <pt x="27" y="-31" on="0"/>
        <pt x="45" y="-31" on="1"/>
        <pt x="89" y="-31" on="0"/>
        <pt x="113" y="5" on="0"/>
        <pt x="113" y="43" on="1"/>
        <pt x="113" y="109" on="1"/>
        <pt x="60" y="145" on="0"/>
        <pt x="60" y="215" on="1"/>
        <pt x="60" y="387" on="1"/>
        <pt x="60" y="504" on="0"/>
        <pt x="200" y="504" on="1"/>
        <pt x="270" y="504" on="1"/>
        <pt x="270" y="604" on="1"/>
        <pt x="-20" y="604" on="1"/>
        <pt x="-20" y="644" on="1"/>
        <pt x="405" y="644" on="1"/>
        <pt x="405" y="604" on="1"/>
        <pt x="315" y="604" on="1"/>
      </contour>
    </TTGlyph>
    <TTGlyph name="dvT_KH_NA" xMin="-20" yMin="-4" xMax="1374" yMax="644">
      <contour>
        <pt x="517" y="529" on="1"/>
        <pt x="517" y="572" on="0"/>
        <pt x="504" y="604" on="1"/>
        <pt x="-20" y="604" on="1"/>
        <pt x="-20" y="644" on="1"/>
        <pt x="1374" y="644" on="1"/>
        <pt x="1374" y="604" on="1"/>
        <pt x="1274" y="604" on="1"/>
        <pt x="1274" y="0" on="1"/>
        <pt x="1229" y="0" on="1"/>
        <pt x="1229" y="436" on="1"/>
        <pt x="1074" y="436" on="1"/>
        <pt x="1087" y="411" on="0"/>
        <pt x="1087" y="361" on="1"/>
        <pt x="1087" y="175" on="1"/>
        <pt x="1087" y="63" on="0"/>
        <pt x="964" y="63" on="1"/>
        <pt x="855" y="63" on="0"/>
        <pt x="843" y="152" on="1"/>
        <pt x="814" y="134" on="0"/>
        <pt x="688" y="134" on="0"/>
        <pt x="626" y="188" on="0"/>
        <pt x="626" y="251" on="1"/>
        <pt x="626" y="387" on="1"/>
        <pt x="626" y="504" on="0"/>
        <pt x="756" y="504" on="1"/>
        <pt x="846" y="504" on="0"/>
        <pt x="873" y="449" on="1"/>
        <pt x="904" y="476" on="0"/>
        <pt x="964" y="476" on="1"/>
        <pt x="1229" y="476" on="1"/>
        <pt x="1229" y="604" on="1"/>
        <pt x="549" y="604" on="1"/>
        <pt x="562" y="579" on="0"/>
        <pt x="562" y="529" on="1"/>
        <pt x="562" y="407" on="1"/>
        <pt x="562" y="267" on="0"/>
        <pt x="420" y="267" on="1"/>
        <pt x="380" y="267" on="0"/>
        <pt x="347" y="274" on="1"/>
        <pt x="347" y="172" on="1"/>
        <pt x="347" y="39" on="0"/>
        <pt x="528" y="39" on="1"/>
        <pt x="602" y="39" on="0"/>
        <pt x="671" y="55" on="1"/>
        <pt x="671" y="11" on="1"/>
        <pt x="598" y="-4" on="0"/>
        <pt x="529" y="-4" on="1"/>
        <pt x="302" y="-4" on="0"/>
        <pt x="302" y="172" on="1"/>
        <pt x="302" y="447" on="1"/>
        <pt x="257" y="453" on="0"/>
        <pt x="208" y="453" on="1"/>
        <pt x="102" y="453" on="0"/>
        <pt x="102" y="373" on="1"/>
        <pt x="102" y="115" on="1"/>
        <pt x="102" y="78" on="0"/>
        <pt x="144" y="40" on="0"/>
        <pt x="197" y="41" on="1"/>
        <pt x="197" y="0" on="1"/>
        <pt x="185" y="-1" on="0"/>
        <pt x="179" y="-1" on="1"/>
        <pt x="119" y="-3" on="0"/>
        <pt x="57" y="60" on="0"/>
        <pt x="57" y="115" on="1"/>
        <pt x="57" y="373" on="1"/>
        <pt x="57" y="430" on="0"/>
        <pt x="135" y="495" on="0"/>
        <pt x="261" y="495" on="0"/>
        <pt x="347" y="481" on="1"/>
        <pt x="347" y="316" on="1"/>
        <pt x="391" y="309" on="0"/>
        <pt x="420" y="309" on="1"/>
        <pt x="517" y="309" on="0"/>
        <pt x="517" y="407" on="1"/>
      </contour>
      <contour>
        <pt x="671" y="387" on="1"/>
        <pt x="671" y="251" on="1"/>
        <pt x="671" y="214" on="0"/>
        <pt x="707" y="176" on="0"/>
        <pt x="805" y="176" on="0"/>
        <pt x="841" y="214" on="0"/>
        <pt x="841" y="251" on="1"/>
        <pt x="841" y="387" on="1"/>
        <pt x="841" y="424" on="0"/>
        <pt x="805" y="462" on="0"/>
        <pt x="707" y="462" on="0"/>
        <pt x="671" y="424" on="0"/>
      </contour>
      <contour>
        <pt x="1042" y="361" on="1"/>
        <pt x="1042" y="404" on="0"/>
        <pt x="1029" y="436" on="1"/>
        <pt x="964" y="436" on="1"/>
        <pt x="921" y="436" on="0"/>
        <pt x="886" y="402" on="0"/>
        <pt x="886" y="366" on="1"/>
        <pt x="886" y="175" on="1"/>
        <pt x="886" y="140" on="0"/>
        <pt x="921" y="105" on="0"/>
        <pt x="1007" y="105" on="0"/>
        <pt x="1042" y="139" on="0"/>
        <pt x="1042" y="175" on="1"/>
      </contour>
    </TTGlyph>
    <TTGlyph name="dvT_S_NA" xMin="-20" yMin="-5" xMax="1225" yMax="644">
      <contour>
        <pt x="517" y="529" on="1"/>
        <pt x="517" y="570" on="0"/>
        <pt x="509" y="604" on="1"/>
        <pt x="-20" y="604" on="1"/>
        <pt x="-20" y="644" on="1"/>
        <pt x="1225" y="644" on="1"/>
        <pt x="1225" y="604" on="1"/>
        <pt x="1125" y="604" on="1"/>
        <pt x="1125" y="0" on="1"/>
        <pt x="1080" y="0" on="1"/>
        <pt x="1080" y="436" on="1"/>
        <pt x="925" y="436" on="1"/>
        <pt x="938" y="411" on="0"/>
        <pt x="938" y="361" on="1"/>
        <pt x="938" y="175" on="1"/>
        <pt x="938" y="63" on="0"/>
        <pt x="692" y="63" on="0"/>
        <pt x="692" y="175" on="1"/>
        <pt x="692" y="297" on="1"/>
        <pt x="531" y="297" on="1"/>
        <pt x="495" y="261" on="0"/>
        <pt x="422" y="261" on="1"/>
        <pt x="385" y="261" on="0"/>
        <pt x="347" y="271" on="1"/>
        <pt x="347" y="133" on="1"/>
        <pt x="347" y="37" on="0"/>
        <pt x="464" y="37" on="1"/>
        <pt x="516" y="37" on="0"/>
        <pt x="587" y="53" on="1"/>
        <pt x="587" y="11" on="1"/>
        <pt x="528" y="-5" on="0"/>
        <pt x="389" y="-5" on="0"/>
        <pt x="302" y="64" on="0"/>
        <pt x="302" y="133" on="1"/>
        <pt x="302" y="447" on="1"/>
        <pt x="257" y="453" on="0"/>
        <pt x="208" y="453" on="1"/>
        <pt x="102" y="453" on="0"/>
        <pt x="102" y="373" on="1"/>
        <pt x="102" y="115" on="1"/>
        <pt x="102" y="78" on="0"/>
        <pt x="144" y="40" on="0"/>
        <pt x="197" y="41" on="1"/>
        <pt x="197" y="0" on="1"/>
        <pt x="185" y="-1" on="0"/>
        <pt x="179" y="-1" on="1"/>
        <pt x="119" y="-3" on="0"/>
        <pt x="57" y="60" on="0"/>
        <pt x="57" y="115" on="1"/>
        <pt x="57" y="373" on="1"/>
        <pt x="57" y="430" on="0"/>
        <pt x="135" y="495" on="0"/>
        <pt x="261" y="495" on="0"/>
        <pt x="347" y="481" on="1"/>
        <pt x="347" y="313" on="1"/>
        <pt x="391" y="303" on="0"/>
        <pt x="422" y="303" on="1"/>
        <pt x="517" y="303" on="0"/>
        <pt x="517" y="383" on="1"/>
      </contour>
      <contour>
        <pt x="893" y="361" on="1"/>
        <pt x="893" y="399" on="0"/>
        <pt x="880" y="436" on="1"/>
        <pt x="815" y="436" on="1"/>
        <pt x="772" y="436" on="0"/>
        <pt x="737" y="402" on="0"/>
        <pt x="737" y="366" on="1"/>
        <pt x="737" y="175" on="1"/>
        <pt x="737" y="140" on="0"/>
        <pt x="772" y="105" on="0"/>
        <pt x="858" y="105" on="0"/>
        <pt x="893" y="139" on="0"/>
        <pt x="893" y="175" on="1"/>
      </contour>
      <contour>
        <pt x="1080" y="476" on="1"/>
        <pt x="1080" y="604" on="1"/>
        <pt x="554" y="604" on="1"/>
        <pt x="562" y="579" on="0"/>
        <pt x="562" y="529" on="1"/>
        <pt x="562" y="383" on="1"/>
        <pt x="562" y="357" on="0"/>
        <pt x="555" y="337" on="1"/>
        <pt x="692" y="337" on="1"/>
        <pt x="692" y="366" on="1"/>
        <pt x="692" y="476" on="0"/>
        <pt x="815" y="476" on="1"/>
      </contour>
    </TTGlyph>
    <TTGlyph name="e" xMin="65" yMin="-5" xMax="377" yMax="573">
      <contour>
        <pt x="65" y="139" on="1"/>
        <pt x="65" y="419" on="1"/>
        <pt x="65" y="488" on="0"/>
        <pt x="142" y="573" on="0"/>
        <pt x="300" y="573" on="0"/>
        <pt x="377" y="488" on="0"/>
        <pt x="377" y="419" on="1"/>
        <pt x="377" y="252" on="1"/>
        <pt x="115" y="252" on="1"/>
        <pt x="115" y="139" on="1"/>
        <pt x="115" y="42" on="0"/>
        <pt x="248" y="42" on="1"/>
        <pt x="302" y="42" on="0"/>
        <pt x="359" y="59" on="1"/>
        <pt x="359" y="10" on="1"/>
        <pt x="308" y="-5" on="0"/>
        <pt x="248" y="-5" on="1"/>
        <pt x="65" y="-5" on="0"/>
      </contour>
      <contour>
        <pt x="115" y="297" on="1"/>
        <pt x="327" y="297" on="1"/>
        <pt x="327" y="419" on="1"/>
        <pt x="327" y="528" on="0"/>
        <pt x="115" y="528" on="0"/>
        <pt x="115" y="419" on="1"/>
      </contour>
    </TTGlyph>
    <TTGlyph name="eacute" xMin="65" yMin="-5" xMax="377" yMax="713">
      <contour>
        <pt x="65" y="139" on="1"/>
        <pt x="65" y="419" on="1"/>
        <pt x="65" y="488" on="0"/>
        <pt x="142" y="573" on="0"/>
        <pt x="300" y="573" on="0"/>
        <pt x="377" y="488" on="0"/>
        <pt x="377" y="419" on="1"/>
        <pt x="377" y="252" on="1"/>
        <pt x="115" y="252" on="1"/>
        <pt x="115" y="139" on="1"/>
        <pt x="115" y="42" on="0"/>
        <pt x="248" y="42" on="1"/>
        <pt x="302" y="42" on="0"/>
        <pt x="359" y="59" on="1"/>
        <pt x="359" y="10" on="1"/>
        <pt x="308" y="-5" on="0"/>
        <pt x="248" y="-5" on="1"/>
        <pt x="65" y="-5" on="0"/>
      </contour>
      <contour>
        <pt x="115" y="297" on="1"/>
        <pt x="327" y="297" on="1"/>
        <pt x="327" y="419" on="1"/>
        <pt x="327" y="528" on="0"/>
        <pt x="115" y="528" on="0"/>
        <pt x="115" y="419" on="1"/>
      </contour>
      <contour>
        <pt x="302" y="713" on="1"/>
        <pt x="247" y="608" on="1"/>
        <pt x="210" y="608" on="1"/>
        <pt x="247" y="713" on="1"/>
      </contour>
    </TTGlyph>
    <TTGlyph name="ecaron" xMin="65" yMin="-5" xMax="377" yMax="713">
      <contour>
        <pt x="65" y="139" on="1"/>
        <pt x="65" y="419" on="1"/>
        <pt x="65" y="488" on="0"/>
        <pt x="142" y="573" on="0"/>
        <pt x="300" y="573" on="0"/>
        <pt x="377" y="488" on="0"/>
        <pt x="377" y="419" on="1"/>
        <pt x="377" y="252" on="1"/>
        <pt x="115" y="252" on="1"/>
        <pt x="115" y="139" on="1"/>
        <pt x="115" y="42" on="0"/>
        <pt x="248" y="42" on="1"/>
        <pt x="302" y="42" on="0"/>
        <pt x="359" y="59" on="1"/>
        <pt x="359" y="10" on="1"/>
        <pt x="308" y="-5" on="0"/>
        <pt x="248" y="-5" on="1"/>
        <pt x="65" y="-5" on="0"/>
      </contour>
      <contour>
        <pt x="115" y="297" on="1"/>
        <pt x="327" y="297" on="1"/>
        <pt x="327" y="419" on="1"/>
        <pt x="327" y="528" on="0"/>
        <pt x="115" y="528" on="0"/>
        <pt x="115" y="419" on="1"/>
      </contour>
      <contour>
        <pt x="202" y="608" on="1"/>
        <pt x="154" y="713" on="1"/>
        <pt x="190" y="713" on="1"/>
        <pt x="225" y="645" on="1"/>
        <pt x="260" y="713" on="1"/>
        <pt x="296" y="713" on="1"/>
        <pt x="248" y="608" on="1"/>
      </contour>
    </TTGlyph>
    <TTGlyph name="ecircumflex" xMin="65" yMin="-5" xMax="377" yMax="713">
      <contour>
        <pt x="65" y="139" on="1"/>
        <pt x="65" y="419" on="1"/>
        <pt x="65" y="488" on="0"/>
        <pt x="142" y="573" on="0"/>
        <pt x="300" y="573" on="0"/>
        <pt x="377" y="488" on="0"/>
        <pt x="377" y="419" on="1"/>
        <pt x="377" y="252" on="1"/>
        <pt x="115" y="252" on="1"/>
        <pt x="115" y="139" on="1"/>
        <pt x="115" y="42" on="0"/>
        <pt x="248" y="42" on="1"/>
        <pt x="302" y="42" on="0"/>
        <pt x="359" y="59" on="1"/>
        <pt x="359" y="10" on="1"/>
        <pt x="308" y="-5" on="0"/>
        <pt x="248" y="-5" on="1"/>
        <pt x="65" y="-5" on="0"/>
      </contour>
      <contour>
        <pt x="115" y="297" on="1"/>
        <pt x="327" y="297" on="1"/>
        <pt x="327" y="419" on="1"/>
        <pt x="327" y="528" on="0"/>
        <pt x="115" y="528" on="0"/>
        <pt x="115" y="419" on="1"/>
      </contour>
      <contour>
        <pt x="229" y="676" on="1"/>
        <pt x="194" y="608" on="1"/>
        <pt x="158" y="608" on="1"/>
        <pt x="206" y="713" on="1"/>
        <pt x="252" y="713" on="1"/>
        <pt x="300" y="608" on="1"/>
        <pt x="264" y="608" on="1"/>
      </contour>
    </TTGlyph>
    <TTGlyph name="edieresis" xMin="65" yMin="-5" xMax="377" yMax="692">
      <contour>
        <pt x="65" y="139" on="1"/>
        <pt x="65" y="419" on="1"/>
        <pt x="65" y="488" on="0"/>
        <pt x="142" y="573" on="0"/>
        <pt x="300" y="573" on="0"/>
        <pt x="377" y="488" on="0"/>
        <pt x="377" y="419" on="1"/>
        <pt x="377" y="252" on="1"/>
        <pt x="115" y="252" on="1"/>
        <pt x="115" y="139" on="1"/>
        <pt x="115" y="42" on="0"/>
        <pt x="248" y="42" on="1"/>
        <pt x="302" y="42" on="0"/>
        <pt x="359" y="59" on="1"/>
        <pt x="359" y="10" on="1"/>
        <pt x="308" y="-5" on="0"/>
        <pt x="248" y="-5" on="1"/>
        <pt x="65" y="-5" on="0"/>
      </contour>
      <contour>
        <pt x="115" y="297" on="1"/>
        <pt x="327" y="297" on="1"/>
        <pt x="327" y="419" on="1"/>
        <pt x="327" y="528" on="0"/>
        <pt x="115" y="528" on="0"/>
        <pt x="115" y="419" on="1"/>
      </contour>
      <contour>
        <pt x="195" y="626" on="0"/>
        <pt x="129" y="626" on="0"/>
        <pt x="129" y="692" on="0"/>
        <pt x="195" y="692" on="0"/>
      </contour>
      <contour>
        <pt x="320" y="626" on="0"/>
        <pt x="254" y="626" on="0"/>
        <pt x="254" y="692" on="0"/>
        <pt x="320" y="692" on="0"/>
      </contour>
    </TTGlyph>
    <TTGlyph name="edotaccent" xMin="65" yMin="-5" xMax="377" yMax="721">
      <contour>
        <pt x="65" y="139" on="1"/>
        <pt x="65" y="419" on="1"/>
        <pt x="65" y="488" on="0"/>
        <pt x="142" y="573" on="0"/>
        <pt x="300" y="573" on="0"/>
        <pt x="377" y="488" on="0"/>
        <pt x="377" y="419" on="1"/>
        <pt x="377" y="252" on="1"/>
        <pt x="115" y="252" on="1"/>
        <pt x="115" y="139" on="1"/>
        <pt x="115" y="42" on="0"/>
        <pt x="248" y="42" on="1"/>
        <pt x="302" y="42" on="0"/>
        <pt x="359" y="59" on="1"/>
        <pt x="359" y="10" on="1"/>
        <pt x="308" y="-5" on="0"/>
        <pt x="248" y="-5" on="1"/>
        <pt x="65" y="-5" on="0"/>
      </contour>
      <contour>
        <pt x="115" y="297" on="1"/>
        <pt x="327" y="297" on="1"/>
        <pt x="327" y="419" on="1"/>
        <pt x="327" y="528" on="0"/>
        <pt x="115" y="528" on="0"/>
        <pt x="115" y="419" on="1"/>
      </contour>
      <contour>
        <pt x="257" y="655" on="0"/>
        <pt x="191" y="655" on="0"/>
        <pt x="191" y="721" on="0"/>
        <pt x="257" y="721" on="0"/>
      </contour>
    </TTGlyph>
</ttFont>
